<svg width="55" height="28" viewBox="0 0 55 28" fill="none" xmlns="http://www.w3.org/2000/svg">
<path d="M41.5459 20.7201C38.5981 25.2103 33.1124 27.9997 27.237 27.9997C21.3616 27.9997 15.7988 25.1745 12.8631 20.627C12.6398 20.2761 12.6641 19.8536 12.924 19.5277C13.1839 19.1983 13.6224 19.0372 14.0731 19.1052L15.0314 19.2484C15.2709 19.2842 15.478 19.4131 15.5958 19.6029C17.9224 23.3054 22.3442 25.6006 27.1395 25.6006C31.9349 25.6006 36.2796 23.3412 38.6184 19.7032C38.7402 19.517 38.9554 19.3845 39.1949 19.3558C39.5888 19.3021 39.9705 19.2484 40.344 19.1911C40.4131 19.1804 40.478 19.1768 40.5471 19.1768C40.9206 19.1768 41.2739 19.3344 41.4931 19.6172C41.753 19.9502 41.7733 20.3728 41.5459 20.7201Z" fill="#006299"/>
<path d="M47.6207 13.6426C45.9762 13.3382 44.62 12.3177 44.0353 10.9284C42.472 7.21874 38.0827 0 27.6962 0C27.5459 0 27.3957 1.53001e-06 27.2455 0.00716298H27.213C27.0587 0.00716298 26.9125 0 26.7623 0C16.3757 0 11.9904 7.22232 10.4231 10.9284C9.83842 12.3177 8.48223 13.3382 6.83776 13.6426C3.73154 14.2191 0 14.8886 0 15.6048C0 16.7077 14.7799 18.6806 15.5798 18.7952C18.7998 19.2571 22.7424 19.5257 27.0059 19.5257H27.4525C31.716 19.5257 35.6627 19.2571 38.8785 18.7952C39.6744 18.6806 54.4584 16.7077 54.4584 15.6048C54.4584 14.8886 50.7269 14.2226 47.6207 13.6426ZM40.121 15.8053C37.7701 16.7256 32.9788 17.3593 27.4525 17.3593C27.3794 17.3593 27.3145 17.3593 27.2455 17.3593C27.2455 17.3593 27.0749 17.3593 27.0059 17.3593C21.4796 17.3593 16.6883 16.7291 14.3374 15.8053C13.3507 15.4186 12.7944 14.9817 12.7944 14.5198C12.7944 14.1618 13.1314 13.818 13.7445 13.4993C13.9476 13.3919 14.0734 13.1985 14.0856 12.9944C14.0856 12.8763 14.0978 12.7653 14.11 12.6471C14.6135 6.92512 20.2696 2.56022 27.213 2.37402H27.2252C35.0821 2.80371 39.849 6.92154 40.3525 12.6471C40.3647 12.7653 40.3728 12.8763 40.3768 12.9944C40.389 13.2021 40.5149 13.3919 40.7179 13.4993C41.3311 13.818 41.6681 14.1618 41.6681 14.5198C41.6681 14.9853 41.1118 15.4222 40.1251 15.8053H40.121Z" fill="#006299"/>
</svg>
