<svg width="277" height="106" viewBox="0 0 277 106" fill="none" xmlns="http://www.w3.org/2000/svg">
<path d="M172.497 61.9851C170.635 65.2093 167.17 67.2122 163.459 67.2122C159.747 67.2122 156.234 65.1835 154.379 61.9182C154.238 61.6662 154.254 61.3628 154.418 61.1289C154.582 60.8923 154.859 60.7766 155.144 60.8255L155.749 60.9283C155.9 60.954 156.031 61.0466 156.105 61.1829C157.575 63.8414 160.368 65.4895 163.397 65.4895C166.426 65.4895 169.171 63.8671 170.648 61.2549C170.725 61.1212 170.861 61.026 171.012 61.0055C171.261 60.9669 171.502 60.9283 171.738 60.8872C171.782 60.8795 171.823 60.8769 171.866 60.8769C172.102 60.8769 172.325 60.99 172.464 61.1931C172.628 61.4323 172.641 61.7357 172.497 61.9851Z" fill="#006299"/>
<path d="M176.334 56.9044C175.295 56.6859 174.439 55.9531 174.069 54.9555C173.082 52.2918 170.309 47.1084 163.749 47.1084C163.654 47.1084 163.559 47.1084 163.464 47.1135H163.443C163.346 47.1135 163.254 47.1084 163.159 47.1084C156.598 47.1084 153.828 52.2944 152.838 54.9555C152.468 55.9531 151.612 56.6859 150.573 56.9044C148.611 57.3184 146.254 57.7992 146.254 58.3134C146.254 59.1053 155.59 60.522 156.095 60.6043C158.129 60.9359 160.619 61.1288 163.312 61.1288H163.595C166.288 61.1288 168.781 60.9359 170.812 60.6043C171.315 60.522 180.653 59.1053 180.653 58.3134C180.653 57.7992 178.296 57.3209 176.334 56.9044ZM171.597 58.4574C170.112 59.1181 167.085 59.5732 163.595 59.5732C163.548 59.5732 163.507 59.5732 163.464 59.5732C163.464 59.5732 163.356 59.5732 163.312 59.5732C159.822 59.5732 156.795 59.1207 155.31 58.4574C154.687 58.1797 154.336 57.866 154.336 57.5343C154.336 57.2772 154.549 57.0304 154.936 56.8016C155.064 56.7244 155.144 56.5856 155.151 56.439C155.151 56.3542 155.159 56.2745 155.167 56.1896C155.485 52.081 159.057 48.9468 163.443 48.8131H163.451C168.414 49.1216 171.425 52.0784 171.743 56.1896C171.751 56.2745 171.756 56.3542 171.758 56.439C171.766 56.5882 171.846 56.7244 171.974 56.8016C172.361 57.0304 172.574 57.2772 172.574 57.5343C172.574 57.8686 172.223 58.1823 171.599 58.4574H171.597Z" fill="#006299"/>
<path d="M59.3932 47.4702C58.3185 45.5624 56.7771 44.0943 54.7688 43.0659C52.7554 42.04 50.3753 41.5283 47.6284 41.5283H39.7852V66.7794H47.6284C50.3753 66.7794 52.7554 66.278 54.7688 65.2753C56.7771 64.2725 58.3185 62.8224 59.3932 60.9249C60.4653 59.0326 60.9987 56.7931 60.9987 54.2066C60.9987 51.62 60.4653 49.378 59.3932 47.4702ZM55.0715 61.47C53.3607 63.1978 50.8805 64.0591 47.6284 64.0591H43.0733V44.2074H47.6284C50.8575 44.2074 53.3325 45.0893 55.0561 46.8506C56.7771 48.6169 57.6388 51.0698 57.6388 54.2066C57.6388 57.3433 56.7848 59.7474 55.0715 61.47Z" fill="#006299"/>
<path d="M69.4389 47.5061C68.3643 48.1335 67.541 49.0154 66.9613 50.1492V46.925H63.6758V66.7793H66.9613V55.9831C66.9613 51.9747 68.8028 49.9667 72.4911 49.9667H73.358V46.5625C71.8165 46.5625 70.5084 46.8762 69.4389 47.5061Z" fill="#006299"/>
<path d="M93.5588 56.0912C93.5588 54.2812 93.1689 52.6536 92.3867 51.219C91.6044 49.7817 90.4913 48.653 89.0447 47.8328C87.5981 47.01 85.9361 46.5986 84.0561 46.5986C82.1761 46.5986 80.4244 47.0152 78.9419 47.8508C77.4594 48.6812 76.3078 49.8717 75.4897 51.4169C74.6715 52.9622 74.2637 54.7645 74.2637 56.8137C74.2637 58.8629 74.6843 60.673 75.5281 62.2337C76.372 63.7892 77.5338 64.9925 79.0163 65.8358C80.4987 66.6817 82.1787 67.106 84.0561 67.106C86.4183 67.106 88.3907 66.5095 89.9834 65.3113C91.5762 64.1183 92.6354 62.5654 93.1638 60.655H89.6218C89.2345 61.7683 88.5702 62.6579 87.6161 63.3187C86.6645 63.982 85.477 64.3163 84.0561 64.3163C82.3223 64.3163 80.845 63.7661 79.6293 62.6682C78.4135 61.5703 77.7441 60.0405 77.6236 58.0839H93.4536C93.5254 57.3845 93.5588 56.7186 93.5588 56.0912ZM77.6595 55.4048C77.8288 53.5175 78.4956 52.0469 79.6652 50.985C80.8347 49.9205 82.2479 49.3883 83.9125 49.3883C85.0667 49.3883 86.1234 49.6223 87.0724 50.0954C88.0265 50.5659 88.778 51.2549 89.3345 52.16C89.8885 53.065 90.163 54.1475 90.163 55.4048H77.6595Z" fill="#006299"/>
<path d="M111.777 46.9252V50.5479C111.149 49.414 110.2 48.473 108.923 47.7222C107.643 46.9766 106.137 46.5986 104.403 46.5986C102.67 46.5986 101.046 47.0229 99.6148 47.8688C98.1837 48.7121 97.0551 49.9025 96.237 51.4349C95.4188 52.9699 95.0059 54.7517 95.0059 56.7803C95.0059 58.8089 95.4188 60.5702 96.237 62.1411C97.0551 63.7121 98.176 64.9308 99.5969 65.8024C101.018 66.6714 102.611 67.106 104.367 67.106C106.124 67.106 107.579 66.7254 108.866 65.9644C110.156 65.2033 111.128 64.2417 111.777 63.0821V66.7794H115.101V46.9252H111.777ZM110.872 60.745C110.269 61.8711 109.459 62.7273 108.433 63.3187C107.409 63.9101 106.283 64.2057 105.055 64.2057C103.826 64.2057 102.705 63.9101 101.692 63.3187C100.682 62.7273 99.8739 61.8711 99.2711 60.745C98.6684 59.6214 98.3658 58.2998 98.3658 56.7803C98.3658 55.2608 98.6684 53.9803 99.2711 52.867C99.8739 51.7537 100.682 50.9104 101.692 50.3293C102.705 49.7508 103.826 49.4629 105.055 49.4629C106.283 49.4629 107.409 49.7586 108.433 50.3473C109.459 50.9413 110.269 51.7949 110.872 52.903C111.475 54.0138 111.777 55.3199 111.777 56.8137C111.777 58.3076 111.475 59.6214 110.872 60.745Z" fill="#006299"/>
<path d="M149.795 50.4038C149.097 49.1208 148.143 48.1617 146.937 47.5241C145.737 46.8839 144.362 46.5625 142.818 46.5625C141.274 46.5625 139.83 46.9507 138.555 47.7221C137.278 48.496 136.36 49.5836 135.809 50.9848C135.18 49.5347 134.231 48.4369 132.954 47.6861C131.674 46.9353 130.207 46.5625 128.545 46.5625C127.219 46.5625 126.006 46.8402 124.911 47.3955C123.815 47.9535 122.941 48.748 122.292 49.7867V46.925H119.004V66.7793H122.292V55.8366C122.292 53.7591 122.8 52.1753 123.81 51.0723C124.823 49.9744 126.185 49.4242 127.894 49.4242C129.602 49.4242 130.874 49.9487 131.851 51.0028C132.826 52.0544 133.316 53.5663 133.316 55.546V66.7793H136.568V55.8366C136.568 53.7591 137.073 52.1753 138.086 51.0723C139.097 49.9744 140.459 49.4242 142.169 49.4242C143.88 49.4242 145.152 49.9487 146.127 51.0028C147.101 52.0544 147.591 53.5663 147.591 55.546V57.1941C148.266 57.0064 149.156 56.8085 150.29 56.5693L150.492 56.5282C150.613 56.5025 150.731 56.4691 150.844 56.4305V55.0781C150.844 53.2397 150.492 51.6842 149.795 50.4038ZM147.591 59.3564V66.7793H150.844V60.0944C149.361 59.809 148.322 59.5647 147.591 59.3564Z" fill="#006299"/>
<path d="M189.281 58.4464C188.643 57.6956 187.876 57.1351 186.983 56.7623C186.093 56.3895 184.939 56.009 183.516 55.6207C182.382 55.3096 181.497 55.0242 180.859 54.7671C180.22 54.5151 179.689 54.1783 179.271 53.7567C178.848 53.3324 178.635 52.7951 178.635 52.142C178.635 51.3218 178.986 50.6559 179.684 50.1494C180.384 49.6403 181.323 49.3883 182.503 49.3883C183.78 49.3883 184.796 49.7046 185.557 50.3293C186.316 50.9593 186.732 51.7949 186.804 52.8311H190.092C189.997 50.8976 189.274 49.378 187.922 48.2647C186.576 47.154 184.803 46.5986 182.613 46.5986C181.192 46.5986 179.925 46.848 178.817 47.3417C177.706 47.8353 176.852 48.5064 176.25 49.3523C175.647 50.1982 175.347 51.129 175.347 52.142C175.347 53.4224 175.68 54.456 176.342 55.2402C177.006 56.027 177.799 56.6158 178.727 57.0143C178.778 57.0374 178.832 57.0606 178.886 57.0811C179.391 57.292 179.971 57.5028 180.63 57.7085C181.148 57.8705 181.71 58.0324 182.323 58.1944C183.934 58.6032 185.129 59.0223 185.901 59.4414C186.67 59.8631 187.058 60.511 187.058 61.3801C187.058 62.2491 186.696 62.9279 185.973 63.4807C185.25 64.0386 184.262 64.3163 183.01 64.3163C181.659 64.3163 180.571 64.0026 179.738 63.3753C178.909 62.7453 178.445 61.9354 178.348 60.9481H174.949C175.024 62.1565 175.406 63.221 176.106 64.1517C176.806 65.0825 177.758 65.8075 178.961 66.3269C180.166 66.8463 181.528 67.106 183.046 67.106C184.467 67.106 185.724 66.8566 186.819 66.3629C187.919 65.8692 188.766 65.1828 189.369 64.3163C189.971 63.4447 190.274 62.4676 190.274 61.3801C190.248 60.1742 189.917 59.1946 189.281 58.4464Z" fill="#006299"/>
<path d="M210.709 51.4169C209.832 49.8717 208.632 48.6812 207.113 47.8508C205.595 47.0152 203.897 46.5986 202.02 46.5986C200.142 46.5986 198.439 47.0152 196.921 47.8508C195.405 48.6812 194.207 49.8794 193.327 51.4349C192.445 52.9956 192.004 54.7851 192.004 56.8137C192.004 58.8424 192.435 60.673 193.289 62.2337C194.146 63.7892 195.325 64.9925 196.833 65.8358C198.336 66.6817 200.016 67.106 201.873 67.106C203.73 67.106 205.464 66.6817 207.006 65.8358C208.547 64.9925 209.77 63.7892 210.673 62.2337C211.579 60.673 212.027 58.8681 212.027 56.8137C212.027 54.7594 211.589 52.9622 210.709 51.4169ZM207.711 60.8735C207.07 61.9843 206.233 62.8173 205.197 63.3753C204.164 63.9281 203.053 64.2057 201.873 64.2057C200.694 64.2057 199.609 63.9358 198.619 63.3933C197.634 62.8482 196.844 62.0203 196.254 60.9095C195.664 59.7988 195.369 58.4361 195.369 56.8137C195.369 55.1913 195.669 53.8698 196.272 52.7565C196.872 51.6483 197.672 50.8204 198.675 50.2779C199.675 49.7328 200.778 49.4629 201.984 49.4629C203.189 49.4629 204.259 49.7328 205.269 50.2779C206.282 50.8204 207.1 51.6483 207.729 52.7565C208.352 53.8698 208.668 55.2222 208.668 56.8137C208.668 58.4053 208.349 59.7654 207.711 60.8735Z" fill="#006299"/>
<path d="M218.607 46.9255V45.5114C218.607 44.2078 218.902 43.2745 219.492 42.7037C220.082 42.1355 221.1 41.8527 222.547 41.8527V39.1016C220.016 39.1016 218.179 39.6132 217.035 40.6417C215.889 41.6676 215.319 43.2925 215.319 45.5114V46.9255H212.752V49.6406H215.319V66.7798H218.607V49.6406H222.762V46.9255H218.607Z" fill="#006299"/>
<path d="M234.109 49.6401V46.925H228.941V41.9268H225.655V46.925H223.088V49.6401H225.655V61.3465C225.655 61.7656 225.676 62.159 225.722 62.5241L230.28 66.7433C230.557 66.769 230.844 66.7793 231.147 66.7793H234.109V63.9896H231.688C231.624 63.9896 231.565 63.9896 231.5 63.9845H228.949V61.5753C228.941 61.5008 228.941 61.4236 228.941 61.3465V49.6401H234.109Z" fill="#006299"/>
<path d="M172.168 56.4728C172.152 56.4625 172.139 56.4394 172.139 56.4291C172.139 56.3468 172.132 56.2645 172.122 56.1591C171.778 51.7008 168.464 48.7363 163.47 48.4277H163.429C158.828 48.5666 155.109 51.891 154.778 56.1823C154.773 56.2645 154.765 56.3468 154.765 56.4162C154.763 56.4394 154.753 56.4625 154.737 56.4702C154.214 56.7762 153.947 57.1362 153.947 57.5347C153.947 58.0283 154.353 58.4577 155.15 58.8125C156.743 59.5196 159.867 59.9618 163.309 59.9618C163.352 59.9618 163.447 59.9593 163.447 59.9593C163.496 59.9618 163.542 59.9618 163.594 59.9618C167.036 59.9618 170.162 59.5196 171.752 58.8125C172.55 58.4577 172.955 58.0283 172.955 57.5347C172.955 57.1362 172.691 56.7762 172.168 56.4728ZM171.596 58.4603C170.111 59.1211 167.084 59.5762 163.594 59.5762C163.547 59.5762 163.506 59.5762 163.463 59.5736C163.463 59.5736 163.355 59.5762 163.309 59.5762C159.818 59.5762 156.794 59.1211 155.307 58.4603C154.683 58.1826 154.332 57.8689 154.332 57.5347C154.332 57.2776 154.545 57.0307 154.932 56.8019C155.06 56.7248 155.14 56.5885 155.15 56.4394C155.15 56.3545 155.158 56.2748 155.163 56.19C155.481 52.0813 159.054 48.9471 163.44 48.8134H163.447C168.41 49.1194 171.421 52.0787 171.739 56.19C171.745 56.2748 171.752 56.3545 171.755 56.4394C171.762 56.5885 171.842 56.7248 171.97 56.8019C172.36 57.0307 172.57 57.2776 172.57 57.5347C172.57 57.8689 172.219 58.1826 171.596 58.4603Z" fill="white"/>
<path d="M172.168 56.4728C172.152 56.4625 172.139 56.4394 172.139 56.4291C172.139 56.3468 172.132 56.2645 172.122 56.1591C171.778 51.7008 168.464 48.7363 163.47 48.4277H163.429C158.828 48.5666 155.109 51.891 154.778 56.1823C154.773 56.2645 154.765 56.3468 154.765 56.4162C154.763 56.4394 154.753 56.4625 154.737 56.4702C154.214 56.7762 153.947 57.1362 153.947 57.5347C153.947 58.0283 154.353 58.4577 155.15 58.8125C156.743 59.5196 159.867 59.9618 163.309 59.9618C163.352 59.9618 163.447 59.9593 163.447 59.9593C163.496 59.9618 163.542 59.9618 163.594 59.9618C167.036 59.9618 170.162 59.5196 171.752 58.8125C172.55 58.4577 172.955 58.0283 172.955 57.5347C172.955 57.1362 172.691 56.7762 172.168 56.4728ZM172.034 57.7558C171.921 57.8561 171.734 57.9769 171.439 58.108C169.965 58.7637 166.884 59.1905 163.594 59.1905C163.553 59.1905 163.517 59.1905 163.455 59.1879C163.455 59.1879 163.352 59.1905 163.309 59.1905C160.018 59.1905 156.94 58.7637 155.463 58.108C154.873 57.8458 154.717 57.6247 154.717 57.5347C154.717 57.4627 154.824 57.3136 155.13 57.1336C155.366 56.9922 155.517 56.7402 155.532 56.4497C155.535 56.3802 155.54 56.3108 155.548 56.2208C155.845 52.3487 159.238 49.3328 163.44 49.1991C168.01 49.487 171.044 52.1764 171.357 56.2414C171.362 56.3108 171.367 56.3802 171.37 56.4625C171.385 56.7402 171.537 56.9922 171.775 57.1362C172.078 57.3136 172.186 57.4627 172.186 57.5347C172.186 57.5784 172.147 57.6581 172.034 57.7558ZM178.885 57.0822C179.39 57.293 179.97 57.5038 180.629 57.7095C180.285 57.4884 179.716 57.2956 178.885 57.0822ZM172.168 56.4728C172.152 56.4625 172.139 56.4394 172.139 56.4291C172.139 56.3468 172.132 56.2645 172.122 56.1591C171.778 51.7008 168.464 48.7363 163.47 48.4277H163.429C158.828 48.5666 155.109 51.891 154.778 56.1823C154.773 56.2645 154.765 56.3468 154.765 56.4162C154.763 56.4394 154.753 56.4625 154.737 56.4702C154.214 56.7762 153.947 57.1362 153.947 57.5347C153.947 58.0283 154.353 58.4577 155.15 58.8125C156.743 59.5196 159.867 59.9618 163.309 59.9618C163.352 59.9618 163.447 59.9593 163.447 59.9593C163.496 59.9618 163.542 59.9618 163.594 59.9618C167.036 59.9618 170.162 59.5196 171.752 58.8125C172.55 58.4577 172.955 58.0283 172.955 57.5347C172.955 57.1362 172.691 56.7762 172.168 56.4728ZM172.034 57.7558C171.921 57.8561 171.734 57.9769 171.439 58.108C169.965 58.7637 166.884 59.1905 163.594 59.1905C163.553 59.1905 163.517 59.1905 163.455 59.1879C163.455 59.1879 163.352 59.1905 163.309 59.1905C160.018 59.1905 156.94 58.7637 155.463 58.108C154.873 57.8458 154.717 57.6247 154.717 57.5347C154.717 57.4627 154.824 57.3136 155.13 57.1336C155.366 56.9922 155.517 56.7402 155.532 56.4497C155.535 56.3802 155.54 56.3108 155.548 56.2208C155.845 52.3487 159.238 49.3328 163.44 49.1991C168.01 49.487 171.044 52.1764 171.357 56.2414C171.362 56.3108 171.367 56.3802 171.37 56.4625C171.385 56.7402 171.537 56.9922 171.775 57.1362C172.078 57.3136 172.186 57.4627 172.186 57.5347C172.186 57.5784 172.147 57.6581 172.034 57.7558ZM172.168 56.4728C172.152 56.4625 172.139 56.4394 172.139 56.4291C172.139 56.3468 172.132 56.2645 172.122 56.1591C171.778 51.7008 168.464 48.7363 163.47 48.4277H163.429C158.828 48.5666 155.109 51.891 154.778 56.1823C154.773 56.2645 154.765 56.3468 154.765 56.4162C154.763 56.4394 154.753 56.4625 154.737 56.4702C154.214 56.7762 153.947 57.1362 153.947 57.5347C153.947 58.0283 154.353 58.4577 155.15 58.8125C156.743 59.5196 159.867 59.9618 163.309 59.9618C163.352 59.9618 163.447 59.9593 163.447 59.9593C163.496 59.9618 163.542 59.9618 163.594 59.9618C167.036 59.9618 170.162 59.5196 171.752 58.8125C172.55 58.4577 172.955 58.0283 172.955 57.5347C172.955 57.1362 172.691 56.7762 172.168 56.4728ZM172.034 57.7558C171.921 57.8561 171.734 57.9769 171.439 58.108C169.965 58.7637 166.884 59.1905 163.594 59.1905C163.553 59.1905 163.517 59.1905 163.455 59.1879C163.455 59.1879 163.352 59.1905 163.309 59.1905C160.018 59.1905 156.94 58.7637 155.463 58.108C154.873 57.8458 154.717 57.6247 154.717 57.5347C154.717 57.4627 154.824 57.3136 155.13 57.1336C155.366 56.9922 155.517 56.7402 155.532 56.4497C155.535 56.3802 155.54 56.3108 155.548 56.2208C155.845 52.3487 159.238 49.3328 163.44 49.1991C168.01 49.487 171.044 52.1764 171.357 56.2414C171.362 56.3108 171.367 56.3802 171.37 56.4625C171.385 56.7402 171.537 56.9922 171.775 57.1362C172.078 57.3136 172.186 57.4627 172.186 57.5347C172.186 57.5784 172.147 57.6581 172.034 57.7558Z" fill="white"/>
</svg>
