<svg width="295" height="261" viewBox="0 0 295 261" fill="none" xmlns="http://www.w3.org/2000/svg">
<g clip-path="url(#clip0_2020_549)">
<path d="M64.203 80.1694C63.4157 80.1694 62.6606 80.48 62.1039 81.0329C61.5471 81.5858 61.2344 82.3356 61.2344 83.1175C61.2344 83.8994 61.5471 84.6492 62.1039 85.2021C62.6606 85.755 63.4157 86.0655 64.203 86.0655H101.519V84.7795C101.519 83.8655 101.748 82.9658 102.184 82.1611C102.621 81.3565 103.252 80.6721 104.02 80.1694H64.203Z" fill="#055987"/>
<path d="M98.1597 73.5362H85.5429C84.7555 73.5362 84.0005 73.2257 83.4437 72.6728C82.887 72.1199 82.5742 71.3701 82.5742 70.5882C82.5742 69.8063 82.887 69.0565 83.4437 68.5036C84.0005 67.9507 84.7555 67.6401 85.5429 67.6401H98.1597C98.9471 67.6401 99.7022 67.9507 100.259 68.5036C100.816 69.0565 101.128 69.8063 101.128 70.5882C101.128 71.3701 100.816 72.1199 100.259 72.6728C99.7022 73.2257 98.9471 73.5362 98.1597 73.5362Z" fill="#055987"/>
<path d="M69.8619 52.5314H20.8788C20.0915 52.5314 19.3364 52.2208 18.7797 51.6679C18.2229 51.115 17.9102 50.3652 17.9102 49.5833C17.9102 48.8014 18.2229 48.0516 18.7797 47.4987C19.3364 46.9458 20.0915 46.6353 20.8788 46.6353H69.8619C70.6492 46.6353 71.4043 46.9458 71.961 47.4987C72.5178 48.0516 72.8305 48.8014 72.8305 49.5833C72.8305 50.3652 72.5178 51.115 71.961 51.6679C71.4043 52.2208 70.6492 52.5314 69.8619 52.5314Z" fill="#055987"/>
<path d="M48.5232 40.0021H42.2148C41.4274 40.0021 40.6723 39.6915 40.1156 39.1386C39.5589 38.5857 39.2461 37.8359 39.2461 37.054C39.2461 36.2721 39.5589 35.5223 40.1156 34.9694C40.6723 34.4166 41.4274 34.106 42.2148 34.106H48.5232C49.3105 34.106 50.0656 34.4166 50.6223 34.9694C51.1791 35.5223 51.4918 36.2721 51.4918 37.054C51.4918 37.8359 51.1791 38.5857 50.6223 39.1386C50.0656 39.6915 49.3105 40.0021 48.5232 40.0021Z" fill="#055987"/>
<path d="M101.145 139.46H54.9686C53.2961 139.458 51.6926 138.798 50.5099 137.623C49.3273 136.449 48.662 134.856 48.6602 133.196V60.6587C48.662 58.9978 49.3273 57.4054 50.5099 56.231C51.6926 55.0565 53.2961 54.3959 54.9686 54.394H128.73C130.403 54.3959 132.006 55.0565 133.189 56.231C134.372 57.4054 135.037 58.9978 135.039 60.6587V78.6372H134.296V60.6587C134.295 59.1932 133.708 57.7882 132.664 56.7519C131.621 55.7156 130.206 55.1327 128.73 55.1311H54.9686C53.4928 55.1327 52.078 55.7156 51.0345 56.7519C49.991 57.7882 49.404 59.1932 49.4023 60.6587V133.196C49.404 134.661 49.991 136.066 51.0345 137.102C52.078 138.139 53.4928 138.721 54.9686 138.723H101.145V139.46Z" fill="#AEE6FF"/>
<path d="M49.0317 96.0369H15.3709C13.6984 96.035 12.0949 95.3744 10.9123 94.1999C9.72963 93.0255 9.06438 91.4332 9.0625 89.7722V30.7895C9.06438 29.1286 9.72963 27.5363 10.9123 26.3618C12.0949 25.1874 13.6984 24.5268 15.3709 24.5249H75.3682C77.0407 24.5268 78.6442 25.1874 79.8269 26.3618C81.0095 27.5363 81.6748 29.1286 81.6766 30.7895V54.7626H80.9345V30.7895C80.9328 29.324 80.3458 27.919 79.3023 26.8827C78.2588 25.8465 76.844 25.2636 75.3682 25.2619H15.3709C13.8952 25.2636 12.4803 25.8465 11.4368 26.8827C10.3933 27.919 9.80634 29.324 9.80467 30.7895V89.7722C9.80634 91.2377 10.3933 92.6427 11.4368 93.679C12.4803 94.7153 13.8952 95.2982 15.3709 95.2999H49.0317V96.0369Z" fill="#AEE6FF"/>
<path d="M199.277 80.1694C200.046 80.6721 200.677 81.3565 201.113 82.1611C201.55 82.9658 201.778 83.8655 201.778 84.7795V86.0655H239.095C239.882 86.0655 240.637 85.755 241.194 85.2021C241.75 84.6492 242.063 83.8994 242.063 83.1175C242.063 82.3356 241.75 81.5858 241.194 81.0329C240.637 80.48 239.882 80.1694 239.095 80.1694H199.277Z" fill="#055987"/>
<path d="M202.172 70.5882C202.173 69.8066 202.486 69.0573 203.042 68.5046C203.599 67.9519 204.353 67.641 205.141 67.6401H217.757C218.545 67.6401 219.3 67.9507 219.857 68.5036C220.413 69.0565 220.726 69.8063 220.726 70.5882C220.726 71.3701 220.413 72.1199 219.857 72.6728C219.3 73.2257 218.545 73.5362 217.757 73.5362H205.141C204.353 73.5354 203.599 73.2245 203.042 72.6718C202.486 72.1191 202.173 71.3698 202.172 70.5882Z" fill="#055987"/>
<path d="M230.469 49.5833C230.47 48.8017 230.783 48.0524 231.339 47.4997C231.896 46.947 232.65 46.6361 233.437 46.6353H282.42C283.208 46.6353 283.963 46.9458 284.52 47.4987C285.076 48.0516 285.389 48.8014 285.389 49.5833C285.389 50.3652 285.076 51.115 284.52 51.6679C283.963 52.2208 283.208 52.5314 282.42 52.5314H233.437C232.65 52.5305 231.896 52.2196 231.339 51.6669C230.783 51.1142 230.47 50.3649 230.469 49.5833Z" fill="#055987"/>
<path d="M251.805 37.054C251.806 36.2724 252.119 35.5231 252.675 34.9704C253.232 34.4177 253.986 34.1069 254.773 34.106H261.082C261.869 34.106 262.624 34.4166 263.181 34.9694C263.738 35.5223 264.05 36.2721 264.05 37.054C264.05 37.8359 263.738 38.5857 263.181 39.1386C262.624 39.6915 261.869 40.0021 261.082 40.0021H254.773C253.986 40.0012 253.232 39.6903 252.675 39.1376C252.119 38.5849 251.806 37.8356 251.805 37.054Z" fill="#055987"/>
<path d="M202.151 139.46H248.328C250 139.458 251.604 138.798 252.787 137.623C253.969 136.449 254.634 134.856 254.636 133.196V60.6587C254.634 58.9978 253.969 57.4054 252.787 56.231C251.604 55.0565 250 54.3959 248.328 54.394H174.566C172.894 54.3959 171.29 55.0565 170.108 56.231C168.925 57.4054 168.26 58.9978 168.258 60.6587V78.6372H169V60.6587C169.002 59.1932 169.589 57.7882 170.632 56.7519C171.676 55.7156 173.09 55.1327 174.566 55.1311H248.328C249.804 55.1327 251.218 55.7156 252.262 56.7519C253.305 57.7882 253.892 59.1932 253.894 60.6587V133.196C253.892 134.661 253.305 136.066 252.262 137.102C251.218 138.139 249.804 138.721 248.328 138.723H202.151V139.46Z" fill="#AEE6FF"/>
<path d="M254.266 96.0369H287.927C289.599 96.035 291.203 95.3744 292.385 94.1999C293.568 93.0255 294.233 91.4332 294.235 89.7722V30.7895C294.233 29.1286 293.568 27.5363 292.385 26.3618C291.203 25.1874 289.599 24.5268 287.927 24.5249H227.93C226.257 24.5268 224.654 25.1874 223.471 26.3618C222.288 27.5363 221.623 29.1286 221.621 30.7895V54.7626H222.363V30.7895C222.365 29.324 222.952 27.919 223.995 26.8827C225.039 25.8465 226.454 25.2636 227.93 25.2619H287.927C289.403 25.2636 290.817 25.8465 291.861 26.8827C292.904 27.919 293.491 29.324 293.493 30.7895V89.7722C293.491 91.2377 292.904 92.6427 291.861 93.679C290.817 94.7153 289.403 95.2982 287.927 95.2999H254.266V96.0369Z" fill="#AEE6FF"/>
<path d="M196.057 78.5146H107.086C105.414 78.5179 103.811 79.179 102.629 80.3532C101.446 81.5273 100.781 83.1188 100.777 84.7793V172.296C100.779 173.957 101.444 175.549 102.627 176.724C103.81 177.898 105.413 178.559 107.086 178.561H196.057C197.729 178.559 199.333 177.898 200.515 176.724C201.698 175.549 202.363 173.957 202.365 172.296V84.7793C202.363 83.1183 201.698 81.5259 200.515 80.3514C199.333 79.177 197.729 78.5164 196.057 78.5146ZM201.623 172.296C201.621 173.761 201.034 175.166 199.991 176.203C198.947 177.239 197.532 177.822 196.057 177.824H107.086C105.61 177.822 104.195 177.239 103.152 176.203C102.108 175.166 101.521 173.761 101.52 172.296V84.7793C101.522 83.314 102.109 81.9093 103.152 80.8732C104.196 79.837 105.61 79.2539 107.086 79.2517H196.057C197.532 79.2534 198.947 79.8364 199.991 80.8726C201.034 81.9089 201.621 83.3138 201.623 84.7793V172.296Z" fill="#173B61"/>
<path d="M189.049 112.598H114.09C113.302 112.598 112.547 112.287 111.991 111.734C111.434 111.181 111.121 110.432 111.121 109.65C111.121 108.868 111.434 108.118 111.991 107.565C112.547 107.012 113.302 106.702 114.09 106.702H189.049C189.836 106.702 190.591 107.012 191.148 107.565C191.705 108.118 192.017 108.868 192.017 109.65C192.017 110.432 191.705 111.181 191.148 111.734C190.591 112.287 189.836 112.598 189.049 112.598Z" fill="#AEE6FF"/>
<path d="M167.714 100.069H135.43C134.642 100.069 133.887 99.7584 133.33 99.2055C132.774 98.6526 132.461 97.9028 132.461 97.1209C132.461 96.339 132.774 95.5892 133.33 95.0363C133.887 94.4834 134.642 94.1729 135.43 94.1729H167.714C168.501 94.1729 169.256 94.4834 169.813 95.0363C170.37 95.5892 170.683 96.339 170.683 97.1209C170.683 97.9028 170.37 98.6526 169.813 99.2055C169.256 99.7584 168.501 100.069 167.714 100.069Z" fill="#34BDFC"/>
<path d="M146.19 130.286H113.906C113.119 130.286 112.364 129.976 111.807 129.423C111.25 128.87 110.938 128.12 110.938 127.338C110.938 126.556 111.25 125.806 111.807 125.254C112.364 124.701 113.119 124.39 113.906 124.39H146.19C146.978 124.39 147.733 124.701 148.29 125.254C148.846 125.806 149.159 126.556 149.159 127.338C149.159 128.12 148.846 128.87 148.29 129.423C147.733 129.976 146.978 130.286 146.19 130.286Z" fill="#AEE6FF"/>
<path d="M146.19 143.184H113.906C113.119 143.184 112.364 142.874 111.807 142.321C111.25 141.768 110.938 141.018 110.938 140.236C110.938 139.454 111.25 138.704 111.807 138.152C112.364 137.599 113.119 137.288 113.906 137.288H146.19C146.978 137.288 147.733 137.599 148.29 138.152C148.846 138.704 149.159 139.454 149.159 140.236C149.159 141.018 148.846 141.768 148.29 142.321C147.733 142.874 146.978 143.184 146.19 143.184Z" fill="#AEE6FF"/>
<path d="M146.19 156.082H113.906C113.119 156.082 112.364 155.771 111.807 155.218C111.25 154.665 110.938 153.915 110.938 153.134C110.938 152.352 111.25 151.602 111.807 151.049C112.364 150.496 113.119 150.186 113.906 150.186H146.19C146.978 150.186 147.733 150.496 148.29 151.049C148.846 151.602 149.159 152.352 149.159 153.134C149.159 153.915 148.846 154.665 148.29 155.218C147.733 155.771 146.978 156.082 146.19 156.082Z" fill="#AEE6FF"/>
<path d="M186.454 132.814C189.514 132.814 191.994 130.351 191.994 127.313C191.994 124.274 189.514 121.811 186.454 121.811C183.394 121.811 180.914 124.274 180.914 127.313C180.914 130.351 183.394 132.814 186.454 132.814Z" fill="#34BDFC"/>
<path d="M185.904 129.411C185.779 129.411 185.658 129.371 185.558 129.297L185.552 129.292L184.25 128.303C184.128 128.21 184.049 128.073 184.028 127.922C184.008 127.771 184.049 127.618 184.143 127.497C184.236 127.376 184.374 127.297 184.526 127.277C184.678 127.257 184.832 127.298 184.954 127.391L185.797 128.033L187.79 125.451C187.836 125.392 187.894 125.341 187.96 125.304C188.025 125.266 188.098 125.241 188.173 125.232C188.249 125.222 188.325 125.227 188.399 125.246C188.472 125.266 188.541 125.299 188.601 125.345L188.589 125.362L188.601 125.345C188.723 125.438 188.803 125.575 188.823 125.726C188.843 125.877 188.802 126.03 188.708 126.151L186.365 129.186C186.31 129.256 186.241 129.312 186.161 129.351C186.081 129.39 185.993 129.41 185.904 129.41L185.904 129.411Z" fill="white"/>
<path d="M45.3725 17.2037C43.6695 17.2037 42.0046 16.7021 40.5886 15.7625C39.1726 14.8229 38.0689 13.4874 37.4172 11.9249C36.7654 10.3624 36.5949 8.6431 36.9272 6.98436C37.2594 5.32562 38.0796 3.80198 39.2838 2.6061C40.4881 1.41022 42.0224 0.595811 43.6927 0.26587C45.363 -0.0640709 47.0944 0.105269 48.6678 0.752479C50.2412 1.39969 51.5861 2.4957 52.5322 3.90191C53.4784 5.30813 53.9834 6.96138 53.9834 8.65262C53.9808 10.9197 53.0728 13.0932 51.4585 14.6963C49.8442 16.2994 47.6555 17.2011 45.3725 17.2037ZM45.3725 0.838581C43.8163 0.838589 42.2949 1.29688 41.0009 2.15551C39.7069 3.01413 38.6984 4.23452 38.1029 5.66235C37.5073 7.09018 37.3515 8.66132 37.6551 10.1771C37.9587 11.6929 38.7081 13.0852 39.8086 14.178C40.909 15.2708 42.3111 16.015 43.8375 16.3165C45.3639 16.618 46.946 16.4633 48.3838 15.8718C49.8216 15.2804 51.0505 14.2789 51.9151 12.9939C52.7798 11.7089 53.2412 10.1981 53.2412 8.65262C53.2389 6.58092 52.4091 4.59474 50.9339 3.12983C49.4588 1.66492 47.4587 0.840913 45.3725 0.838581Z" fill="#AEE6FF"/>
<path d="M44.5546 11.7745C44.3692 11.7748 44.1888 11.7153 44.0405 11.6049L44.0313 11.598L42.0948 10.127C42.0051 10.0587 41.9298 9.97353 41.8733 9.87636C41.8167 9.7792 41.78 9.67192 41.7652 9.56067C41.7504 9.44941 41.7578 9.33634 41.787 9.22793C41.8162 9.11952 41.8667 9.01788 41.9354 8.92881C42.0042 8.83975 42.0899 8.76501 42.1878 8.70886C42.2856 8.6527 42.3936 8.61623 42.5057 8.60154C42.6177 8.58684 42.7316 8.5942 42.8407 8.6232C42.9499 8.6522 43.0523 8.70227 43.1419 8.77055L44.3962 9.72572L47.3602 5.88577C47.4289 5.79674 47.5146 5.72203 47.6124 5.6659C47.7102 5.60977 47.8182 5.57331 47.9302 5.55862C48.0422 5.54394 48.156 5.5513 48.2651 5.58028C48.3742 5.60927 48.4765 5.65932 48.5662 5.72758L48.548 5.75313L48.5669 5.72777C48.7478 5.8658 48.8661 6.06946 48.896 6.29403C48.9258 6.51861 48.8647 6.74577 48.726 6.92565L45.2398 11.4403C45.1592 11.5443 45.0555 11.6285 44.9368 11.6862C44.8181 11.744 44.6875 11.7739 44.5553 11.7735L44.5546 11.7745Z" fill="#AEE6FF"/>
<path d="M99.9936 47.0533C98.2905 47.0533 96.6257 46.5517 95.2097 45.6121C93.7936 44.6725 92.69 43.337 92.0383 41.7745C91.3865 40.212 91.216 38.4927 91.5483 36.8339C91.8805 35.1752 92.7007 33.6516 93.9049 32.4557C95.1092 31.2598 96.6435 30.4454 98.3138 30.1155C99.9841 29.7855 101.715 29.9549 103.289 30.6021C104.862 31.2493 106.207 32.3453 107.153 33.7515C108.099 35.1577 108.605 36.811 108.605 38.5022C108.602 40.7693 107.694 42.9429 106.08 44.5459C104.465 46.149 102.277 47.0507 99.9936 47.0533ZM99.9936 30.6882C98.4373 30.6882 96.916 31.1465 95.622 32.0051C94.328 32.8638 93.3195 34.0842 92.7239 35.512C92.1284 36.9398 91.9726 38.511 92.2762 40.0267C92.5798 41.5425 93.3292 42.9348 94.4297 44.0276C95.5302 45.1204 96.9322 45.8646 98.4586 46.1661C99.985 46.4676 101.567 46.3129 103.005 45.7215C104.443 45.13 105.672 44.1285 106.536 42.8435C107.401 41.5585 107.862 40.0477 107.862 38.5022C107.86 36.4305 107.03 34.4443 105.555 32.9794C104.08 31.5145 102.08 30.6905 99.9936 30.6882Z" fill="#AEE6FF"/>
<path d="M99.1757 41.6232C98.9903 41.6235 98.8098 41.5639 98.6615 41.4535L98.6523 41.4466L96.7159 39.9756C96.5347 39.8377 96.4162 39.634 96.3863 39.4093C96.3564 39.1846 96.4176 38.9573 96.5565 38.7774C96.6954 38.5976 96.9005 38.4799 97.1268 38.4502C97.353 38.4205 97.5819 38.4813 97.763 38.6192L99.0173 39.5744L101.981 35.7344C102.05 35.6454 102.136 35.5707 102.234 35.5145C102.331 35.4584 102.439 35.4219 102.551 35.4073C102.663 35.3926 102.777 35.3999 102.886 35.4289C102.995 35.4579 103.098 35.508 103.187 35.5762L103.169 35.6018L103.188 35.5764C103.369 35.7144 103.487 35.9181 103.517 36.1427C103.547 36.3672 103.486 36.5944 103.347 36.7743L99.8609 41.2889C99.7802 41.3929 99.6765 41.4771 99.5578 41.5349C99.4391 41.5927 99.3086 41.6225 99.1764 41.6222L99.1757 41.6232Z" fill="#AEE6FF"/>
<path d="M186.454 145.711C189.514 145.711 191.994 143.248 191.994 140.21C191.994 137.172 189.514 134.708 186.454 134.708C183.394 134.708 180.914 137.172 180.914 140.21C180.914 143.248 183.394 145.711 186.454 145.711Z" fill="#34BDFC"/>
<path d="M185.904 142.309C185.779 142.309 185.658 142.269 185.558 142.195L185.552 142.19L184.25 141.201C184.19 141.155 184.139 141.098 184.101 141.032C184.063 140.967 184.038 140.895 184.028 140.82C184.018 140.745 184.023 140.669 184.043 140.596C184.063 140.524 184.097 140.455 184.143 140.395C184.189 140.335 184.247 140.285 184.313 140.247C184.378 140.21 184.451 140.185 184.526 140.175C184.602 140.165 184.678 140.17 184.752 140.19C184.825 140.209 184.894 140.243 184.954 140.289L185.797 140.931L187.79 138.349C187.836 138.29 187.894 138.239 187.96 138.202C188.025 138.164 188.098 138.139 188.173 138.129C188.249 138.12 188.325 138.125 188.399 138.144C188.472 138.164 188.541 138.197 188.601 138.243L188.589 138.26L188.601 138.243C188.723 138.336 188.803 138.473 188.823 138.624C188.843 138.775 188.802 138.928 188.708 139.049L186.365 142.084C186.31 142.154 186.241 142.21 186.161 142.249C186.081 142.288 185.993 142.308 185.904 142.308L185.904 142.309Z" fill="white"/>
<path d="M186.454 158.635C189.514 158.635 191.994 156.172 191.994 153.134C191.994 150.095 189.514 147.632 186.454 147.632C183.394 147.632 180.914 150.095 180.914 153.134C180.914 156.172 183.394 158.635 186.454 158.635Z" fill="#34BDFC"/>
<path d="M185.903 155.232C185.779 155.233 185.657 155.193 185.558 155.118L185.551 155.114L184.25 154.125C184.128 154.032 184.048 153.895 184.028 153.744C184.008 153.593 184.05 153.44 184.143 153.32C184.236 153.199 184.374 153.12 184.526 153.1C184.678 153.08 184.832 153.12 184.954 153.213L185.797 153.855L187.79 151.273C187.836 151.213 187.893 151.163 187.959 151.125C188.025 151.088 188.098 151.063 188.173 151.053C188.248 151.043 188.325 151.048 188.398 151.068C188.471 151.087 188.54 151.121 188.6 151.167L188.588 151.184L188.601 151.167C188.723 151.26 188.802 151.397 188.822 151.548C188.842 151.699 188.801 151.851 188.708 151.972L186.364 155.008C186.31 155.078 186.24 155.134 186.16 155.173C186.08 155.212 185.993 155.232 185.904 155.232L185.903 155.232Z" fill="white"/>
<path d="M151.578 71.0059C145.734 70.907 143.078 66.5036 143.078 62.4541C143.078 58.4047 145.735 54.0019 151.566 53.9038H151.578C157.41 54.0026 160.066 58.406 160.066 62.4554C160.066 66.5048 157.409 70.9079 151.578 71.0059ZM151.572 54.6408C146.246 54.7333 143.821 58.7552 143.82 62.4541C143.82 66.1547 146.248 70.1786 151.578 70.2689C156.896 70.1793 159.323 66.1558 159.324 62.4554C159.324 58.7565 156.898 54.7346 151.572 54.6408Z" fill="#34BDFC"/>
<path d="M153.507 62.9194C154.997 65.4891 150.908 66.4928 149.344 64.9447L149.736 64.1132C152.279 66.295 154.52 62.516 150.635 62.8751V61.9641C154.193 62.249 152.194 58.693 149.825 60.7967L149.442 59.9654C151.373 57.9749 155.709 60.3818 152.648 62.3709C152.989 62.4502 153.293 62.6439 153.507 62.9194Z" fill="#34BDFC"/>
<path d="M203.896 47.0533C202.193 47.0533 200.528 46.5517 199.112 45.6121C197.696 44.6725 196.592 43.337 195.941 41.7745C195.289 40.212 195.118 38.4927 195.451 36.8339C195.783 35.1752 196.603 33.6516 197.807 32.4557C199.011 31.2598 200.546 30.4454 202.216 30.1155C203.886 29.7855 205.618 29.9549 207.191 30.6021C208.765 31.2493 210.109 32.3453 211.056 33.7515C212.002 35.1577 212.507 36.811 212.507 38.5022C212.504 40.7693 211.596 42.9429 209.982 44.5459C208.368 46.149 206.179 47.0507 203.896 47.0533ZM203.896 30.6882C202.34 30.6882 200.818 31.1465 199.524 32.0051C198.23 32.8638 197.222 34.0842 196.626 35.512C196.031 36.9398 195.875 38.511 196.179 40.0267C196.482 41.5425 197.232 42.9348 198.332 44.0276C199.432 45.1204 200.835 45.8646 202.361 46.1661C203.887 46.4676 205.469 46.3129 206.907 45.7215C208.345 45.13 209.574 44.1285 210.439 42.8435C211.303 41.5585 211.765 40.0477 211.765 38.5022C211.762 36.4305 210.933 34.4443 209.457 32.9794C207.982 31.5145 205.982 30.6905 203.896 30.6882Z" fill="#AEE6FF"/>
<path d="M206.286 40.4207H205.387V41.65H204.265V40.4207H201.504V39.5716L204.47 35.353H205.387V39.5275H206.286V40.4207ZM204.265 39.5275V37.1306L202.59 39.5275H204.265Z" fill="#AEE6FF"/>
<path d="M257.927 17.2037C256.224 17.2037 254.559 16.7021 253.143 15.7625C251.727 14.8229 250.624 13.4874 249.972 11.9249C249.32 10.3624 249.15 8.64307 249.482 6.98434C249.814 5.3256 250.634 3.80196 251.838 2.60608C253.043 1.4102 254.577 0.595802 256.247 0.265866C257.918 -0.0640713 259.649 0.105274 261.222 0.752486C262.796 1.3997 264.141 2.49571 265.087 3.90192C266.033 5.30813 266.538 6.96139 266.538 8.65262C266.535 10.9197 265.627 13.0932 264.013 14.6963C262.399 16.2994 260.21 17.2011 257.927 17.2037ZM257.927 0.838582C256.371 0.8386 254.85 1.2969 253.556 2.15553C252.262 3.01416 251.253 4.23455 250.658 5.66238C250.062 7.09021 249.906 8.66135 250.21 10.1771C250.513 11.6929 251.263 13.0852 252.363 14.178C253.464 15.2708 254.866 16.015 256.392 16.3165C257.919 16.618 259.501 16.4633 260.938 15.8718C262.376 15.2804 263.605 14.2789 264.47 12.9939C265.334 11.7088 265.796 10.1981 265.796 8.65262C265.794 6.58091 264.964 4.59473 263.489 3.12982C262.013 1.66491 260.013 0.840903 257.927 0.838582Z" fill="#AEE6FF"/>
<path d="M259.209 7.99378C259.508 8.15737 259.752 8.40306 259.913 8.70129C260.084 9.0241 260.169 9.38462 260.162 9.74923C260.17 10.1324 260.071 10.5104 259.877 10.8416C259.683 11.161 259.398 11.4164 259.058 11.5756C258.671 11.7562 258.247 11.8455 257.82 11.8365C257.42 11.8361 257.022 11.7688 256.644 11.6375C256.294 11.5249 255.969 11.3429 255.691 11.1025L256.074 10.271C256.572 10.679 257.193 10.9095 257.838 10.9257C258.169 10.9482 258.497 10.8419 258.751 10.6293C258.956 10.3964 259.068 10.097 259.067 9.78742C259.065 9.47787 258.95 9.17961 258.742 8.94889C258.625 8.84182 258.489 8.7589 258.339 8.70499C258.19 8.65108 258.032 8.62725 257.873 8.63492C257.632 8.63336 257.393 8.67998 257.17 8.77203C256.95 8.86342 256.753 9.00062 256.591 9.17436H255.896V5.46875H259.868V6.35313H257.018V8.06881C257.355 7.84595 257.754 7.73171 258.158 7.74169C258.525 7.73404 258.887 7.8209 259.209 7.99378Z" fill="#AEE6FF"/>
<path d="M55.7548 192.039C55.5295 191.545 55.416 191.009 55.4221 190.467C55.4282 189.925 55.5539 189.392 55.7902 188.903C56.0265 188.415 56.3678 187.984 56.79 187.641C57.2121 187.298 57.7049 187.051 58.2336 186.917L59.3585 173.796L64.7686 178.035L62.871 189.845C63.038 190.742 62.8679 191.668 62.393 192.449C61.918 193.23 61.1712 193.81 60.2941 194.081C59.4169 194.351 58.4703 194.293 57.6337 193.916C56.7971 193.54 56.1285 192.872 55.7548 192.039Z" fill="#9A6A6A"/>
<path d="M59.2326 185.54C58.8433 185.489 58.4846 185.303 58.2196 185.016C57.9547 184.728 57.8005 184.356 57.7841 183.967L57.1577 169.076C56.9326 163.725 58.0295 158.399 60.3526 153.565L65.907 142.007C66.279 141.312 66.8128 140.715 67.4638 140.265C68.1148 139.816 68.8643 139.528 69.6501 139.424C70.4129 139.317 71.1903 139.395 71.9162 139.651C72.6421 139.907 73.295 140.333 73.8192 140.894C74.0851 141.176 74.324 141.482 74.5328 141.808C74.9518 142.483 75.1945 143.252 75.2387 144.044C75.2829 144.835 75.1273 145.626 74.7859 146.343L66.269 169.448L65.6138 184.5C65.6038 184.729 65.5466 184.952 65.4456 185.157C65.3446 185.362 65.202 185.544 65.0269 185.692C64.8517 185.84 64.6477 185.951 64.4276 186.016C64.2075 186.082 63.9761 186.102 63.7478 186.076L59.2547 185.543L59.2326 185.54Z" fill="#34BDFC"/>
<path d="M43.3008 250.599L47.4666 252.415L56.5017 237.322L50.3536 234.643L43.3008 250.599Z" fill="#9A6A6A"/>
<path d="M42.8343 248.785L51.0382 252.361C51.7247 252.66 52.3456 253.091 52.8645 253.629C53.3835 254.166 53.7908 254.8 54.0631 255.493C54.3355 256.187 54.4676 256.927 54.4519 257.672C54.4362 258.416 54.2729 259.15 53.9715 259.832L53.897 260.001L40.4648 254.146L42.8343 248.785Z" fill="#2F2E41"/>
<path d="M99.2234 255.621H103.773L105.937 238.195L99.2227 238.196L99.2234 255.621Z" fill="#9A6A6A"/>
<path d="M98.0664 254.147L107.026 254.146C107.776 254.146 108.518 254.293 109.211 254.578C109.904 254.863 110.533 255.281 111.064 255.807C111.594 256.334 112.014 256.959 112.301 257.647C112.588 258.335 112.736 259.072 112.736 259.816V260.001L98.0667 260.001L98.0664 254.147Z" fill="#2F2E41"/>
<path d="M53.4021 250.667C53.2271 250.667 53.0532 250.64 52.8868 250.586L45.1728 248.124C44.7562 247.989 44.4093 247.698 44.2064 247.312C44.0034 246.927 43.9605 246.477 44.0868 246.061L69.6676 165.168L88.8284 161.437L88.8958 161.546C101.563 182.015 105.792 213.284 108.474 246.416C108.507 246.848 108.369 247.276 108.089 247.61C107.809 247.943 107.41 248.154 106.975 248.2L98.5418 249.037C98.1483 249.078 97.753 248.978 97.4271 248.756C97.1011 248.533 96.8661 248.202 96.7642 247.822L81.3228 193.575C81.2925 193.464 81.2283 193.366 81.1391 193.293C81.0499 193.22 80.9401 193.177 80.8249 193.169C80.7098 193.161 80.5949 193.188 80.4963 193.248C80.3977 193.307 80.3201 193.396 80.2744 193.501L54.9312 249.664C54.8032 249.962 54.59 250.216 54.3182 250.394C54.0464 250.572 53.7278 250.667 53.4021 250.667Z" fill="#2F2E41"/>
<path d="M79.5673 132.776C84.6009 132.776 88.6815 128.723 88.6815 123.725C88.6815 118.726 84.6009 114.674 79.5673 114.674C74.5337 114.674 70.4531 118.726 70.4531 123.725C70.4531 128.723 74.5337 132.776 79.5673 132.776Z" fill="#9A6A6A"/>
<path d="M68.0366 167.563L67.9741 167.434C67.9317 167.345 63.7326 158.499 64.1233 148.295C64.2527 144.946 65.666 141.773 68.074 139.424C70.482 137.076 73.7028 135.73 77.0772 135.662C80.1871 135.601 83.2187 136.633 85.6381 138.574C88.0575 140.515 89.7095 143.242 90.3031 146.274C91.4733 152.207 91.4441 157.826 90.216 162.974L90.1887 163.089L90.0724 163.113L68.0366 167.563Z" fill="#34BDFC"/>
<path d="M114.506 180.331C113.966 180.252 113.451 180.056 112.996 179.758C112.54 179.459 112.157 179.065 111.871 178.603C111.586 178.142 111.406 177.623 111.344 177.085C111.282 176.547 111.34 176.002 111.513 175.488L101.016 167.443L107.534 165.222L116.503 173.202C117.353 173.549 118.045 174.192 118.449 175.012C118.852 175.831 118.939 176.769 118.693 177.648C118.447 178.526 117.885 179.285 117.113 179.779C116.341 180.274 115.414 180.47 114.506 180.331Z" fill="#9A6A6A"/>
<path d="M88.7446 162.594L88.7204 162.555L77.6534 144.757C77.2665 144.07 77.0503 143.301 77.0226 142.514C76.9949 141.728 77.1566 140.946 77.4942 140.234C77.8169 139.539 78.3039 138.932 78.9138 138.465C79.5236 137.997 80.2383 137.683 80.9967 137.549C81.3795 137.48 81.7679 137.446 82.1569 137.449C82.9554 137.465 83.7372 137.678 84.4315 138.07C85.1258 138.462 85.7104 139.02 86.1325 139.693L101.079 159.317L113.466 168.017C113.654 168.148 113.812 168.317 113.931 168.513C114.05 168.708 114.127 168.926 114.157 169.152C114.187 169.378 114.17 169.608 114.107 169.828C114.043 170.047 113.935 170.251 113.788 170.427L110.905 173.89C110.653 174.195 110.299 174.4 109.908 174.468C109.517 174.537 109.114 174.464 108.773 174.263L88.7446 162.594Z" fill="#34BDFC"/>
<path d="M77.9399 123.163C78.6116 122.065 80.094 121.755 81.381 121.881C82.668 122.006 83.9196 122.455 85.2127 122.445C88.8034 122.417 91.575 118.072 90.0654 114.836C88.8274 112.183 85.7353 111.018 82.9382 110.103C77.0735 108.186 70.3368 106.344 65.0149 109.453C63.319 110.473 61.9281 111.924 60.9857 113.656C60.0434 115.388 59.5839 117.339 59.6547 119.307C59.7744 121.753 60.7179 124.266 59.92 126.584C58.9994 129.258 56.0805 130.693 53.322 131.387C48.4866 132.603 43.3883 132.407 38.5226 133.498C33.6569 134.589 28.6709 137.487 27.3593 142.266C26.4978 145.405 27.3967 148.785 28.8854 151.683C30.4043 154.64 32.5151 157.258 35.0885 159.377C37.6619 161.496 40.6438 163.071 43.8515 164.005C47.0592 164.939 50.4252 165.213 53.7433 164.811C57.0615 164.408 60.2619 163.337 63.1487 161.663C69.031 158.252 73.2778 152.487 75.8096 146.208C77.2452 142.545 78.2558 138.731 78.8219 134.841C79.3889 131.199 78.9078 127.519 77.8807 123.978C77.8322 123.845 77.8123 123.704 77.8225 123.564C77.8327 123.423 77.8727 123.287 77.9399 123.163Z" fill="#2F2E41"/>
<path d="M142.516 260.134H1.1328C1.03438 260.134 0.939998 260.096 0.870406 260.027C0.800815 259.957 0.761719 259.864 0.761719 259.766C0.761719 259.668 0.800815 259.575 0.870406 259.505C0.939998 259.436 1.03438 259.397 1.1328 259.397H142.516C142.614 259.397 142.708 259.436 142.778 259.505C142.848 259.575 142.887 259.668 142.887 259.766C142.887 259.864 142.848 259.957 142.778 260.027C142.708 260.096 142.614 260.134 142.516 260.134Z" fill="#173B61"/>
<g clip-path="url(#clip1_2020_549)">
<path d="M253.477 197.548C253.477 197.724 253.618 197.865 253.793 197.865H311.881C312.056 197.865 312.198 197.724 312.198 197.548C312.198 197.372 312.056 197.231 311.881 197.231H253.793C253.618 197.231 253.477 197.372 253.477 197.548Z" fill="#AEE6FF"/>
<path d="M264.005 197.865H217.057C211.333 197.865 206.676 193.208 206.676 187.483V86.5906C206.676 80.8662 211.333 76.209 217.057 76.209H264.005C269.729 76.209 274.386 80.8662 274.386 86.5906V187.483C274.386 193.208 269.729 197.865 264.005 197.865Z" fill="#173B61"/>
<path d="M274.388 113.321C274.146 113.321 273.949 113.518 273.949 113.76V127.814C273.949 128.056 274.146 128.253 274.388 128.253C274.631 128.253 274.828 128.056 274.828 127.814V113.76C274.828 113.518 274.631 113.321 274.388 113.321Z" fill="#173B61"/>
<path d="M273.398 86.5911V187.482C273.398 192.465 269.52 196.54 264.616 196.857H264.614C264.542 196.861 264.469 196.865 264.395 196.868C264.265 196.874 264.135 196.876 264.004 196.876C264.004 196.876 263.521 196.841 262.638 196.775C261.746 196.709 260.448 196.611 258.83 196.481C258.345 196.444 257.833 196.402 257.293 196.358C256.217 196.27 255.035 196.174 253.768 196.064C253.263 196.022 252.741 195.976 252.207 195.93C249.48 195.695 246.425 195.42 243.204 195.109C242.659 195.058 242.11 195.005 241.557 194.95C241.412 194.935 241.265 194.922 241.117 194.907C238.82 194.68 207.664 188.659 207.664 187.482V86.5911C207.664 81.402 211.869 77.1968 217.058 77.1968H222.667C223.563 77.1968 224.283 77.8951 224.36 78.7888C224.366 78.8481 224.373 78.9074 224.384 78.9667C224.547 79.8649 225.37 80.4907 226.284 80.4907H254.778C255.692 80.4907 256.515 79.8649 256.678 78.9667C256.689 78.9074 256.695 78.8481 256.702 78.7888C256.779 77.8951 257.499 77.1968 258.395 77.1968H264.004C269.193 77.1968 273.398 81.402 273.398 86.5911Z" fill="white"/>
<path d="M206.459 102.78C206.217 102.78 206.02 102.977 206.02 103.219V106.733C206.02 106.975 206.217 107.172 206.459 107.172C206.701 107.172 206.898 106.975 206.898 106.733V103.219C206.898 102.977 206.701 102.78 206.459 102.78Z" fill="#173B61"/>
<path d="M206.459 113.321C206.217 113.321 206.02 113.518 206.02 113.76V120.567C206.02 120.81 206.217 121.007 206.459 121.007C206.701 121.007 206.898 120.81 206.898 120.567V113.76C206.898 113.518 206.701 113.321 206.459 113.321Z" fill="#173B61"/>
<path d="M206.459 122.983C206.217 122.983 206.02 123.18 206.02 123.422V130.23C206.02 130.472 206.217 130.669 206.459 130.669C206.701 130.669 206.898 130.472 206.898 130.23V123.422C206.898 123.18 206.701 122.983 206.459 122.983Z" fill="#173B61"/>
<path d="M222.517 78.7344H214.118C214.072 78.7344 214.035 78.7713 214.035 78.8169V79.7498C214.035 79.7954 214.072 79.8324 214.118 79.8324H222.517C222.562 79.8324 222.599 79.7954 222.599 79.7498V78.8169C222.599 78.7713 222.562 78.7344 222.517 78.7344Z" fill="#055987"/>
<path d="M259.785 79.8324C260.27 79.8324 260.663 79.4392 260.663 78.9541C260.663 78.4689 260.27 78.0757 259.785 78.0757C259.3 78.0757 258.906 78.4689 258.906 78.9541C258.906 79.4392 259.3 79.8324 259.785 79.8324Z" fill="#055987"/>
<path d="M262.203 79.8324C262.688 79.8324 263.081 79.4392 263.081 78.9541C263.081 78.4689 262.688 78.0757 262.203 78.0757C261.717 78.0757 261.324 78.4689 261.324 78.9541C261.324 79.4392 261.717 79.8324 262.203 79.8324Z" fill="#055987"/>
<path d="M264.617 79.8324C265.102 79.8324 265.495 79.4392 265.495 78.9541C265.495 78.4689 265.102 78.0757 264.617 78.0757C264.132 78.0757 263.738 78.4689 263.738 78.9541C263.738 79.4392 264.132 79.8324 264.617 79.8324Z" fill="#055987"/>
<path opacity="0.4" d="M250.967 145.447C252.73 145.447 254.16 144.017 254.16 142.253C254.16 140.49 252.73 139.06 250.967 139.06C249.203 139.06 247.773 140.49 247.773 142.253C247.773 144.017 249.203 145.447 250.967 145.447Z" fill="#0AA6ED"/>
<path d="M258.94 177.78H221.686C221.099 177.78 220.621 177.303 220.621 176.716C220.621 176.129 221.099 175.651 221.686 175.651H258.94C259.527 175.651 260.004 176.129 260.004 176.716C260.004 177.303 259.527 177.78 258.94 177.78Z" fill="#055987"/>
<path d="M263.834 93.2905H217.011C214.219 93.2905 211.949 95.5604 211.949 98.3518V124.153C211.949 126.945 214.219 129.214 217.011 129.214H263.834C266.625 129.214 268.895 126.945 268.895 124.153V98.3518C268.895 95.5604 266.625 93.2905 263.834 93.2905ZM268.363 124.153C268.363 126.652 266.333 128.682 263.834 128.682H217.011C214.512 128.682 212.481 126.652 212.481 124.153V98.3518C212.481 95.8531 214.512 93.8227 217.011 93.8227H263.834C266.333 93.8227 268.363 95.8531 268.363 98.3518V124.153Z" fill="#055987"/>
<path d="M225.385 154.623L223.195 153.585C224.094 154.839 224.868 156.796 225.282 158.354C225.984 156.903 227.115 155.128 228.234 154.067L225.919 154.662C227.346 147.672 232.71 142.654 238.853 142.654V142.122C232.437 142.122 226.842 147.35 225.385 154.623Z" fill="#173B61"/>
<path d="M235.464 165.273H221.627C221.04 165.273 220.562 164.795 220.562 164.208C220.562 163.622 221.04 163.144 221.627 163.144H235.464C236.051 163.144 236.529 163.622 236.529 164.208C236.529 164.795 236.051 165.273 235.464 165.273Z" fill="#0AA6ED"/>
<path d="M247.24 145.447C249.004 145.447 250.433 144.017 250.433 142.253C250.433 140.49 249.004 139.06 247.24 139.06C245.477 139.06 244.047 140.49 244.047 142.253C244.047 144.017 245.477 145.447 247.24 145.447Z" fill="white"/>
<path opacity="0.7" d="M247.24 145.447C249.004 145.447 250.433 144.017 250.433 142.253C250.433 140.49 249.004 139.06 247.24 139.06C245.477 139.06 244.047 140.49 244.047 142.253C244.047 144.017 245.477 145.447 247.24 145.447Z" fill="#0AA6ED"/>
<path d="M229.974 109.523C231.738 109.523 233.168 108.093 233.168 106.329C233.168 104.566 231.738 103.136 229.974 103.136C228.211 103.136 226.781 104.566 226.781 106.329C226.781 108.093 228.211 109.523 229.974 109.523Z" fill="#AEE6FF"/>
<path opacity="0.7" d="M240.424 109.523C242.187 109.523 243.617 108.093 243.617 106.329C243.617 104.566 242.187 103.136 240.424 103.136C238.66 103.136 237.23 104.566 237.23 106.329C237.23 108.093 238.66 109.523 240.424 109.523Z" fill="#AEE6FF"/>
<path opacity="0.4" d="M250.873 109.523C252.637 109.523 254.066 108.093 254.066 106.329C254.066 104.566 252.637 103.136 250.873 103.136C249.109 103.136 247.68 104.566 247.68 106.329C247.68 108.093 249.109 109.523 250.873 109.523Z" fill="#AEE6FF"/>
<path d="M229.974 119.368C231.738 119.368 233.168 117.939 233.168 116.175C233.168 114.412 231.738 112.982 229.974 112.982C228.211 112.982 226.781 114.412 226.781 116.175C226.781 117.939 228.211 119.368 229.974 119.368Z" fill="#173B61"/>
<path opacity="0.7" d="M240.424 119.368C242.187 119.368 243.617 117.939 243.617 116.175C243.617 114.412 242.187 112.982 240.424 112.982C238.66 112.982 237.23 114.412 237.23 116.175C237.23 117.939 238.66 119.368 240.424 119.368Z" fill="#173B61"/>
<path opacity="0.4" d="M250.873 119.368C252.637 119.368 254.066 117.939 254.066 116.175C254.066 114.412 252.637 112.982 250.873 112.982C249.109 112.982 247.68 114.412 247.68 116.175C247.68 117.939 249.109 119.368 250.873 119.368Z" fill="#173B61"/>
<path d="M244.049 145.447C245.812 145.447 247.242 144.017 247.242 142.253C247.242 140.49 245.812 139.06 244.049 139.06C242.285 139.06 240.855 140.49 240.855 142.253C240.855 144.017 242.285 145.447 244.049 145.447Z" fill="#0AA6ED"/>
<path d="M289.897 126.39H282.593L282.215 120.004C282.215 115.987 285.85 116.186 289.867 116.186H289.897V126.39Z" fill="#2F2E41"/>
<path d="M285.837 122.745C287.722 122.745 289.251 121.217 289.251 119.331C289.251 117.445 287.722 115.916 285.837 115.916C283.951 115.916 282.422 117.445 282.422 119.331C282.422 121.217 283.951 122.745 285.837 122.745Z" fill="#A0616A"/>
<path d="M270.755 124.822C270.853 125.274 270.841 125.71 270.742 126.07L271.95 130.315L269.913 130.831L268.907 126.47C268.667 126.183 268.475 125.791 268.377 125.34C268.152 124.308 268.502 123.355 269.159 123.212C269.816 123.07 270.53 123.79 270.755 124.822Z" fill="#A0616A"/>
<path d="M285.857 193.416L284.221 193.455L283.309 186.103L285.724 186.045L285.857 193.416Z" fill="#A0616A"/>
<path d="M280.242 196.83C280.242 197.107 280.438 197.331 280.68 197.331H283.929C283.929 197.331 284.248 196.046 285.552 195.493L285.641 197.331H287.317L287.114 194.375C287.114 194.375 287.562 192.794 286.631 191.986C285.701 191.178 286.455 191.291 286.455 191.291L286.088 189.461L283.556 189.759L283.538 192.63L282.309 195.48L280.506 196.371C280.346 196.45 280.242 196.631 280.242 196.83Z" fill="#2F2E41"/>
<path d="M279.873 193.245L278.236 193.284L277.324 185.932L279.739 185.875L279.873 193.245Z" fill="#A0616A"/>
<path d="M274.258 196.659C274.258 196.936 274.454 197.16 274.696 197.16H277.944C277.944 197.16 278.264 195.875 279.567 195.322L279.657 197.16H281.333L281.13 194.205C281.13 194.205 281.578 192.623 280.647 191.815C279.716 191.007 280.47 191.12 280.47 191.12L280.104 189.291L277.572 189.588L277.553 192.46L276.324 195.309L274.522 196.2C274.362 196.279 274.258 196.46 274.258 196.659Z" fill="#2F2E41"/>
<path d="M281.028 141.313L279.793 142.441L276.849 146.576L273.52 169.561L276.742 187.831H280.328L279.91 168.756L282.649 162.365L282.429 187.831H286.631L290.903 155.548C291.365 151.673 290.493 147.748 288.394 144.457C288.343 144.376 288.29 144.294 288.236 144.211C288.183 144.129 288.129 144.049 288.073 143.97C284.905 139.487 281.028 141.313 281.028 141.313Z" fill="#2F2E41"/>
<path d="M288.073 124.396L283.347 124.074L282.595 125.363L279.158 125.685L278.728 132.989C278.728 132.989 277.224 135.244 278.298 137.715L278.954 141.705L276.559 147.293L286.795 144.339L288.073 143.971L289.791 138.681C289.791 138.681 291.939 136.612 290.865 133.619L290.65 127.081L288.825 125.9L288.073 124.396Z" fill="#0AA6ED"/>
<path d="M284.679 124.593C284.679 124.593 286.434 127.909 281.508 131.184L274.175 137.77C273.771 138.132 273.217 138.28 272.687 138.165C272.063 138.031 271.568 137.559 271.405 136.943L269.125 128.335L271.219 127.533L273.966 132.606L279.141 125.436L284.679 124.593Z" fill="#0AA6ED"/>
<path d="M289.514 152.378C289.532 151.916 289.652 151.496 289.839 151.172L289.73 146.761L291.831 146.77L291.715 151.244C291.876 151.582 291.964 152.009 291.946 152.471C291.905 153.527 291.328 154.361 290.656 154.335C289.985 154.309 289.473 153.433 289.514 152.378Z" fill="#A0616A"/>
<path d="M288.992 126.644C288.992 126.644 292.324 126.389 292.481 128.157C292.569 129.155 293.174 138.236 293.075 143.795C292.999 148.082 291.812 150.169 291.812 150.169L289.668 150.096L288.992 126.644Z" fill="#0AA6ED"/>
<path d="M281.903 119.134L282.03 119.132C282.194 118.598 282.046 119.082 282.415 119.208L282.952 118.853L284.69 118.841C285.128 118.838 285.555 118.953 285.943 119.155C286.115 119.244 286.272 119.292 286.372 119.19L286.968 118.587C286.968 118.587 286.05 126.958 285.82 127.562L286.518 127.474C286.518 127.474 286.732 125.955 286.846 125.942C286.876 125.938 286.915 126.023 286.956 126.154C287.154 126.791 287.453 128.021 287.806 127.455C287.997 127.147 288.215 127.134 288.416 127.513C288.879 128.387 290.249 127.284 290.828 126.483C290.832 126.478 290.835 126.476 290.837 126.476C290.851 126.479 290.866 126.509 290.881 126.555C291.008 126.961 291.384 127.236 291.808 127.2C291.914 127.191 293.128 128.253 291.995 127.191C291.303 126.543 292.107 125.471 291.196 123.732C290.662 122.711 291.743 121.248 291.732 120.048C291.718 118.486 291.378 117.059 290.5 116.235C289.583 115.375 288.835 115.416 287.384 115.236C285.313 113.685 282.97 114.978 281.924 117.482C281.689 118.043 281.989 118.443 281.903 119.134Z" fill="#2F2E41"/>
</g>
</g>
<defs>
<clipPath id="clip0_2020_549">
<rect width="293.473" height="260.032" fill="white" transform="translate(0.761719 0.102051)"/>
</clipPath>
<clipPath id="clip1_2020_549">
<rect width="106.481" height="121.656" fill="white" transform="translate(206.02 76.209)"/>
</clipPath>
</defs>
</svg>
