<svg xmlns="http://www.w3.org/2000/svg" xmlns:xlink="http://www.w3.org/1999/xlink" width="500" zoomAndPan="magnify" viewBox="0 0 375 374.999991" height="500" preserveAspectRatio="xMidYMid meet" version="1.0"><defs><clipPath id="99eaf6d3d4"><path d="M 113 196 L 175 196 L 175 226.839844 L 113 226.839844 Z M 113 196 " clip-rule="nonzero"/></clipPath></defs><g clip-path="url(#99eaf6d3d4)"><path fill="#00618a" d="M 113.054688 220.035156 L 117.957031 220.035156 L 117.957031 200.6875 L 125.550781 217.5625 C 126.449219 219.597656 127.675781 220.328125 130.082031 220.328125 C 132.484375 220.328125 133.664062 219.605469 134.5625 217.5625 L 142.15625 200.6875 L 142.15625 220.042969 L 147.0625 220.042969 L 147.0625 200.71875 C 147.0625 198.835938 146.304688 197.921875 144.75 197.453125 C 141.023438 196.289062 138.523438 197.296875 137.390625 199.808594 L 129.941406 216.460938 L 122.722656 199.800781 C 121.636719 197.289062 119.089844 196.28125 115.367188 197.445312 C 113.808594 197.917969 113.054688 198.828125 113.054688 200.710938 Z M 151.140625 204.28125 L 156.042969 204.28125 L 156.042969 214.945312 C 155.996094 215.527344 156.230469 216.886719 158.914062 216.929688 C 160.285156 216.949219 169.496094 216.929688 169.582031 216.929688 L 169.582031 204.230469 L 174.496094 204.230469 C 174.519531 204.230469 174.492188 221.542969 174.492188 221.617188 C 174.519531 225.886719 169.191406 226.816406 166.734375 226.886719 L 151.246094 226.886719 L 151.246094 223.589844 L 166.761719 223.589844 C 169.917969 223.253906 169.546875 221.6875 169.546875 221.160156 L 169.546875 219.875 L 159.121094 219.875 C 154.269531 219.832031 151.183594 217.714844 151.144531 215.28125 C 151.140625 215.0625 151.246094 204.386719 151.140625 204.28125 Z M 151.140625 204.28125 " fill-opacity="1" fill-rule="nonzero"/></g><path fill="#e48e00" d="M 178.277344 220.035156 L 192.382812 220.035156 C 194.03125 220.035156 195.636719 219.691406 196.910156 219.09375 C 199.035156 218.121094 200.070312 216.800781 200.070312 215.070312 L 200.070312 211.492188 C 200.070312 210.074219 198.890625 208.757812 196.582031 207.875 C 195.355469 207.40625 193.84375 207.152344 192.382812 207.152344 L 186.441406 207.152344 C 184.460938 207.152344 183.515625 206.558594 183.28125 205.238281 C 183.234375 205.082031 183.234375 204.945312 183.234375 204.796875 L 183.234375 202.566406 C 183.234375 202.441406 183.234375 202.316406 183.28125 202.15625 C 183.515625 201.152344 184.035156 200.871094 185.78125 200.707031 C 185.921875 200.707031 186.109375 200.671875 186.253906 200.671875 L 200.261719 200.671875 L 200.261719 197.40625 L 186.488281 197.40625 C 184.507812 197.40625 183.46875 197.53125 182.527344 197.816406 C 179.597656 198.726562 178.324219 200.179688 178.324219 202.691406 L 178.324219 205.550781 C 178.324219 207.753906 180.824219 209.636719 185.019531 210.078125 C 185.492188 210.109375 185.964844 210.140625 186.4375 210.140625 L 191.53125 210.140625 C 191.71875 210.140625 191.90625 210.140625 192.050781 210.171875 C 193.605469 210.296875 194.265625 210.578125 194.738281 211.144531 C 195.027344 211.433594 195.117188 211.710938 195.117188 212.015625 L 195.117188 214.875 C 195.117188 215.222656 194.878906 215.660156 194.40625 216.039062 C 193.984375 216.414062 193.277344 216.667969 192.332031 216.730469 C 192.144531 216.730469 192.003906 216.761719 191.8125 216.761719 L 178.277344 216.761719 Z M 230.671875 214.351562 C 230.671875 217.710938 233.167969 219.597656 238.214844 219.972656 C 238.6875 220.011719 239.160156 220.03125 239.632812 220.035156 L 252.414062 220.035156 L 252.414062 216.769531 L 239.535156 216.769531 C 236.660156 216.769531 235.574219 216.046875 235.574219 214.316406 L 235.574219 197.414062 L 230.667969 197.414062 L 230.667969 214.347656 Z M 203.199219 214.519531 L 203.199219 202.871094 C 203.199219 199.910156 205.277344 198.117188 209.390625 197.550781 C 209.832031 197.488281 210.273438 197.457031 210.714844 197.453125 L 220.027344 197.453125 C 220.484375 197.457031 220.941406 197.488281 221.398438 197.550781 C 225.507812 198.117188 227.589844 199.910156 227.589844 202.871094 L 227.589844 214.519531 C 227.589844 216.921875 226.707031 218.207031 224.667969 219.042969 L 229.5 223.402344 L 223.804688 223.402344 L 219.898438 219.875 L 215.960938 220.125 L 210.714844 220.125 C 209.816406 220.125 208.871094 220 207.832031 219.714844 C 204.707031 218.867188 203.199219 217.226562 203.199219 214.519531 Z M 208.496094 214.230469 C 208.496094 214.386719 208.542969 214.542969 208.589844 214.734375 C 208.878906 216.085938 210.148438 216.84375 212.078125 216.84375 L 216.535156 216.84375 L 212.441406 213.152344 L 218.136719 213.152344 L 221.699219 216.371094 C 222.359375 216.019531 222.789062 215.484375 222.9375 214.796875 C 222.984375 214.640625 222.984375 214.480469 222.984375 214.324219 L 222.984375 203.15625 C 222.984375 203.027344 222.984375 202.863281 222.9375 202.714844 C 222.644531 201.453125 221.375 200.730469 219.484375 200.730469 L 212.09375 200.730469 C 209.910156 200.730469 208.5 201.675781 208.5 203.15625 L 208.5 214.238281 Z M 208.496094 214.230469 " fill-opacity="1" fill-rule="nonzero"/><path fill="#00618a" d="M 256.726562 191.992188 C 253.710938 191.910156 251.40625 192.191406 249.4375 193.019531 C 248.878906 193.257812 247.988281 193.261719 247.894531 193.960938 C 248.203125 194.285156 248.25 194.765625 248.496094 195.160156 C 248.964844 195.921875 249.761719 196.941406 250.46875 197.472656 C 251.242188 198.058594 252.039062 198.683594 252.867188 199.1875 C 254.34375 200.089844 255.992188 200.601562 257.414062 201.503906 C 258.25 202.03125 259.082031 202.699219 259.898438 203.300781 C 260.300781 203.597656 260.574219 204.058594 261.097656 204.242188 L 261.097656 204.15625 C 260.824219 203.804688 260.753906 203.324219 260.5 202.957031 L 259.382812 201.84375 C 258.292969 200.390625 256.910156 199.128906 255.441406 198.074219 C 254.269531 197.234375 251.640625 196.097656 251.152344 194.734375 L 251.066406 194.648438 C 251.898438 194.550781 252.871094 194.253906 253.640625 194.046875 C 254.929688 193.703125 256.082031 193.792969 257.414062 193.449219 L 259.214844 192.933594 L 259.214844 192.589844 C 258.542969 191.902344 258.0625 190.988281 257.328125 190.363281 C 255.410156 188.730469 253.3125 187.097656 251.15625 185.734375 C 249.960938 184.980469 248.480469 184.492188 247.210938 183.851562 C 246.785156 183.636719 246.035156 183.523438 245.753906 183.164062 C 245.089844 182.316406 244.726562 181.238281 244.210938 180.257812 C 243.136719 178.1875 242.078125 175.925781 241.125 173.746094 C 240.472656 172.261719 240.046875 170.796875 239.238281 169.464844 C 235.34375 163.066406 231.15625 159.207031 224.664062 155.414062 C 223.28125 154.605469 221.621094 154.289062 219.863281 153.871094 L 217.03125 153.699219 C 216.457031 153.460938 215.855469 152.753906 215.316406 152.414062 C 213.164062 151.054688 207.648438 148.105469 206.058594 151.976562 C 205.050781 154.429688 207.558594 156.820312 208.457031 158.0625 C 209.085938 158.933594 209.894531 159.910156 210.34375 160.890625 C 210.640625 161.53125 210.691406 162.179688 210.945312 162.859375 C 211.566406 164.53125 212.109375 166.363281 212.914062 167.914062 C 213.324219 168.699219 213.773438 169.527344 214.289062 170.226562 C 214.605469 170.660156 215.144531 170.847656 215.230469 171.515625 C 214.703125 172.253906 214.671875 173.402344 214.371094 174.339844 C 213.03125 178.5625 213.539062 183.8125 215.488281 186.9375 C 216.085938 187.894531 217.492188 189.953125 219.429688 189.164062 C 221.125 188.472656 220.738281 186.335938 221.230469 184.453125 C 221.339844 184.023438 221.273438 183.710938 221.488281 183.421875 L 221.488281 183.507812 L 223.03125 186.59375 C 224.175781 188.429688 226.203125 190.351562 227.917969 191.648438 C 228.808594 192.320312 229.519531 193.484375 230.664062 193.878906 L 230.664062 193.792969 L 230.578125 193.792969 C 230.355469 193.441406 230.003906 193.300781 229.71875 193.019531 C 229.050781 192.363281 228.300781 191.546875 227.746094 190.792969 C 226.183594 188.675781 224.804688 186.355469 223.546875 183.941406 C 222.945312 182.785156 222.421875 181.515625 221.917969 180.339844 C 221.722656 179.890625 221.726562 179.207031 221.320312 178.96875 C 220.765625 179.832031 219.945312 180.523438 219.519531 181.539062 C 218.832031 183.164062 218.742188 185.144531 218.488281 187.195312 C 218.339844 187.25 218.40625 187.210938 218.316406 187.28125 C 217.125 186.992188 216.703125 185.765625 216.261719 184.710938 C 215.136719 182.042969 214.929688 177.753906 215.917969 174.6875 C 216.171875 173.894531 217.328125 171.394531 216.859375 170.660156 C 216.636719 169.929688 215.898438 169.496094 215.488281 168.945312 C 214.980469 168.253906 214.46875 167.34375 214.117188 166.546875 C 213.195312 164.46875 212.769531 162.136719 211.800781 160.035156 C 211.339844 159.03125 210.558594 158.015625 209.914062 157.128906 C 209.203125 156.140625 208.410156 155.414062 207.859375 154.222656 C 207.660156 153.796875 207.394531 153.121094 207.6875 152.679688 C 207.75 152.402344 207.917969 152.230469 208.199219 152.167969 C 208.699219 151.785156 210.085938 152.292969 210.601562 152.511719 C 211.976562 153.082031 213.125 153.625 214.289062 154.394531 C 214.847656 154.757812 215.414062 155.480469 216.089844 155.679688 L 216.859375 155.679688 C 218.066406 155.957031 219.417969 155.769531 220.546875 156.109375 C 222.539062 156.714844 224.324219 157.65625 225.949219 158.679688 C 230.890625 161.796875 234.929688 166.238281 237.695312 171.539062 C 238.140625 172.390625 238.332031 173.207031 238.722656 174.109375 C 239.511719 175.925781 240.507812 177.808594 241.292969 179.589844 C 242.078125 181.371094 242.84375 183.164062 243.953125 184.644531 C 244.535156 185.421875 246.789062 185.84375 247.8125 186.273438 C 248.527344 186.578125 249.703125 186.894531 250.382812 187.300781 C 251.679688 188.085938 252.9375 189.015625 254.15625 189.875 C 254.765625 190.300781 256.636719 191.242188 256.730469 192.015625 Z M 256.726562 191.992188 " fill-opacity="1" fill-rule="nonzero"/><path fill="#00618a" d="M 218.40625 159.351562 C 217.777344 159.339844 217.332031 159.417969 216.863281 159.519531 L 216.863281 159.605469 L 216.949219 159.605469 C 217.246094 160.222656 217.777344 160.617188 218.148438 161.148438 L 219.003906 162.949219 L 219.089844 162.863281 C 219.621094 162.488281 219.867188 161.890625 219.863281 160.976562 C 219.648438 160.753906 219.617188 160.472656 219.433594 160.207031 C 219.1875 159.851562 218.707031 159.648438 218.402344 159.347656 Z M 218.40625 159.351562 " fill-opacity="1" fill-rule="evenodd"/><path fill="#e48e00" d="M 254.71875 216.675781 C 254.71875 218.832031 256.425781 220.289062 258.335938 220.289062 C 260.242188 220.289062 261.949219 218.832031 261.949219 216.675781 C 261.949219 214.519531 260.242188 213.0625 258.335938 213.0625 C 256.425781 213.0625 254.71875 214.519531 254.71875 216.675781 Z M 261.140625 216.675781 C 261.140625 218.3125 259.886719 219.535156 258.332031 219.535156 C 256.761719 219.535156 255.527344 218.3125 255.527344 216.675781 C 255.527344 215.039062 256.761719 213.816406 258.332031 213.816406 C 259.886719 213.816406 261.140625 215.039062 261.140625 216.675781 Z M 259.308594 218.738281 L 260.117188 218.738281 L 258.929688 216.925781 C 259.566406 216.859375 260.050781 216.550781 260.050781 215.800781 C 260.050781 214.960938 259.519531 214.617188 258.496094 214.617188 L 256.886719 214.617188 L 256.886719 218.738281 L 257.582031 218.738281 L 257.582031 216.957031 L 258.226562 216.957031 Z M 257.582031 216.375 L 257.582031 215.191406 L 258.382812 215.191406 C 258.796875 215.191406 259.296875 215.269531 259.296875 215.75 C 259.296875 216.328125 258.84375 216.378906 258.324219 216.378906 L 257.582031 216.378906 Z M 257.582031 216.375 " fill-opacity="1" fill-rule="evenodd"/></svg>