<svg xmlns="http://www.w3.org/2000/svg" xmlns:xlink="http://www.w3.org/1999/xlink" width="500" zoomAndPan="magnify" viewBox="0 0 375 374.999991" height="500" preserveAspectRatio="xMidYMid meet" version="1.0"><defs><clipPath id="39d687c767"><path d="M 116 112.5 L 259.59375 112.5 L 259.59375 262 L 116 262 Z M 116 112.5 " clip-rule="nonzero"/></clipPath></defs><path fill="#000000" d="M 249.6875 204.960938 C 249.6875 204.96875 249.683594 204.972656 249.675781 204.972656 C 249.667969 204.972656 249.664062 204.96875 249.664062 204.960938 C 249.664062 204.953125 249.667969 204.949219 249.675781 204.949219 C 249.683594 204.949219 249.6875 204.953125 249.6875 204.960938 Z M 249.6875 204.960938 " fill-opacity="1" fill-rule="nonzero"/><path fill="#32648d" d="M 231.292969 203.78125 L 231.304688 203.796875 L 231.304688 203.800781 L 231.285156 203.808594 C 230.386719 204.136719 229.640625 204.273438 229.015625 204.550781 C 228.375 204.804688 227.859375 205.269531 227.558594 205.867188 L 227.550781 205.878906 C 227.164062 206.589844 226.832031 207.855469 226.929688 210.007812 C 227.183594 210.191406 227.496094 210.335938 227.8125 210.433594 L 227.835938 210.441406 C 228.886719 210.761719 230.640625 210.972656 232.601562 210.941406 C 236.511719 210.898438 241.328125 209.976562 243.886719 208.773438 C 246.089844 207.726562 247.976562 206.460938 249.65625 204.960938 C 241.117188 206.746094 236.296875 206.269531 233.335938 205.035156 C 232.566406 204.699219 231.890625 204.285156 231.292969 203.78125 Z M 231.292969 203.78125 " fill-opacity="1" fill-rule="nonzero"/><path fill="#32648d" d="M 222.535156 138.230469 L 222.574219 138.285156 L 222.617188 138.335938 Z M 222.535156 138.230469 " fill-opacity="1" fill-rule="nonzero"/><path fill="#32648d" d="M 189.871094 232.121094 C 189.867188 231.96875 189.871094 231.804688 189.867188 231.652344 C 189.867188 231.589844 189.859375 231.546875 189.859375 231.484375 Z M 189.871094 232.121094 " fill-opacity="1" fill-rule="nonzero"/><path fill="#32648d" d="M 183.324219 204.769531 C 182.964844 204.589844 182.542969 204.457031 182.089844 204.398438 L 182.070312 204.398438 L 182.070312 204.382812 L 181.941406 204.382812 C 181.617188 204.414062 181.144531 204.527344 180.226562 205.550781 C 178.089844 207.96875 177.347656 209.484375 175.585938 210.90625 C 173.820312 212.316406 171.539062 213.074219 166.96875 214.023438 C 165.523438 214.320312 164.691406 214.648438 164.144531 214.914062 C 164.324219 215.0625 164.308594 215.101562 164.574219 215.242188 C 165.246094 215.617188 166.101562 215.945312 166.796875 216.125 C 168.757812 216.621094 171.984375 217.195312 175.347656 216.621094 C 178.710938 216.039062 182.210938 214.40625 185.199219 210.171875 C 185.714844 209.441406 185.769531 208.363281 185.347656 207.203125 C 184.925781 206.046875 183.980469 205.046875 183.324219 204.769531 Z M 183.324219 204.769531 " fill-opacity="1" fill-rule="nonzero"/><path fill="#32648d" d="M 208.386719 121.808594 L 208.03125 121.878906 C 208.148438 121.851562 208.28125 121.839844 208.398438 121.816406 C 208.390625 121.816406 208.390625 121.808594 208.386719 121.808594 Z M 208.386719 121.808594 " fill-opacity="1" fill-rule="nonzero"/><path fill="#32648d" d="M 225.652344 155.269531 C 221.488281 155.324219 219.152344 156.410156 217.925781 157.828125 C 216.1875 159.84375 216.027344 163.375 217.105469 167.726562 C 218.179688 172.085938 220.394531 176.957031 222.480469 181.003906 C 223.523438 183.03125 224.535156 184.851562 225.347656 186.335938 C 226.167969 187.824219 226.769531 188.875 227.136719 189.773438 C 227.46875 190.605469 227.847656 191.335938 228.226562 192.019531 C 229.839844 188.578125 230.125 185.199219 229.964844 181.679688 C 229.753906 177.324219 228.75 172.867188 228.898438 168.351562 C 229.066406 163.078125 230.09375 159.644531 230.183594 155.566406 C 228.824219 155.378906 227.246094 155.269531 225.652344 155.269531 Z M 226.421875 158.40625 L 226.414062 158.453125 C 226.414062 158.472656 226.414062 158.492188 226.414062 158.515625 C 226.414062 158.800781 226.335938 159.074219 226.191406 159.296875 L 226.199219 159.292969 C 226.003906 159.644531 225.78125 159.953125 225.519531 160.222656 C 224.914062 160.898438 224.101562 161.367188 223.179688 161.527344 L 223.15625 161.535156 C 223.027344 161.554688 222.878906 161.558594 222.722656 161.558594 C 221.941406 161.558594 221.21875 161.3125 220.628906 160.890625 L 220.644531 160.898438 C 220.339844 160.6875 220.070312 160.445312 219.855469 160.171875 L 219.847656 160.164062 C 219.65625 159.953125 219.519531 159.683594 219.464844 159.390625 L 219.464844 159.378906 C 219.464844 159.347656 219.457031 159.316406 219.457031 159.285156 C 219.457031 159.019531 219.558594 158.769531 219.722656 158.585938 C 219.921875 158.355469 220.160156 158.167969 220.433594 158.03125 L 220.445312 158.027344 C 221.035156 157.691406 221.828125 157.445312 222.726562 157.308594 C 223.0625 157.257812 223.398438 157.234375 223.707031 157.226562 L 223.707031 157.246094 L 224.011719 157.246094 C 224.417969 157.257812 224.789062 157.300781 225.117188 157.382812 C 225.445312 157.457031 225.730469 157.566406 225.960938 157.722656 C 226.191406 157.878906 226.367188 158.113281 226.421875 158.40625 Z M 226.421875 158.40625 " fill-opacity="1" fill-rule="nonzero"/><path fill="#32648d" d="M 157.351562 182.585938 C 157.351562 181.46875 157.4375 180.378906 157.597656 179.304688 L 157.585938 179.421875 C 158.21875 174.84375 158.304688 170.558594 158.230469 167.175781 C 158.15625 163.878906 157.921875 161.683594 157.921875 160.3125 C 157.921875 160.296875 157.921875 160.277344 157.921875 160.257812 C 157.921875 160.238281 157.921875 160.214844 157.921875 160.195312 L 157.921875 160.164062 L 157.914062 160.128906 L 157.914062 160.121094 C 157.914062 160.109375 157.914062 160.101562 157.914062 160.089844 C 157.914062 152.753906 159.207031 145.71875 161.546875 139.191406 C 163.265625 134.578125 165.820312 129.898438 169.652344 126.105469 C 165.882812 124.851562 159.207031 122.945312 151.96875 122.585938 C 151.273438 122.546875 150.460938 122.523438 149.648438 122.523438 L 149.640625 122.523438 L 149.640625 122.527344 C 148.867188 122.527344 148.082031 122.554688 147.3125 122.597656 C 141.121094 122.957031 135.261719 124.773438 131.078125 129.261719 C 126.882812 133.746094 124.121094 141.105469 124.722656 153.285156 C 124.839844 155.589844 125.832031 162.050781 127.535156 169.722656 C 129.242188 177.398438 131.644531 186.425781 134.535156 194.40625 C 137.433594 202.382812 140.945312 209.324219 144.285156 212.609375 C 145.96875 214.253906 147.425781 214.914062 148.746094 214.859375 C 150.074219 214.796875 151.675781 214.023438 153.632812 211.648438 C 157.472656 206.976562 161.105469 202.839844 164.851562 198.824219 L 164.730469 198.953125 C 160.199219 194.957031 157.351562 189.113281 157.351562 182.585938 Z M 157.351562 182.585938 " fill-opacity="1" fill-rule="nonzero"/><path fill="#32648d" d="M 190.363281 122.21875 L 190.363281 122.207031 C 183.113281 122.226562 177.917969 124.4375 173.96875 127.753906 C 169.90625 131.183594 167.179688 135.875 165.386719 140.675781 C 163.257812 146.378906 162.53125 151.898438 162.242188 155.640625 L 162.320312 155.589844 C 164.511719 154.351562 167.386719 153.113281 170.464844 152.390625 C 173.542969 151.671875 176.855469 151.457031 179.859375 152.632812 C 182.863281 153.8125 185.347656 156.582031 186.246094 160.785156 C 190.558594 180.972656 184.90625 188.480469 182.820312 194.144531 C 182.15625 195.773438 181.46875 197.871094 180.890625 200.007812 L 180.792969 200.421875 C 181.050781 200.363281 181.320312 200.289062 181.578125 200.261719 C 183.050781 200.136719 184.203125 200.632812 184.886719 200.933594 C 186.984375 201.8125 188.425781 203.660156 189.203125 205.765625 C 189.40625 206.316406 189.546875 206.914062 189.636719 207.527344 C 189.714844 207.738281 189.761719 207.984375 189.761719 208.238281 C 189.761719 208.265625 189.761719 208.289062 189.761719 208.3125 C 189.660156 211.414062 189.597656 215.050781 189.597656 218.707031 C 189.597656 223.042969 189.683594 227.355469 189.847656 231.652344 C 189.988281 234.910156 190.195312 237.800781 190.449219 240.074219 C 190.714844 242.390625 191.089844 244.148438 191.324219 244.742188 C 192.105469 246.726562 193.253906 249.324219 195.328125 251.089844 C 197.398438 252.847656 200.371094 254.027344 205.804688 252.847656 C 210.515625 251.828125 213.417969 250.40625 215.359375 248.367188 C 217.304688 246.328125 218.457031 243.488281 219.195312 239.144531 C 220.308594 232.636719 222.535156 213.761719 222.808594 210.210938 C 222.683594 207.53125 223.074219 205.476562 223.925781 203.90625 C 224.796875 202.296875 226.148438 201.308594 227.308594 200.777344 C 227.890625 200.511719 228.4375 200.332031 228.886719 200.199219 C 228.339844 199.414062 227.847656 198.757812 227.339844 198.117188 L 227.394531 198.1875 C 225.789062 196.226562 224.417969 193.976562 223.378906 191.554688 L 223.3125 191.375 C 222.683594 190.078125 222.15625 189.097656 221.605469 188.136719 L 221.734375 188.378906 C 220.921875 186.890625 219.890625 185.03125 218.8125 182.945312 C 216.652344 178.761719 214.304688 173.691406 213.082031 168.75 C 211.867188 163.816406 211.691406 158.707031 214.808594 155.105469 C 217.566406 151.910156 222.410156 150.582031 229.679688 151.328125 C 229.46875 150.675781 229.339844 150.136719 228.972656 149.269531 C 227.203125 145.117188 225.074219 141.53125 222.546875 138.285156 C 216.386719 130.339844 206.425781 122.472656 191.042969 122.21875 Z M 190.363281 122.21875 " fill-opacity="1" fill-rule="nonzero"/><path fill="#32648d" d="M 162.152344 160.660156 L 162.164062 160.65625 L 162.183594 160.636719 Z M 162.152344 160.660156 " fill-opacity="1" fill-rule="nonzero"/><path fill="#32648d" d="M 171.277344 156.464844 L 171.339844 156.457031 L 171.390625 156.441406 Z M 171.277344 156.464844 " fill-opacity="1" fill-rule="nonzero"/><path fill="#32648d" d="M 178.96875 192.6875 C 181.457031 185.90625 186.351562 180.960938 182.230469 161.660156 C 181.554688 158.496094 180.21875 157.222656 178.382812 156.503906 C 177.488281 156.171875 176.453125 155.980469 175.367188 155.980469 C 175.296875 155.980469 175.222656 155.980469 175.15625 155.980469 L 175.167969 155.980469 C 173.847656 155.992188 172.566406 156.160156 171.339844 156.457031 C 168.730469 157.117188 166.4375 158.046875 164.300781 159.234375 C 163.5 159.675781 162.8125 160.132812 162.164062 160.648438 L 162.046875 160.761719 C 162.085938 161.664062 162.257812 163.859375 162.332031 167.089844 C 162.40625 170.621094 162.320312 175.128906 161.644531 180.007812 C 160.179688 190.605469 167.789062 199.382812 176.726562 199.394531 C 177.253906 197.21875 178.109375 195.011719 178.96875 192.6875 Z M 173.683594 161.886719 C 173.394531 161.589844 173.15625 161.257812 172.964844 160.890625 L 172.953125 160.867188 C 172.792969 160.605469 172.699219 160.289062 172.699219 159.949219 C 172.699219 159.886719 172.703125 159.824219 172.710938 159.761719 L 172.710938 159.769531 C 172.804688 159.097656 173.351562 158.753906 173.878906 158.558594 C 174.367188 158.398438 174.914062 158.304688 175.496094 158.304688 C 175.585938 158.304688 175.671875 158.304688 175.769531 158.3125 L 175.765625 158.289062 C 176.085938 158.289062 176.433594 158.316406 176.78125 158.367188 C 177.71875 158.496094 178.558594 158.753906 179.191406 159.125 C 179.507812 159.296875 179.78125 159.515625 179.996094 159.773438 L 180.003906 159.78125 C 180.214844 160.023438 180.339844 160.339844 180.339844 160.691406 C 180.339844 160.742188 180.339844 160.792969 180.332031 160.839844 L 180.332031 160.835938 C 180.269531 161.207031 180.101562 161.527344 179.871094 161.789062 C 179.617188 162.097656 179.332031 162.367188 179.011719 162.589844 L 178.996094 162.59375 C 178.371094 163.054688 177.582031 163.328125 176.734375 163.328125 C 176.566406 163.328125 176.398438 163.3125 176.234375 163.296875 L 176.253906 163.296875 C 175.222656 163.121094 174.34375 162.613281 173.683594 161.886719 Z M 173.683594 161.886719 " fill-opacity="1" fill-rule="nonzero"/><path fill="#32648d" d="M 164.175781 159.296875 C 164.21875 159.273438 164.265625 159.261719 164.300781 159.234375 C 164.308594 159.234375 164.3125 159.230469 164.320312 159.222656 Z M 164.175781 159.296875 " fill-opacity="1" fill-rule="nonzero"/><path fill="#32648d" d="M 225.855469 135.757812 C 228.542969 139.195312 230.871094 143.113281 232.664062 147.316406 L 232.796875 147.65625 C 233.472656 149.292969 233.925781 150.675781 234.179688 151.746094 C 234.308594 152.289062 234.394531 152.738281 234.425781 153.210938 C 234.441406 153.445312 234.453125 153.6875 234.351562 154.101562 C 234.351562 154.121094 234.320312 154.164062 234.316406 154.183594 C 234.5 159.613281 233.167969 163.296875 233.011719 168.476562 C 232.886719 172.234375 233.835938 176.648438 234.074219 181.460938 C 234.296875 185.988281 233.757812 190.957031 230.847656 195.835938 C 231.09375 196.132812 231.3125 196.433594 231.546875 196.730469 C 239.238281 184.488281 244.78125 170.945312 247.734375 159.398438 C 249.316406 153.179688 250.15625 147.546875 250.230469 143.082031 C 250.292969 138.621094 249.464844 135.382812 248.421875 134.03125 C 240.191406 123.398438 229.066406 120.6875 219.730469 120.613281 L 219.730469 120.621094 L 218.835938 120.621094 C 215.238281 120.675781 211.761719 121.089844 208.402344 121.816406 C 216.027344 125.238281 221.796875 130.507812 225.855469 135.757812 Z M 225.855469 135.757812 " fill-opacity="1" fill-rule="nonzero"/><g clip-path="url(#39d687c767)"><path fill="#000000" d="M 191.386719 114.097656 L 191.324219 114.097656 C 184.097656 113.976562 177.898438 115.746094 172.890625 118.699219 C 167.960938 116.96875 157.742188 113.988281 146.960938 114.582031 C 139.457031 114.996094 131.265625 117.304688 125.195312 123.78125 C 119.144531 130.257812 115.945312 140.28125 116.617188 153.917969 C 116.804688 157.679688 117.863281 163.816406 119.621094 171.761719 C 121.382812 179.707031 123.855469 189.011719 126.9375 197.496094 C 130.023438 205.988281 133.398438 213.613281 138.679688 218.796875 C 141.320312 221.390625 144.949219 223.574219 149.226562 223.394531 C 152.230469 223.269531 154.941406 221.9375 157.289062 219.972656 C 158.429688 221.492188 159.644531 222.15625 160.757812 222.769531 C 162.152344 223.542969 163.511719 224.070312 164.921875 224.417969 C 167.453125 225.054688 171.785156 225.910156 176.863281 225.039062 C 178.59375 224.746094 180.414062 224.175781 182.226562 223.363281 C 182.292969 225.410156 182.375 227.410156 182.449219 229.4375 C 182.703125 235.859375 182.859375 241.792969 184.761719 246.992188 C 185.066406 247.839844 185.910156 252.21875 189.21875 256.078125 C 192.527344 259.945312 199.019531 262.355469 206.40625 260.757812 C 211.617188 259.628906 218.242188 257.597656 222.648438 251.261719 C 227 245.003906 228.960938 236.019531 229.351562 221.453125 C 229.449219 220.667969 229.566406 219.996094 229.6875 219.371094 L 230.722656 219.464844 L 230.847656 219.464844 C 236.40625 219.71875 242.441406 218.917969 247.480469 216.550781 C 251.941406 214.460938 255.316406 212.347656 257.78125 208.597656 C 258.398438 207.667969 259.066406 206.546875 259.253906 204.613281 C 259.4375 202.679688 258.339844 199.65625 256.515625 198.261719 C 252.867188 195.457031 250.578125 196.523438 248.117188 197.039062 C 245.929688 197.554688 243.394531 197.875 240.800781 197.945312 L 240.75 197.945312 C 247.839844 185.875 252.921875 173.058594 255.820312 161.714844 C 257.539062 155.019531 258.503906 148.847656 258.578125 143.449219 C 258.65625 138.050781 258.222656 133.269531 255.019531 129.136719 C 245.023438 116.21875 230.964844 112.648438 220.085938 112.523438 C 219.75 112.519531 219.40625 112.511719 219.074219 112.519531 L 219.074219 112.5 C 213.152344 112.550781 207.453125 113.441406 202.0625 115.035156 L 201.804688 115.121094 C 198.691406 114.539062 195.074219 114.167969 191.386719 114.097656 Z M 206.089844 118.046875 C 209.886719 117.113281 214.257812 116.546875 218.75 116.492188 L 218.789062 116.492188 L 218.792969 116.46875 C 229.082031 116.367188 242.222656 119.289062 251.664062 131.480469 C 253.785156 134.21875 254.417969 138.222656 254.34375 143.15625 C 254.261719 148.085938 253.363281 153.984375 251.710938 160.449219 C 248.511719 172.972656 242.464844 187.566406 233.949219 200.664062 C 234.230469 200.871094 234.550781 201.050781 234.886719 201.1875 L 234.917969 201.199219 C 236.691406 201.941406 240.746094 202.582031 248.832031 200.902344 C 250.867188 200.46875 252.359375 200.175781 253.902344 201.367188 C 254.597656 201.960938 255.03125 202.839844 255.03125 203.828125 C 255.03125 203.886719 255.03125 203.949219 255.027344 204.011719 L 255.027344 204.007812 C 254.933594 204.792969 254.652344 205.5 254.226562 206.089844 C 252.660156 208.460938 249.578125 210.710938 245.628906 212.566406 C 242.128906 214.214844 237.109375 215.078125 232.660156 215.125 C 230.425781 215.152344 228.371094 214.976562 226.621094 214.425781 L 226.507812 214.382812 C 225.832031 220.953125 224.28125 233.925781 223.269531 239.84375 C 222.460938 244.617188 221.046875 248.410156 218.339844 251.25 C 215.640625 254.089844 211.824219 255.800781 206.683594 256.914062 C 200.324219 258.296875 195.679688 256.808594 192.6875 254.261719 C 189.703125 251.722656 188.339844 248.347656 187.511719 246.285156 C 186.949219 244.859375 186.65625 243.011719 186.371094 240.546875 C 186.085938 238.078125 185.878906 235.058594 185.738281 231.65625 C 185.601562 228.199219 185.527344 224.132812 185.527344 220.046875 C 185.527344 218.703125 185.539062 217.363281 185.550781 216.019531 C 182.988281 218.398438 179.75 220.074219 176.148438 220.710938 L 176.039062 220.730469 C 171.8125 221.453125 168.042969 220.742188 165.789062 220.171875 C 164.59375 219.867188 163.550781 219.441406 162.570312 218.90625 C 161.539062 218.347656 160.558594 217.710938 159.902344 216.464844 C 159.640625 215.988281 159.484375 215.410156 159.484375 214.804688 C 159.484375 214.5625 159.507812 214.320312 159.558594 214.097656 C 159.78125 213.265625 160.25 212.558594 160.886719 212.0625 L 160.894531 212.058594 C 162.109375 211.058594 163.710938 210.503906 166.136719 209.992188 C 170.542969 209.078125 172.082031 208.449219 173.019531 207.699219 C 173.816406 207.054688 174.722656 205.753906 176.308594 203.84375 C 176.304688 203.789062 176.296875 203.695312 176.292969 203.609375 L 176.292969 203.589844 C 173.289062 203.503906 170.488281 202.691406 168.042969 201.324219 L 168.136719 201.371094 C 167.21875 202.351562 162.519531 207.371094 156.796875 214.339844 C 154.390625 217.253906 151.726562 218.925781 148.921875 219.042969 C 146.117188 219.160156 143.578125 217.734375 141.417969 215.621094 C 137.105469 211.386719 133.667969 204.105469 130.667969 195.875 C 127.675781 187.640625 125.242188 178.476562 123.511719 170.664062 C 121.773438 162.855469 120.757812 156.558594 120.609375 153.519531 C 119.960938 140.617188 122.949219 131.917969 128.066406 126.433594 C 133.195312 120.949219 140.21875 118.871094 147.066406 118.476562 C 159.359375 117.761719 171.027344 122.09375 173.394531 123.023438 C 177.949219 119.902344 183.8125 117.953125 191.132812 118.078125 C 194.816406 118.132812 198.363281 118.625 201.75 119.496094 L 201.441406 119.429688 L 201.5625 119.375 C 202.75 118.925781 204.265625 118.476562 205.816406 118.101562 Z M 206.089844 118.046875 " fill-opacity="1" fill-rule="nonzero"/></g></svg>