<svg xmlns="http://www.w3.org/2000/svg" xmlns:xlink="http://www.w3.org/1999/xlink" width="500" zoomAndPan="magnify" viewBox="0 0 375 374.999991" height="500" preserveAspectRatio="xMidYMid meet" version="1.0"><defs><filter x="0%" y="0%" width="100%" height="100%" id="b7a63825e4"><feColorMatrix values="0 0 0 0 1 0 0 0 0 1 0 0 0 0 1 0 0 0 1 0" color-interpolation-filters="sRGB"/></filter><clipPath id="7ff3054b1d"><path d="M 113.625 192 L 231 192 L 231 262.5 L 113.625 262.5 Z M 113.625 192 " clip-rule="nonzero"/></clipPath><clipPath id="765681bac2"><path d="M 113.625 192 L 231 192 L 231 230 L 113.625 230 Z M 113.625 192 " clip-rule="nonzero"/></clipPath><clipPath id="3a19fdce26"><path d="M 113.625 211 L 231 211 L 231 262.5 L 113.625 262.5 Z M 113.625 211 " clip-rule="nonzero"/></clipPath><clipPath id="c272680331"><path d="M 113.625 152 L 231 152 L 231 223 L 113.625 223 Z M 113.625 152 " clip-rule="nonzero"/></clipPath><clipPath id="69e101315b"><path d="M 113.625 152 L 231 152 L 231 191 L 113.625 191 Z M 113.625 152 " clip-rule="nonzero"/></clipPath><clipPath id="c474ff9912"><path d="M 113.625 171 L 231 171 L 231 223 L 113.625 223 Z M 113.625 171 " clip-rule="nonzero"/></clipPath><clipPath id="9d11b22f24"><path d="M 113.625 112.5 L 231 112.5 L 231 183 L 113.625 183 Z M 113.625 112.5 " clip-rule="nonzero"/></clipPath><clipPath id="cbba405453"><path d="M 113.625 112.5 L 231 112.5 L 231 151 L 113.625 151 Z M 113.625 112.5 " clip-rule="nonzero"/></clipPath><clipPath id="bbbf8ed4f4"><path d="M 113.625 131 L 231 131 L 231 183 L 113.625 183 Z M 113.625 131 " clip-rule="nonzero"/></clipPath><clipPath id="601486d414"><path d="M 122 112.5 L 223 112.5 L 223 262.5 L 122 262.5 Z M 122 112.5 " clip-rule="nonzero"/></clipPath><mask id="2e1495260b"><g filter="url(#b7a63825e4)"><rect x="-37.5" width="450" fill="#000000" y="-37.499999" height="449.999989" fill-opacity="0.16"/></g></mask><clipPath id="f04824a82f"><path d="M 2 1 L 78 1 L 78 150.5 L 2 150.5 Z M 2 1 " clip-rule="nonzero"/></clipPath><clipPath id="98104592b3"><path d="M 51 0.800781 L 99 0.800781 L 99 146 L 51 146 Z M 51 0.800781 " clip-rule="nonzero"/></clipPath><clipPath id="df50926e32"><rect x="0" width="101" y="0" height="151"/></clipPath><clipPath id="365a38ee75"><path d="M 200 201 L 261.375 201 L 261.375 262.5 L 200 262.5 Z M 200 201 " clip-rule="nonzero"/></clipPath></defs><g clip-path="url(#7ff3054b1d)"><path fill="#4f5d99" d="M 230.992188 211.292969 L 230.992188 243.429688 C 230.992188 253.71875 204.714844 262.0625 172.332031 262.0625 C 139.925781 262.0625 113.648438 253.71875 113.648438 243.429688 L 113.648438 211.292969 C 113.648438 200.980469 139.925781 192.636719 172.332031 192.636719 C 204.714844 192.636719 230.992188 200.980469 230.992188 211.292969 Z M 230.992188 211.292969 " fill-opacity="1" fill-rule="nonzero"/></g><g clip-path="url(#765681bac2)"><path fill="#3d4a75" d="M 230.992188 211.292969 C 230.992188 221.582031 204.714844 229.929688 172.332031 229.929688 C 139.925781 229.929688 113.648438 221.582031 113.648438 211.292969 C 113.648438 200.980469 139.925781 192.636719 172.332031 192.636719 C 204.714844 192.636719 230.992188 200.980469 230.992188 211.292969 Z M 230.992188 211.292969 " fill-opacity="1" fill-rule="nonzero"/></g><g clip-path="url(#3a19fdce26)"><path fill="#4f5d99" d="M 113.648438 211.292969 C 113.648438 221.582031 139.925781 229.929688 172.332031 229.929688 C 204.714844 229.929688 230.992188 221.582031 230.992188 211.292969 L 230.992188 243.433594 C 230.992188 253.722656 204.714844 262.066406 172.332031 262.066406 C 139.925781 262.066406 113.648438 253.722656 113.648438 243.433594 Z M 113.648438 211.292969 " fill-opacity="1" fill-rule="nonzero"/></g><path fill="#e9e9ff" d="M 150.847656 245.433594 C 150.847656 246.910156 149.546875 248.050781 148.074219 247.890625 C 135.253906 246.429688 126.773438 243.445312 123.449219 241.203125 C 122.863281 240.8125 122.542969 240.136719 122.542969 239.445312 C 122.542969 237.949219 124 236.917969 125.386719 237.398438 C 132.304688 239.835938 140.355469 242.074219 148.605469 242.964844 C 149.867188 243.105469 150.847656 244.15625 150.847656 245.433594 Z M 150.847656 245.433594 " fill-opacity="1" fill-rule="nonzero"/><path fill="#7bd681" d="M 223.742188 237.835938 C 223.742188 240.054688 221.941406 241.835938 219.726562 241.835938 C 217.511719 241.835938 215.710938 240.054688 215.710938 237.835938 C 215.710938 235.621094 217.511719 233.820312 219.726562 233.820312 C 221.941406 233.820312 223.742188 235.621094 223.742188 237.835938 Z M 223.742188 237.835938 " fill-opacity="1" fill-rule="nonzero"/><path fill="#ed524e" d="M 195.789062 243.90625 C 195.789062 246.125 193.988281 247.90625 191.773438 247.90625 C 189.558594 247.90625 187.757812 246.125 187.757812 243.90625 C 187.757812 241.691406 189.558594 239.890625 191.773438 239.890625 C 193.988281 239.890625 195.789062 241.691406 195.789062 243.90625 Z M 195.789062 243.90625 " fill-opacity="1" fill-rule="nonzero"/><g clip-path="url(#c272680331)"><path fill="#4f5d99" d="M 230.992188 171.4375 L 230.992188 203.570312 C 230.992188 213.863281 204.714844 222.207031 172.332031 222.207031 C 139.925781 222.207031 113.648438 213.863281 113.648438 203.570312 L 113.648438 171.4375 C 113.648438 161.125 139.925781 152.78125 172.332031 152.78125 C 204.714844 152.78125 230.992188 161.125 230.992188 171.4375 Z M 230.992188 171.4375 " fill-opacity="1" fill-rule="nonzero"/></g><g clip-path="url(#69e101315b)"><path fill="#3d4a75" d="M 230.992188 171.4375 C 230.992188 181.726562 204.714844 190.070312 172.332031 190.070312 C 139.925781 190.070312 113.648438 181.726562 113.648438 171.4375 C 113.648438 161.125 139.925781 152.78125 172.332031 152.78125 C 204.714844 152.78125 230.992188 161.125 230.992188 171.4375 Z M 230.992188 171.4375 " fill-opacity="1" fill-rule="nonzero"/></g><g clip-path="url(#c474ff9912)"><path fill="#4f5d99" d="M 113.648438 171.4375 C 113.648438 181.726562 139.925781 190.070312 172.332031 190.070312 C 204.714844 190.070312 230.992188 181.726562 230.992188 171.4375 L 230.992188 203.574219 C 230.992188 213.863281 204.714844 222.210938 172.332031 222.210938 C 139.925781 222.210938 113.648438 213.863281 113.648438 203.574219 Z M 113.648438 171.4375 " fill-opacity="1" fill-rule="nonzero"/></g><path fill="#e9e9ff" d="M 150.847656 205.578125 C 150.847656 207.054688 149.546875 208.191406 148.074219 208.03125 C 135.253906 206.574219 126.773438 203.585938 123.449219 201.347656 C 122.863281 200.957031 122.542969 200.28125 122.542969 199.585938 C 122.542969 198.09375 124 197.0625 125.386719 197.542969 C 132.304688 199.976562 140.355469 202.21875 148.605469 203.105469 C 149.867188 203.25 150.847656 204.300781 150.847656 205.578125 Z M 150.847656 205.578125 " fill-opacity="1" fill-rule="nonzero"/><path fill="#7bd681" d="M 223.742188 197.980469 C 223.742188 200.195312 221.941406 201.976562 219.726562 201.976562 C 217.511719 201.976562 215.710938 200.195312 215.710938 197.980469 C 215.710938 195.765625 217.511719 193.964844 219.726562 193.964844 C 221.941406 193.964844 223.742188 195.765625 223.742188 197.980469 Z M 223.742188 197.980469 " fill-opacity="1" fill-rule="nonzero"/><path fill="#fdc72e" d="M 209.984375 201.988281 C 209.984375 204.203125 208.179688 205.984375 205.964844 205.984375 C 203.75 205.984375 201.949219 204.203125 201.949219 201.988281 C 201.949219 199.773438 203.75 197.96875 205.964844 197.96875 C 208.179688 197.96875 209.984375 199.773438 209.984375 201.988281 Z M 209.984375 201.988281 " fill-opacity="1" fill-rule="nonzero"/><path fill="#ed524e" d="M 195.789062 204.050781 C 195.789062 206.265625 193.988281 208.046875 191.773438 208.046875 C 189.558594 208.046875 187.757812 206.265625 187.757812 204.050781 C 187.757812 201.835938 189.558594 200.035156 191.773438 200.035156 C 193.988281 200.035156 195.789062 201.835938 195.789062 204.050781 Z M 195.789062 204.050781 " fill-opacity="1" fill-rule="nonzero"/><g clip-path="url(#9d11b22f24)"><path fill="#4f5d99" d="M 230.992188 131.578125 L 230.992188 163.714844 C 230.992188 174.003906 204.714844 182.351562 172.332031 182.351562 C 139.925781 182.351562 113.648438 174.003906 113.648438 163.714844 L 113.648438 131.578125 C 113.648438 121.265625 139.925781 112.921875 172.332031 112.921875 C 204.714844 112.921875 230.992188 121.265625 230.992188 131.578125 Z M 230.992188 131.578125 " fill-opacity="1" fill-rule="nonzero"/></g><g clip-path="url(#cbba405453)"><path fill="#3d4a75" d="M 230.992188 131.578125 C 230.992188 141.867188 204.714844 150.214844 172.332031 150.214844 C 139.925781 150.214844 113.648438 141.867188 113.648438 131.578125 C 113.648438 121.265625 139.925781 112.921875 172.332031 112.921875 C 204.714844 112.921875 230.992188 121.265625 230.992188 131.578125 Z M 230.992188 131.578125 " fill-opacity="1" fill-rule="nonzero"/></g><g clip-path="url(#bbbf8ed4f4)"><path fill="#4f5d99" d="M 113.648438 131.578125 C 113.648438 141.867188 139.925781 150.214844 172.332031 150.214844 C 204.714844 150.214844 230.992188 141.867188 230.992188 131.578125 L 230.992188 163.71875 C 230.992188 174.007812 204.714844 182.351562 172.332031 182.351562 C 139.925781 182.351562 113.648438 174.007812 113.648438 163.71875 Z M 113.648438 131.578125 " fill-opacity="1" fill-rule="nonzero"/></g><path fill="#e9e9ff" d="M 150.847656 165.722656 C 150.847656 167.195312 149.546875 168.335938 148.074219 168.175781 C 135.253906 166.71875 126.773438 163.730469 123.449219 161.492188 C 122.863281 161.097656 122.542969 160.421875 122.542969 159.730469 C 122.542969 158.238281 124 157.207031 125.386719 157.683594 C 132.304688 160.121094 140.355469 162.359375 148.605469 163.25 C 149.867188 163.390625 150.847656 164.441406 150.847656 165.722656 Z M 150.847656 165.722656 " fill-opacity="1" fill-rule="nonzero"/><path fill="#7bd681" d="M 223.742188 158.125 C 223.742188 160.339844 221.941406 162.121094 219.726562 162.121094 C 217.511719 162.121094 215.710938 160.339844 215.710938 158.125 C 215.710938 155.90625 217.511719 154.105469 219.726562 154.105469 C 221.941406 154.105469 223.742188 155.90625 223.742188 158.125 Z M 223.742188 158.125 " fill-opacity="1" fill-rule="nonzero"/><path fill="#fdc72e" d="M 209.984375 162.128906 C 209.984375 164.347656 208.179688 166.125 205.964844 166.125 C 203.75 166.125 201.949219 164.347656 201.949219 162.128906 C 201.949219 159.914062 203.75 158.113281 205.964844 158.113281 C 208.179688 158.113281 209.984375 159.914062 209.984375 162.128906 Z M 209.984375 162.128906 " fill-opacity="1" fill-rule="nonzero"/><path fill="#ed524e" d="M 195.789062 164.195312 C 195.789062 166.410156 193.988281 168.191406 191.773438 168.191406 C 189.558594 168.191406 187.757812 166.410156 187.757812 164.195312 C 187.757812 161.980469 189.558594 160.175781 191.773438 160.175781 C 193.988281 160.175781 195.789062 161.980469 195.789062 164.195312 Z M 195.789062 164.195312 " fill-opacity="1" fill-rule="nonzero"/><g clip-path="url(#601486d414)"><g mask="url(#2e1495260b)"><g transform="matrix(1, 0, 0, 1, 122, 112)"><g clip-path="url(#df50926e32)"><g clip-path="url(#f04824a82f)"><path fill="#ffffff" d="M 77.675781 147.929688 C 69.507812 149.308594 60.226562 150.078125 50.339844 150.078125 C 45.777344 150.078125 41.351562 149.917969 37.109375 149.597656 L 2.269531 8.890625 C 11.230469 4.804688 25.175781 1.941406 41.296875 1.148438 Z M 77.675781 147.929688 " fill-opacity="1" fill-rule="nonzero"/></g><g clip-path="url(#98104592b3)"><path fill="#ffffff" d="M 98.382812 142.121094 C 95.332031 143.5 91.726562 144.746094 87.671875 145.808594 L 51.796875 0.933594 C 55.828125 0.960938 59.75 1.121094 63.542969 1.410156 Z M 98.382812 142.121094 " fill-opacity="1" fill-rule="nonzero"/></g></g></g></g></g><g clip-path="url(#365a38ee75)"><path fill="#70c1f9" d="M 260.5 226.890625 L 252.796875 224.855469 C 252.402344 223.570312 251.863281 222.304688 251.242188 221.121094 L 255.269531 214.25 C 255.515625 213.8125 255.453125 213.253906 255.082031 212.878906 L 249.828125 207.625 C 249.457031 207.253906 248.894531 207.167969 248.4375 207.4375 L 241.566406 211.445312 C 240.757812 211.03125 239.925781 210.636719 239.054688 210.324219 C 238.640625 210.160156 238.246094 210.035156 237.832031 209.890625 L 235.816406 202.207031 C 235.671875 201.710938 235.234375 201.355469 234.714844 201.355469 L 227.265625 201.355469 C 226.746094 201.355469 226.289062 201.710938 226.164062 202.207031 L 225.914062 203.144531 L 225.582031 204.429688 L 224.148438 209.890625 C 222.84375 210.304688 221.597656 210.824219 220.394531 211.445312 L 213.542969 207.4375 C 213.085938 207.167969 212.527344 207.253906 212.152344 207.625 L 208.769531 211.011719 L 206.898438 212.878906 C 206.527344 213.253906 206.464844 213.8125 206.710938 214.25 L 210.71875 221.121094 C 210.097656 222.304688 209.578125 223.570312 209.183594 224.878906 L 201.480469 226.890625 C 200.984375 227.015625 200.628906 227.472656 200.628906 227.992188 L 200.628906 235.421875 C 200.628906 235.960938 200.984375 236.398438 201.480469 236.523438 L 209.183594 238.558594 C 209.578125 239.84375 210.097656 241.109375 210.738281 242.292969 L 206.710938 249.164062 C 206.464844 249.601562 206.527344 250.183594 206.898438 250.535156 L 212.152344 255.808594 C 212.527344 256.160156 213.085938 256.246094 213.542969 255.972656 L 220.394531 251.96875 C 221.222656 252.402344 222.054688 252.777344 222.925781 253.109375 C 223.320312 253.253906 223.734375 253.398438 224.148438 253.523438 L 226.164062 261.226562 C 226.289062 261.722656 226.746094 262.078125 227.265625 262.078125 L 234.714844 262.078125 C 235.234375 262.078125 235.671875 261.722656 235.816406 261.226562 L 237.832031 253.523438 C 239.136719 253.109375 240.382812 252.589844 241.566406 251.96875 L 241.589844 251.988281 L 242.542969 252.546875 L 246.839844 255.039062 L 248.4375 255.972656 C 248.5625 256.058594 248.707031 256.097656 248.855469 256.140625 C 249.207031 256.179688 249.558594 256.058594 249.828125 255.808594 L 255.082031 250.535156 C 255.453125 250.183594 255.515625 249.601562 255.269531 249.164062 L 251.242188 242.292969 C 251.863281 241.109375 252.402344 239.84375 252.796875 238.558594 L 260.5 236.523438 C 260.996094 236.398438 261.351562 235.960938 261.351562 235.421875 L 261.351562 227.992188 C 261.351562 227.472656 260.996094 227.015625 260.5 226.890625 Z M 230.980469 246.195312 C 222.988281 246.195312 216.488281 239.71875 216.488281 231.707031 C 216.488281 223.714844 222.988281 217.21875 230.980469 217.21875 C 238.972656 217.21875 245.46875 223.714844 245.46875 231.707031 C 245.46875 239.71875 238.972656 246.195312 230.980469 246.195312 Z M 230.980469 246.195312 " fill-opacity="1" fill-rule="nonzero"/></g><path fill="#4f5d99" d="M 245.46875 231.707031 C 245.46875 232.65625 245.375 233.601562 245.191406 234.53125 C 245.003906 235.464844 244.730469 236.371094 244.367188 237.25 C 244.003906 238.128906 243.554688 238.964844 243.027344 239.757812 C 242.5 240.546875 241.898438 241.28125 241.226562 241.953125 C 240.550781 242.625 239.820312 243.226562 239.03125 243.753906 C 238.238281 244.285156 237.402344 244.730469 236.523438 245.09375 C 235.644531 245.457031 234.738281 245.734375 233.804688 245.917969 C 232.871094 246.105469 231.929688 246.195312 230.980469 246.195312 C 230.027344 246.195312 229.085938 246.105469 228.152344 245.917969 C 227.21875 245.734375 226.3125 245.457031 225.433594 245.09375 C 224.554688 244.730469 223.71875 244.285156 222.929688 243.753906 C 222.136719 243.226562 221.40625 242.625 220.734375 241.953125 C 220.058594 241.28125 219.460938 240.546875 218.929688 239.757812 C 218.402344 238.964844 217.957031 238.128906 217.589844 237.25 C 217.226562 236.371094 216.953125 235.464844 216.765625 234.53125 C 216.582031 233.601562 216.488281 232.65625 216.488281 231.707031 C 216.488281 230.753906 216.582031 229.8125 216.765625 228.878906 C 216.953125 227.945312 217.226562 227.039062 217.589844 226.160156 C 217.957031 225.28125 218.402344 224.445312 218.929688 223.65625 C 219.460938 222.863281 220.058594 222.132812 220.734375 221.460938 C 221.40625 220.785156 222.136719 220.1875 222.929688 219.65625 C 223.71875 219.128906 224.554688 218.683594 225.433594 218.320312 C 226.3125 217.953125 227.21875 217.679688 228.152344 217.492188 C 229.085938 217.308594 230.027344 217.214844 230.980469 217.214844 C 231.929688 217.214844 232.871094 217.308594 233.804688 217.492188 C 234.738281 217.679688 235.644531 217.953125 236.523438 218.320312 C 237.402344 218.683594 238.238281 219.128906 239.03125 219.65625 C 239.820312 220.1875 240.550781 220.785156 241.226562 221.460938 C 241.898438 222.132812 242.5 222.863281 243.027344 223.65625 C 243.554688 224.445312 244.003906 225.28125 244.367188 226.160156 C 244.730469 227.039062 245.003906 227.945312 245.191406 228.878906 C 245.375 229.8125 245.46875 230.753906 245.46875 231.707031 Z M 245.46875 231.707031 " fill-opacity="1" fill-rule="nonzero"/><path fill="#e9e9ff" d="M 242.679688 231.707031 C 242.679688 232.472656 242.601562 233.234375 242.453125 233.988281 C 242.304688 234.742188 242.082031 235.472656 241.789062 236.183594 C 241.492188 236.894531 241.132812 237.566406 240.707031 238.207031 C 240.28125 238.84375 239.792969 239.433594 239.25 239.976562 C 238.707031 240.523438 238.117188 241.007812 237.480469 241.433594 C 236.839844 241.859375 236.164062 242.21875 235.457031 242.515625 C 234.746094 242.808594 234.015625 243.03125 233.261719 243.179688 C 232.507812 243.328125 231.746094 243.40625 230.980469 243.40625 C 230.210938 243.40625 229.449219 243.328125 228.695312 243.179688 C 227.941406 243.03125 227.210938 242.808594 226.503906 242.515625 C 225.792969 242.21875 225.117188 241.859375 224.480469 241.433594 C 223.839844 241.007812 223.25 240.523438 222.707031 239.976562 C 222.164062 239.433594 221.679688 238.84375 221.25 238.207031 C 220.824219 237.566406 220.464844 236.894531 220.171875 236.183594 C 219.875 235.472656 219.65625 234.742188 219.503906 233.988281 C 219.355469 233.234375 219.28125 232.472656 219.28125 231.707031 C 219.28125 230.9375 219.355469 230.175781 219.503906 229.421875 C 219.65625 228.671875 219.875 227.9375 220.171875 227.230469 C 220.464844 226.519531 220.824219 225.84375 221.25 225.207031 C 221.679688 224.566406 222.164062 223.976562 222.707031 223.433594 C 223.25 222.890625 223.839844 222.40625 224.480469 221.980469 C 225.117188 221.550781 225.792969 221.191406 226.503906 220.898438 C 227.210938 220.605469 227.941406 220.382812 228.695312 220.230469 C 229.449219 220.082031 230.210938 220.007812 230.980469 220.007812 C 231.746094 220.007812 232.507812 220.082031 233.261719 220.230469 C 234.015625 220.382812 234.746094 220.605469 235.457031 220.898438 C 236.164062 221.191406 236.839844 221.550781 237.480469 221.980469 C 238.117188 222.40625 238.707031 222.890625 239.25 223.433594 C 239.792969 223.976562 240.28125 224.566406 240.707031 225.207031 C 241.132812 225.84375 241.492188 226.519531 241.789062 227.230469 C 242.082031 227.9375 242.304688 228.671875 242.453125 229.421875 C 242.601562 230.175781 242.679688 230.9375 242.679688 231.707031 Z M 242.679688 231.707031 " fill-opacity="1" fill-rule="nonzero"/></svg>