<svg xmlns="http://www.w3.org/2000/svg" xmlns:xlink="http://www.w3.org/1999/xlink" width="500" zoomAndPan="magnify" viewBox="0 0 375 374.999991" height="500" preserveAspectRatio="xMidYMid meet" version="1.0"><defs><clipPath id="6b2548ad49"><path d="M 117.410156 135 L 238 135 L 238 262.5 L 117.410156 262.5 Z M 117.410156 135 " clip-rule="nonzero"/></clipPath><clipPath id="8f64b2ad8f"><path d="M 137 135 L 257.660156 135 L 257.660156 262.5 L 137 262.5 Z M 137 135 " clip-rule="nonzero"/></clipPath><clipPath id="26cc622c6a"><path d="M 117.410156 112.5 L 257.660156 112.5 L 257.660156 205 L 117.410156 205 Z M 117.410156 112.5 " clip-rule="nonzero"/></clipPath></defs><g clip-path="url(#6b2548ad49)"><path fill="#e55b2d" d="M 197.539062 135.578125 L 197.539062 158.660156 L 237.535156 181.738281 L 237.535156 158.660156 Z M 117.546875 158.660156 L 117.546875 181.738281 L 137.542969 193.277344 L 137.542969 170.199219 Z M 177.539062 170.199219 L 157.542969 181.738281 L 157.542969 250.976562 L 177.539062 262.523438 L 177.539062 216.359375 L 197.539062 227.902344 L 197.539062 204.820312 L 177.539062 193.277344 Z M 177.539062 170.199219 " fill-opacity="1" fill-rule="nonzero"/></g><g clip-path="url(#8f64b2ad8f)"><path fill="#ed8e24" d="M 197.539062 135.578125 L 137.542969 170.199219 L 137.542969 193.277344 L 177.539062 170.199219 L 177.539062 193.277344 L 197.539062 181.738281 Z M 257.53125 147.121094 L 237.535156 158.660156 L 237.535156 181.738281 L 257.53125 170.199219 Z M 217.539062 193.277344 L 197.539062 204.820312 L 197.539062 227.902344 L 217.539062 216.359375 Z M 197.539062 227.902344 L 177.539062 216.359375 L 177.539062 262.523438 L 197.539062 250.976562 Z M 197.539062 227.902344 " fill-opacity="1" fill-rule="nonzero"/></g><g clip-path="url(#26cc622c6a)"><path fill="#f8bf3c" d="M 197.539062 112.5 L 117.546875 158.660156 L 137.542969 170.199219 L 197.539062 135.578125 L 237.535156 158.660156 L 257.53125 147.121094 Z M 197.539062 181.738281 L 177.539062 193.277344 L 197.539062 204.820312 L 217.539062 193.277344 Z M 197.539062 181.738281 " fill-opacity="1" fill-rule="nonzero"/></g></svg>