<svg xmlns="http://www.w3.org/2000/svg" xmlns:xlink="http://www.w3.org/1999/xlink" width="500" zoomAndPan="magnify" viewBox="0 0 375 374.999991" height="500" preserveAspectRatio="xMidYMid meet" version="1.0"><defs><clipPath id="f93334027e"><path d="M 112.523438 120.902344 L 209.398438 120.902344 L 209.398438 255.1875 L 112.523438 255.1875 Z M 112.523438 120.902344 " clip-rule="nonzero"/></clipPath><clipPath id="0cbbbd1131"><path d="M 139.730469 235.042969 L 217.960938 235.042969 L 217.960938 255.1875 L 139.730469 255.1875 Z M 139.730469 235.042969 " clip-rule="nonzero"/></clipPath><clipPath id="cc5fb4c7a9"><path d="M 142 249 L 148 249 L 148 255.1875 L 142 255.1875 Z M 142 249 " clip-rule="nonzero"/></clipPath><clipPath id="b9481ad246"><path d="M 118 120.1875 L 195 120.1875 L 195 130 L 118 130 Z M 118 120.1875 " clip-rule="nonzero"/></clipPath><clipPath id="58fb5b42ef"><path d="M 248.558594 243.183594 L 262.472656 243.183594 L 262.472656 255.1875 L 248.558594 255.1875 Z M 248.558594 243.183594 " clip-rule="nonzero"/></clipPath><clipPath id="e78d43e2f0"><path d="M 248 247 L 262.5 247 L 262.5 255 L 248 255 Z M 248 247 " clip-rule="nonzero"/></clipPath><clipPath id="a84b87b016"><path d="M 224.472656 243.71875 L 239.460938 243.71875 L 239.460938 255.1875 L 224.472656 255.1875 Z M 224.472656 243.71875 " clip-rule="nonzero"/></clipPath></defs><g clip-path="url(#f93334027e)"><path fill="#c9c9db" d="M 209.289062 249.832031 L 185.355469 127.488281 C 184.945312 125.382812 183.101562 123.863281 180.960938 123.863281 L 120.125 123.863281 L 120.46875 120.910156 L 114.765625 124.460938 L 114.765625 124.464844 C 113.175781 125.386719 112.226562 127.253906 112.609375 129.21875 L 136.542969 251.558594 C 136.953125 253.667969 138.796875 255.1875 140.9375 255.1875 L 204.894531 255.1875 C 207.710938 255.1875 209.828125 252.605469 209.289062 249.832031 " fill-opacity="1" fill-rule="nonzero"/></g><path fill="#4061e3" d="M 214.949219 235.054688 L 139.820312 235.054688 L 119.132812 129.296875 L 194.261719 129.296875 L 214.949219 235.054688 " fill-opacity="1" fill-rule="nonzero"/><path fill="#180c45" d="M 119.132812 129.296875 L 120.71875 137.40625 L 195.847656 137.40625 L 194.261719 129.296875 L 119.132812 129.296875 " fill-opacity="1" fill-rule="nonzero"/><g clip-path="url(#0cbbbd1131)"><path fill="#c9c9db" d="M 213.292969 255.1875 L 147.546875 255.1875 C 145.34375 255.1875 143.453125 253.625 143.027344 251.460938 L 139.820312 235.054688 L 214.949219 235.054688 L 217.808594 249.679688 C 218.367188 252.535156 216.191406 255.1875 213.292969 255.1875 " fill-opacity="1" fill-rule="nonzero"/></g><path fill="#180c45" d="M 187.144531 243.21875 C 186.625 241.6875 185.371094 240.457031 183.828125 239.988281 C 183.078125 239.757812 182.3125 239.789062 181.539062 239.789062 C 180.527344 239.789062 179.515625 239.789062 178.503906 239.789062 C 177.804688 239.789062 177.105469 239.789062 176.40625 239.789062 C 175.125 239.789062 173.910156 240.359375 173.195312 241.445312 C 172.359375 242.71875 172.449219 244.371094 173.136719 245.683594 C 173.875 247.105469 175.3125 248.132812 176.898438 248.339844 C 177.230469 248.382812 177.5625 248.375 177.898438 248.375 C 178.25 248.375 178.601562 248.375 178.953125 248.375 C 179.742188 248.375 180.53125 248.375 181.320312 248.375 C 182.027344 248.375 182.734375 248.375 183.441406 248.375 C 184.171875 248.375 184.878906 248.25 185.523438 247.886719 C 186.773438 247.183594 187.46875 245.769531 187.367188 244.347656 C 187.339844 243.964844 187.265625 243.582031 187.144531 243.21875 C 187.023438 242.851562 186.445312 243.007812 186.566406 243.375 C 186.980469 244.625 186.78125 246.023438 185.808594 246.941406 C 185.355469 247.367188 184.773438 247.632812 184.15625 247.738281 C 183.847656 247.785156 183.539062 247.777344 183.230469 247.777344 C 182.90625 247.777344 182.578125 247.777344 182.253906 247.777344 C 180.796875 247.777344 179.339844 247.777344 177.882812 247.777344 C 177.566406 247.777344 177.253906 247.789062 176.941406 247.746094 C 176.589844 247.699219 176.242188 247.601562 175.917969 247.46875 C 175.253906 247.195312 174.660156 246.746094 174.195312 246.199219 C 173.308594 245.15625 172.914062 243.664062 173.398438 242.363281 C 173.835938 241.175781 174.996094 240.421875 176.261719 240.390625 C 176.816406 240.375 177.371094 240.390625 177.925781 240.390625 C 178.914062 240.390625 179.90625 240.390625 180.898438 240.390625 C 181.4375 240.390625 181.976562 240.386719 182.519531 240.390625 C 183.953125 240.394531 185.320312 241.210938 186.097656 242.410156 C 186.292969 242.710938 186.453125 243.035156 186.566406 243.375 C 186.621094 243.53125 186.773438 243.628906 186.933594 243.585938 C 187.082031 243.542969 187.195312 243.371094 187.144531 243.21875 " fill-opacity="1" fill-rule="nonzero"/><path fill="#180c45" d="M 139.820312 235.429688 C 140.574219 239.183594 141.332031 242.941406 142.085938 246.699219 C 142.296875 247.753906 142.511719 248.808594 142.722656 249.867188 C 142.753906 250.023438 142.941406 250.117188 143.089844 250.074219 C 143.253906 250.03125 143.332031 249.867188 143.296875 249.707031 C 142.542969 245.949219 141.789062 242.195312 141.035156 238.4375 C 140.820312 237.382812 140.609375 236.324219 140.398438 235.269531 C 140.367188 235.109375 140.175781 235.019531 140.03125 235.058594 C 139.863281 235.105469 139.789062 235.269531 139.820312 235.429688 " fill-opacity="1" fill-rule="nonzero"/><g clip-path="url(#cc5fb4c7a9)"><path fill="#180c45" d="M 142.722656 249.867188 C 143.015625 251.710938 143.859375 253.625 145.585938 254.523438 C 146.121094 254.800781 146.691406 254.960938 147.289062 255.039062 C 147.449219 255.0625 147.585938 254.886719 147.585938 254.738281 C 147.585938 254.5625 147.449219 254.460938 147.289062 254.441406 C 146.40625 254.324219 145.574219 253.941406 144.9375 253.320312 C 144.339844 252.734375 143.925781 251.984375 143.660156 251.195312 C 143.492188 250.710938 143.378906 250.210938 143.296875 249.707031 C 143.273438 249.546875 143.074219 249.460938 142.929688 249.5 C 142.761719 249.546875 142.695312 249.707031 142.722656 249.867188 " fill-opacity="1" fill-rule="nonzero"/></g><g clip-path="url(#b9481ad246)"><path fill="#c9c9db" d="M 194.261719 129.296875 L 119.132812 129.296875 L 118.425781 125.691406 C 117.867188 122.839844 120.046875 120.1875 122.945312 120.1875 L 188.691406 120.1875 C 190.890625 120.1875 192.785156 121.75 193.207031 123.917969 L 194.261719 129.296875 " fill-opacity="1" fill-rule="nonzero"/></g><path fill="#180c45" d="M 120.359375 121.109375 C 119.78125 121.429688 119.269531 121.875 118.929688 122.449219 C 118.605469 122.996094 118.453125 123.621094 118.398438 124.25 C 118.339844 124.933594 118.394531 125.625 118.472656 126.300781 C 118.535156 126.8125 118.605469 127.316406 118.707031 127.820312 C 118.789062 128.238281 118.871094 128.65625 118.953125 129.074219 C 118.984375 129.234375 119.171875 129.324219 119.320312 129.285156 C 119.484375 129.238281 119.558594 129.074219 119.527344 128.914062 C 119.378906 128.152344 119.214844 127.390625 119.113281 126.617188 C 119.023438 125.96875 118.957031 125.308594 118.972656 124.652344 C 118.988281 124.09375 119.074219 123.503906 119.308594 123.007812 C 119.59375 122.398438 120.070312 121.953125 120.660156 121.625 C 121 121.4375 120.695312 120.921875 120.359375 121.109375 " fill-opacity="1" fill-rule="nonzero"/><path fill="#ffffff" d="M 190.363281 135.53125 L 185.507812 135.53125 C 185.015625 135.53125 184.46875 135.082031 184.375 134.597656 L 183.863281 131.976562 C 183.789062 131.605469 184.007812 131.339844 184.382812 131.339844 L 189.238281 131.339844 C 189.730469 131.339844 190.277344 131.789062 190.371094 132.273438 L 190.882812 134.894531 C 190.957031 135.265625 190.738281 135.53125 190.363281 135.53125 " fill-opacity="1" fill-rule="nonzero"/><path fill="#ffffff" d="M 191.472656 134.5 L 189.230469 134.5 C 188.910156 134.5 188.558594 134.210938 188.496094 133.894531 L 188.28125 132.78125 C 188.234375 132.542969 188.375 132.371094 188.617188 132.371094 L 190.859375 132.371094 C 191.179688 132.371094 191.53125 132.664062 191.59375 132.976562 L 191.8125 134.089844 C 191.855469 134.328125 191.714844 134.5 191.472656 134.5 " fill-opacity="1" fill-rule="nonzero"/><path fill="#ffffff" d="M 180.207031 131.71875 C 180.449219 132.917969 180.6875 134.113281 180.929688 135.3125 C 180.960938 135.472656 181.148438 135.5625 181.296875 135.523438 C 181.460938 135.476562 181.539062 135.3125 181.507812 135.152344 C 181.265625 133.953125 181.023438 132.757812 180.785156 131.558594 C 180.75 131.398438 180.5625 131.308594 180.417969 131.347656 C 180.25 131.394531 180.175781 131.558594 180.207031 131.71875 " fill-opacity="1" fill-rule="nonzero"/><path fill="#ffffff" d="M 178.65625 132.648438 C 178.835938 133.535156 179.011719 134.425781 179.191406 135.3125 C 179.222656 135.472656 179.410156 135.5625 179.558594 135.523438 C 179.722656 135.476562 179.800781 135.3125 179.765625 135.152344 C 179.589844 134.265625 179.410156 133.378906 179.230469 132.492188 C 179.199219 132.332031 179.011719 132.242188 178.863281 132.28125 C 178.699219 132.328125 178.625 132.492188 178.65625 132.648438 " fill-opacity="1" fill-rule="nonzero"/><path fill="#ffffff" d="M 177.105469 133.59375 C 177.222656 134.167969 177.335938 134.742188 177.453125 135.3125 C 177.484375 135.464844 177.671875 135.570312 177.820312 135.523438 C 177.980469 135.46875 178.0625 135.316406 178.027344 135.152344 C 177.914062 134.582031 177.796875 134.007812 177.683594 133.4375 C 177.652344 133.28125 177.460938 133.179688 177.316406 133.226562 C 177.152344 133.28125 177.074219 133.429688 177.105469 133.59375 " fill-opacity="1" fill-rule="nonzero"/><path fill="#180c45" d="M 189.019531 134.839844 L 186.058594 134.839844 C 185.640625 134.839844 185.175781 134.457031 185.09375 134.042969 L 184.804688 132.574219 C 184.746094 132.257812 184.929688 132.03125 185.253906 132.03125 L 188.214844 132.03125 C 188.632812 132.03125 189.101562 132.414062 189.179688 132.828125 L 189.46875 134.296875 C 189.527344 134.613281 189.34375 134.839844 189.019531 134.839844 " fill-opacity="1" fill-rule="nonzero"/><path fill="#180c45" d="M 158.074219 125.59375 C 158.265625 126.578125 157.621094 127.378906 156.640625 127.378906 C 155.65625 127.378906 154.707031 126.578125 154.515625 125.59375 C 154.324219 124.609375 154.96875 123.808594 155.949219 123.808594 C 156.933594 123.808594 157.882812 124.609375 158.074219 125.59375 " fill-opacity="1" fill-rule="nonzero"/><path fill="#ffffff" d="M 196.753906 230.582031 C 196.25 230.582031 195.75 230.582031 195.246094 230.582031 C 193.890625 230.582031 192.535156 230.582031 191.175781 230.582031 C 189.199219 230.582031 187.222656 230.582031 185.246094 230.582031 C 182.867188 230.582031 180.488281 230.582031 178.109375 230.582031 C 175.546875 230.582031 172.980469 230.582031 170.414062 230.582031 C 167.898438 230.582031 165.378906 230.582031 162.859375 230.582031 C 160.621094 230.582031 158.382812 230.582031 156.140625 230.582031 C 154.394531 230.582031 152.648438 230.582031 150.902344 230.582031 C 149.871094 230.582031 148.839844 230.582031 147.808594 230.582031 C 147.636719 230.582031 147.460938 230.582031 147.289062 230.582031 C 145.882812 230.566406 144.453125 229.160156 144.777344 227.691406 C 144.96875 226.84375 145.707031 226.429688 146.527344 226.429688 C 146.78125 226.429688 147.039062 226.429688 147.296875 226.429688 C 148.464844 226.429688 149.632812 226.429688 150.800781 226.429688 C 152.652344 226.429688 154.503906 226.429688 156.355469 226.429688 C 158.65625 226.429688 160.960938 226.429688 163.261719 226.429688 C 165.792969 226.429688 168.328125 226.429688 170.863281 226.429688 C 173.414062 226.429688 175.964844 226.429688 178.515625 226.429688 C 180.847656 226.429688 183.183594 226.429688 185.515625 226.429688 C 187.402344 226.429688 189.289062 226.429688 191.171875 226.429688 C 192.398438 226.429688 193.621094 226.429688 194.84375 226.429688 C 195.136719 226.429688 195.429688 226.429688 195.726562 226.429688 C 196.398438 226.429688 197.03125 226.628906 197.546875 227.085938 C 198.144531 227.625 198.570312 228.464844 198.402344 229.285156 C 198.238281 230.089844 197.550781 230.570312 196.753906 230.582031 C 196.371094 230.585938 196.367188 231.1875 196.753906 231.179688 C 197.59375 231.167969 198.402344 230.757812 198.789062 229.984375 C 199.179688 229.191406 199.066406 228.25 198.640625 227.496094 C 198.070312 226.492188 196.992188 225.835938 195.839844 225.828125 C 195.132812 225.828125 194.425781 225.828125 193.71875 225.828125 C 192.183594 225.828125 190.644531 225.828125 189.109375 225.828125 C 186.984375 225.828125 184.855469 225.828125 182.726562 225.828125 C 180.238281 225.828125 177.75 225.828125 175.261719 225.828125 C 172.644531 225.828125 170.023438 225.828125 167.40625 225.828125 C 164.90625 225.828125 162.410156 225.828125 159.910156 225.828125 C 157.761719 225.828125 155.613281 225.828125 153.460938 225.828125 C 151.894531 225.828125 150.328125 225.828125 148.761719 225.828125 C 148.011719 225.828125 147.265625 225.828125 146.515625 225.828125 C 145.617188 225.832031 144.75 226.230469 144.359375 227.085938 C 143.574219 228.796875 145.015625 230.8125 146.746094 231.128906 C 147.371094 231.242188 148.050781 231.179688 148.679688 231.179688 C 150.035156 231.179688 151.390625 231.179688 152.742188 231.179688 C 154.757812 231.179688 156.769531 231.179688 158.78125 231.179688 C 161.203125 231.179688 163.625 231.179688 166.046875 231.179688 C 168.652344 231.179688 171.253906 231.179688 173.855469 231.179688 C 176.402344 231.179688 178.949219 231.179688 181.496094 231.179688 C 183.761719 231.179688 186.023438 231.179688 188.289062 231.179688 C 190.015625 231.179688 191.746094 231.179688 193.476562 231.179688 C 194.445312 231.179688 195.410156 231.179688 196.378906 231.179688 C 196.503906 231.179688 196.628906 231.179688 196.753906 231.179688 C 197.136719 231.179688 197.140625 230.582031 196.753906 230.582031 " fill-opacity="1" fill-rule="nonzero"/><path fill="#ffffff" d="M 137.730469 222.949219 C 143.355469 222.949219 148.976562 222.949219 154.597656 222.949219 C 159.097656 222.949219 163.59375 222.949219 168.089844 222.949219 C 172.167969 222.949219 176.246094 222.949219 180.324219 222.949219 C 184.730469 222.949219 189.136719 222.949219 193.546875 222.949219 C 198.992188 222.949219 204.4375 222.949219 209.878906 222.949219 C 210.660156 222.949219 211.441406 222.949219 212.21875 222.949219 C 212.605469 222.949219 212.605469 222.347656 212.21875 222.347656 C 206.597656 222.347656 200.976562 222.347656 195.351562 222.347656 C 190.855469 222.347656 186.359375 222.347656 181.859375 222.347656 C 177.785156 222.347656 173.707031 222.347656 169.628906 222.347656 C 165.222656 222.347656 160.8125 222.347656 156.40625 222.347656 C 150.960938 222.347656 145.515625 222.347656 140.070312 222.347656 C 139.292969 222.347656 138.511719 222.347656 137.730469 222.347656 C 137.347656 222.347656 137.347656 222.949219 137.730469 222.949219 " fill-opacity="1" fill-rule="nonzero"/><path fill="#ffffff" d="M 123.683594 145.023438 C 129.261719 145.023438 134.839844 145.023438 140.417969 145.023438 C 144.820312 145.023438 149.21875 145.023438 153.617188 145.023438 C 157.609375 145.023438 161.597656 145.023438 165.589844 145.023438 C 169.878906 145.023438 174.167969 145.023438 178.457031 145.023438 C 183.871094 145.023438 189.28125 145.023438 194.695312 145.023438 C 195.460938 145.023438 196.226562 145.023438 196.996094 145.023438 C 197.378906 145.023438 197.378906 144.421875 196.996094 144.421875 C 191.417969 144.421875 185.839844 144.421875 180.261719 144.421875 C 175.863281 144.421875 171.460938 144.421875 167.0625 144.421875 C 163.070312 144.421875 159.082031 144.421875 155.089844 144.421875 C 150.800781 144.421875 146.511719 144.421875 142.222656 144.421875 C 136.808594 144.421875 131.398438 144.421875 125.984375 144.421875 C 125.21875 144.421875 124.453125 144.421875 123.683594 144.421875 C 123.300781 144.421875 123.300781 145.023438 123.683594 145.023438 " fill-opacity="1" fill-rule="nonzero"/><path fill="#ffffff" d="M 204.050781 227.464844 C 204.6875 227.9375 205.328125 228.414062 205.964844 228.890625 C 206.09375 228.984375 206.304688 228.914062 206.375 228.78125 C 206.457031 228.625 206.402344 228.472656 206.265625 228.375 C 205.628906 227.898438 204.988281 227.421875 204.351562 226.945312 C 204.226562 226.851562 204.011719 226.921875 203.941406 227.050781 C 203.859375 227.210938 203.917969 227.363281 204.050781 227.464844 " fill-opacity="1" fill-rule="nonzero"/><path fill="#ffffff" d="M 204.878906 230.019531 C 205.355469 229.617188 205.84375 229.230469 206.328125 228.84375 C 206.449219 228.746094 206.4375 228.519531 206.328125 228.421875 C 206.195312 228.300781 206.035156 228.316406 205.90625 228.421875 C 205.421875 228.808594 204.933594 229.195312 204.457031 229.59375 C 204.335938 229.695312 204.347656 229.914062 204.457031 230.019531 C 204.585938 230.136719 204.75 230.125 204.878906 230.019531 " fill-opacity="1" fill-rule="nonzero"/><path fill="#ffffff" d="M 207.882812 228.585938 C 208.078125 229.710938 207.554688 230.871094 206.464844 231.269531 C 205.257812 231.710938 203.910156 231.207031 203.039062 230.328125 C 202.183594 229.46875 201.6875 228.101562 202.175781 226.957031 C 202.644531 225.855469 203.859375 225.402344 205.003906 225.644531 C 206.433594 225.945312 207.617188 227.140625 207.882812 228.585938 C 207.914062 228.742188 208.105469 228.835938 208.253906 228.792969 C 208.417969 228.75 208.488281 228.585938 208.460938 228.425781 C 208.179688 226.921875 207 225.65625 205.566406 225.175781 C 204.222656 224.726562 202.640625 225.066406 201.84375 226.304688 C 201.023438 227.582031 201.398438 229.25 202.289062 230.382812 C 203.210938 231.554688 204.773438 232.273438 206.257812 231.953125 C 206.902344 231.8125 207.5 231.453125 207.90625 230.925781 C 208.332031 230.378906 208.542969 229.691406 208.523438 229 C 208.519531 228.808594 208.492188 228.613281 208.460938 228.425781 C 208.433594 228.265625 208.238281 228.175781 208.09375 228.214844 C 207.925781 228.261719 207.855469 228.425781 207.882812 228.585938 " fill-opacity="1" fill-rule="nonzero"/><path fill="#ffffff" d="M 149.621094 152.898438 L 122.097656 152.898438 C 120.949219 152.898438 119.960938 152.082031 119.738281 150.953125 L 117.085938 137.398438 C 116.792969 135.910156 117.929688 134.523438 119.445312 134.523438 L 144.046875 134.523438 C 145.195312 134.523438 146.183594 135.339844 146.40625 136.46875 L 149.621094 152.898438 " fill-opacity="1" fill-rule="nonzero"/><path fill="#180c45" d="M 123.59375 152.597656 C 123.25 152.597656 122.902344 152.597656 122.554688 152.597656 C 122.132812 152.597656 121.730469 152.609375 121.324219 152.453125 C 120.78125 152.246094 120.328125 151.785156 120.128906 151.238281 C 120.070312 151.078125 120.035156 150.914062 120.003906 150.75 C 119.785156 149.632812 119.566406 148.519531 119.347656 147.402344 C 118.992188 145.597656 118.640625 143.789062 118.285156 141.984375 C 118.015625 140.609375 117.75 139.234375 117.480469 137.855469 C 117.414062 137.515625 117.324219 137.171875 117.339844 136.820312 C 117.367188 136.242188 117.648438 135.703125 118.082031 135.324219 C 118.492188 134.964844 119.007812 134.824219 119.542969 134.824219 C 119.710938 134.824219 119.875 134.824219 120.042969 134.824219 C 120.429688 134.824219 120.429688 134.226562 120.042969 134.226562 C 119.585938 134.226562 119.121094 134.203125 118.675781 134.335938 C 118.027344 134.527344 117.464844 134.96875 117.121094 135.550781 C 116.773438 136.132812 116.671875 136.816406 116.796875 137.476562 C 116.808594 137.546875 116.824219 137.613281 116.835938 137.679688 C 117.078125 138.910156 117.320312 140.140625 117.558594 141.371094 C 117.925781 143.230469 118.289062 145.089844 118.652344 146.949219 C 118.902344 148.222656 119.148438 149.5 119.398438 150.773438 C 119.417969 150.855469 119.433594 150.941406 119.449219 151.027344 C 119.566406 151.601562 119.871094 152.140625 120.3125 152.523438 C 120.8125 152.957031 121.441406 153.191406 122.101562 153.199219 C 122.480469 153.199219 122.863281 153.199219 123.242188 153.199219 C 123.359375 153.199219 123.476562 153.199219 123.59375 153.199219 C 123.980469 153.199219 123.980469 152.597656 123.59375 152.597656 " fill-opacity="1" fill-rule="nonzero"/><path fill="#180c45" d="M 128.71875 143.710938 C 128.832031 144.300781 128.449219 144.773438 127.863281 144.773438 C 127.28125 144.773438 126.714844 144.300781 126.597656 143.710938 C 126.484375 143.125 126.867188 142.648438 127.453125 142.648438 C 128.039062 142.648438 128.605469 143.125 128.71875 143.710938 " fill-opacity="1" fill-rule="nonzero"/><path fill="#180c45" d="M 134.21875 143.710938 C 134.332031 144.300781 133.949219 144.773438 133.363281 144.773438 C 132.78125 144.773438 132.214844 144.300781 132.097656 143.710938 C 131.984375 143.125 132.367188 142.648438 132.953125 142.648438 C 133.539062 142.648438 134.105469 143.125 134.21875 143.710938 " fill-opacity="1" fill-rule="nonzero"/><path fill="#180c45" d="M 139.71875 143.710938 C 139.832031 144.300781 139.449219 144.773438 138.863281 144.773438 C 138.277344 144.773438 137.710938 144.300781 137.597656 143.710938 C 137.484375 143.125 137.867188 142.648438 138.453125 142.648438 C 139.039062 142.648438 139.605469 143.125 139.71875 143.710938 " fill-opacity="1" fill-rule="nonzero"/><path fill="#ffffff" d="M 150.25 156.113281 L 149.621094 152.898438 L 144.910156 150.425781 L 141.949219 152.898438 L 148.28125 157.390625 C 149.210938 158.050781 150.46875 157.238281 150.25 156.113281 " fill-opacity="1" fill-rule="nonzero"/><path fill="#180c45" d="M 188.238281 174.589844 L 146.09375 174.589844 C 144.378906 174.589844 143.382812 175.808594 143.714844 177.492188 L 147.371094 196.105469 L 147.710938 197.847656 C 147.929688 198.964844 149.492188 199.789062 150.183594 199.148438 L 153.484375 196.105469 L 193.871094 196.105469 C 195.585938 196.105469 196.582031 194.890625 196.25 193.203125 L 193.4375 178.878906 C 193 176.65625 190.496094 174.589844 188.238281 174.589844 " fill-opacity="1" fill-rule="nonzero"/><path fill="#a0a0b8" d="M 212.257812 195.710938 C 212.164062 194.960938 212.019531 194.21875 211.878906 193.476562 C 211.738281 192.734375 211.59375 191.992188 211.429688 191.253906 C 211.101562 189.789062 210.707031 188.324219 210.085938 186.953125 C 209.53125 185.71875 208.867188 184.507812 208.097656 183.394531 C 207.347656 182.304688 206.453125 181.3125 205.453125 180.445312 C 204.246094 179.402344 202.949219 178.460938 201.683594 177.496094 C 201.1875 177.117188 200.691406 176.742188 200.195312 176.363281 C 200.164062 176.332031 200.125 176.300781 200.082031 176.277344 C 199.996094 176.210938 199.90625 176.144531 199.820312 176.078125 C 199.636719 175.933594 199.433594 176.042969 199.359375 176.203125 C 198.910156 176.261719 198.460938 176.480469 198.089844 176.691406 C 197.589844 176.976562 197.167969 177.394531 196.796875 177.832031 C 196.382812 178.316406 196.011719 178.863281 195.746094 179.445312 C 195.519531 179.945312 195.355469 180.507812 195.476562 181.058594 C 195.714844 182.15625 196.710938 182.90625 197.597656 183.492188 C 198.5625 184.132812 199.546875 184.730469 200.449219 185.46875 C 201.386719 186.234375 202.265625 187.136719 202.832031 188.222656 C 203.472656 189.445312 203.621094 190.800781 203.570312 192.167969 C 203.515625 193.695312 203.230469 195.210938 202.824219 196.679688 C 202.617188 197.421875 202.367188 198.148438 202.183594 198.898438 C 202 199.652344 201.867188 200.417969 201.785156 201.1875 C 201.699219 201.988281 201.667969 202.796875 201.683594 203.601562 C 201.699219 204.363281 201.789062 205.113281 201.832031 205.871094 C 201.871094 206.597656 201.882812 207.332031 202.019531 208.050781 C 202.132812 208.652344 202.308594 209.332031 202.835938 209.703125 C 203.277344 210.011719 203.820312 210.070312 204.34375 210.015625 C 204.886719 209.964844 205.445312 209.824219 205.960938 209.652344 C 207.144531 209.253906 208.171875 208.472656 209.035156 207.589844 C 209.929688 206.675781 210.671875 205.597656 211.230469 204.445312 C 211.828125 203.207031 212.132812 201.855469 212.289062 200.492188 C 212.476562 198.90625 212.453125 197.292969 212.257812 195.710938 " fill-opacity="1" fill-rule="nonzero"/><path fill="#180c45" d="M 204.070312 193.09375 C 204.183594 192.988281 204.265625 192.925781 204.363281 192.855469 C 204.480469 192.773438 204.597656 192.695312 204.722656 192.625 C 204.847656 192.554688 204.976562 192.488281 205.109375 192.429688 C 205.195312 192.390625 205.199219 192.386719 205.261719 192.363281 C 205.339844 192.332031 205.417969 192.300781 205.496094 192.273438 C 206.097656 192.0625 206.667969 191.964844 207.28125 191.941406 C 207.921875 191.921875 208.476562 191.980469 209.085938 192.160156 C 209.394531 192.25 209.613281 192.335938 209.882812 192.480469 C 210.011719 192.550781 210.136719 192.625 210.257812 192.707031 C 210.394531 192.800781 210.445312 192.839844 210.570312 192.953125 C 211.070312 193.398438 211.367188 193.9375 211.503906 194.601562 C 211.535156 194.761719 211.722656 194.851562 211.871094 194.808594 C 212.035156 194.765625 212.113281 194.601562 212.078125 194.441406 C 211.945312 193.785156 211.628906 193.175781 211.164062 192.691406 C 210.707031 192.21875 210.125 191.886719 209.511719 191.667969 C 208.257812 191.222656 206.8125 191.238281 205.542969 191.628906 C 204.847656 191.84375 204.1875 192.179688 203.648438 192.671875 C 203.359375 192.929688 203.785156 193.355469 204.070312 193.09375 " fill-opacity="1" fill-rule="nonzero"/><path fill="#180c45" d="M 202.785156 198.859375 C 203.46875 198.675781 204.152344 198.628906 204.875 198.6875 C 205.589844 198.746094 206.328125 198.921875 207.019531 199.191406 C 208.351562 199.707031 209.59375 200.636719 210.292969 201.898438 C 210.6875 202.621094 210.878906 203.425781 210.859375 204.253906 C 210.851562 204.640625 211.449219 204.640625 211.457031 204.253906 C 211.496094 202.625 210.753906 201.113281 209.550781 200.039062 C 208.34375 198.964844 206.789062 198.316406 205.191406 198.121094 C 204.339844 198.015625 203.460938 198.058594 202.625 198.28125 C 202.253906 198.378906 202.410156 198.957031 202.785156 198.859375 " fill-opacity="1" fill-rule="nonzero"/><path fill="#180c45" d="M 202.222656 186.507812 C 202.539062 185.578125 203.160156 184.800781 204 184.320312 C 204.796875 183.863281 205.710938 183.695312 206.628906 183.757812 C 207.125 183.796875 207.640625 183.917969 208.125 184.113281 C 208.277344 184.175781 208.453125 184.050781 208.492188 183.90625 C 208.539062 183.734375 208.433594 183.597656 208.285156 183.539062 C 206.390625 182.769531 203.992188 183.128906 202.597656 184.6875 C 202.167969 185.171875 201.855469 185.738281 201.648438 186.347656 C 201.523438 186.714844 202.101562 186.871094 202.222656 186.507812 " fill-opacity="1" fill-rule="nonzero"/><path fill="#180c45" d="M 200.710938 175.210938 C 199.011719 172.253906 194.785156 171.613281 192.496094 174.273438 C 190.863281 176.171875 190.5625 179.390625 191.480469 181.671875 C 192.292969 183.683594 194.359375 184.960938 196.53125 184.722656 C 199.605469 184.386719 201.535156 181.535156 201.566406 178.59375 C 201.578125 177.394531 201.285156 176.210938 200.710938 175.210938 " fill-opacity="1" fill-rule="nonzero"/><path fill="#ffffff" d="M 196.265625 175.101562 C 194.953125 171.527344 190.84375 169.609375 189.15625 169.171875 C 184.636719 168 178.820312 167.757812 173.0625 167.726562 C 169.519531 167.707031 153.625 167.675781 150.335938 168.652344 C 145.660156 170.039062 144.339844 174.648438 144.039062 177.421875 C 143.75 180.074219 143.925781 183.785156 145.304688 186.289062 C 146.648438 188.730469 148.003906 190.496094 150.59375 191.429688 C 155.523438 193.210938 163.03125 193.019531 168.777344 193.015625 C 173.3125 193.007812 177.847656 192.945312 182.375 192.707031 C 186.082031 192.515625 190.539062 192.625 193.65625 190.253906 C 194.527344 189.597656 195.210938 188.730469 195.730469 187.773438 C 197.734375 184.078125 197.699219 178.996094 196.265625 175.101562 " fill-opacity="1" fill-rule="nonzero"/><path fill="#a0a0b8" d="M 179.613281 183.578125 C 178.816406 181.875 176.351562 181.324219 174.664062 182.429688 C 172.660156 183.746094 172.546875 187.765625 175.265625 188.523438 C 178.175781 189.332031 180.832031 186.1875 179.613281 183.578125 " fill-opacity="1" fill-rule="nonzero"/><path fill="#a0a0b8" d="M 181.113281 162 C 178.414062 161.3125 175.640625 160.832031 172.851562 160.824219 C 172.644531 160.820312 172.496094 161.054688 172.515625 161.242188 C 172.539062 161.46875 172.730469 161.578125 172.933594 161.578125 C 173.003906 161.578125 173.070312 161.582031 173.140625 161.582031 C 173.109375 161.621094 173.089844 161.671875 173.082031 161.734375 C 173.015625 162.574219 172.824219 163.691406 172.703125 164.523438 C 172.511719 165.84375 172.074219 168.726562 172.253906 169.574219 C 172.480469 170.644531 173.089844 171.636719 174.164062 172.007812 C 175.425781 172.441406 176.8125 172.492188 178.09375 172.121094 C 179.300781 171.769531 179.925781 170.890625 180.183594 169.679688 C 180.683594 167.332031 181.015625 164.992188 181.429688 162.429688 C 181.464844 162.214844 181.292969 162.046875 181.113281 162 " fill-opacity="1" fill-rule="nonzero"/><path fill="#180c45" d="M 150.816406 175.210938 C 149.117188 172.253906 144.890625 171.613281 142.601562 174.273438 C 140.96875 176.171875 140.667969 179.390625 141.585938 181.671875 C 142.398438 183.683594 144.464844 184.960938 146.636719 184.722656 C 149.710938 184.386719 151.640625 181.535156 151.671875 178.59375 C 151.683594 177.394531 151.390625 176.210938 150.816406 175.210938 " fill-opacity="1" fill-rule="nonzero"/><path fill="#180c45" d="M 171.617188 168.675781 C 171.902344 170.800781 173.761719 172.449219 175.839844 172.746094 C 176.457031 172.832031 177.078125 172.8125 177.6875 172.671875 C 178.058594 172.589844 177.902344 172.011719 177.527344 172.09375 C 175.6875 172.511719 173.660156 171.652344 172.703125 170.015625 C 172.433594 169.554688 172.265625 169.046875 172.191406 168.515625 C 172.171875 168.355469 171.964844 168.269531 171.824219 168.308594 C 171.652344 168.355469 171.59375 168.515625 171.617188 168.675781 " fill-opacity="1" fill-rule="nonzero"/><path fill="#180c45" d="M 148.261719 189.871094 C 150.160156 189.648438 151.800781 188.519531 152.992188 187.058594 C 154.097656 185.707031 154.816406 184.128906 155.171875 182.425781 C 155.503906 180.847656 155.589844 179.210938 155.453125 177.605469 C 155.3125 175.9375 154.933594 174.285156 154.222656 172.761719 C 153.550781 171.316406 152.542969 170.011719 151.210938 169.117188 C 151.046875 169.007812 150.878906 168.90625 150.710938 168.8125 C 150.375 168.621094 150.074219 169.140625 150.410156 169.328125 C 151.722656 170.066406 152.730469 171.207031 153.441406 172.535156 C 154.175781 173.902344 154.601562 175.460938 154.792969 176.992188 C 154.980469 178.539062 154.960938 180.144531 154.710938 181.660156 C 154.589844 182.375 154.425781 183.09375 154.183594 183.78125 C 153.898438 184.585938 153.492188 185.355469 153.003906 186.058594 C 152.011719 187.488281 150.59375 188.734375 148.875 189.160156 C 148.671875 189.210938 148.46875 189.25 148.261719 189.273438 C 148.101562 189.292969 147.964844 189.398438 147.964844 189.574219 C 147.964844 189.71875 148.101562 189.890625 148.261719 189.871094 " fill-opacity="1" fill-rule="nonzero"/><path fill="#180c45" d="M 163.765625 168.429688 C 165.0625 170.929688 166.460938 173.367188 167.824219 175.828125 C 168.363281 176.800781 168.96875 177.804688 169.847656 178.503906 C 170.285156 178.851562 170.773438 179.121094 171.3125 179.261719 C 171.636719 179.347656 171.972656 179.378906 172.304688 179.40625 C 172.707031 179.445312 173.113281 179.476562 173.515625 179.503906 C 175.191406 179.617188 176.867188 179.660156 178.542969 179.679688 C 179.65625 179.691406 180.808594 179.757812 181.90625 179.511719 C 182.398438 179.402344 182.886719 179.210938 183.289062 178.90625 C 183.75 178.5625 184.074219 178.105469 184.285156 177.570312 C 184.40625 177.265625 184.492188 176.9375 184.582031 176.621094 C 184.699219 176.203125 184.808594 175.785156 184.921875 175.371094 C 185.4375 173.441406 185.929688 171.507812 186.433594 169.578125 C 186.46875 169.433594 186.507812 169.285156 186.546875 169.136719 C 186.644531 168.765625 186.070312 168.605469 185.972656 168.976562 C 185.496094 170.777344 185.039062 172.585938 184.566406 174.386719 C 184.347656 175.203125 184.132812 176.023438 183.898438 176.832031 C 183.785156 177.214844 183.664062 177.585938 183.433594 177.917969 C 183.183594 178.277344 182.796875 178.5625 182.414062 178.726562 C 181.484375 179.125 180.441406 179.097656 179.441406 179.089844 C 177.882812 179.074219 176.320312 179.050781 174.765625 178.976562 C 173.953125 178.9375 173.140625 178.882812 172.332031 178.8125 C 171.773438 178.761719 171.25 178.671875 170.761719 178.402344 C 169.84375 177.898438 169.207031 177.003906 168.679688 176.113281 C 168.394531 175.636719 168.132812 175.144531 167.867188 174.65625 C 167.546875 174.066406 167.210938 173.492188 166.882812 172.910156 C 166.179688 171.671875 165.492188 170.429688 164.824219 169.171875 C 164.644531 168.824219 164.460938 168.476562 164.28125 168.128906 C 164.101562 167.785156 163.585938 168.089844 163.765625 168.429688 " fill-opacity="1" fill-rule="nonzero"/><path fill="#a0a0b8" d="M 171.550781 213.734375 C 171.554688 213.734375 171.558594 213.734375 171.5625 213.730469 C 171.566406 213.730469 171.566406 213.730469 171.566406 213.730469 C 171.566406 213.730469 171.570312 213.730469 171.570312 213.726562 C 171.570312 213.726562 171.574219 213.726562 171.574219 213.726562 C 171.578125 213.726562 171.582031 213.722656 171.585938 213.722656 C 171.585938 213.71875 171.585938 213.71875 171.585938 213.71875 C 171.589844 213.71875 171.589844 213.71875 171.589844 213.71875 C 171.59375 213.714844 171.597656 213.714844 171.597656 213.710938 C 171.601562 213.707031 171.605469 213.703125 171.613281 213.695312 C 171.601562 213.703125 171.59375 213.710938 171.589844 213.714844 C 171.597656 213.699219 171.578125 213.714844 171.566406 213.726562 C 171.550781 213.730469 171.527344 213.730469 171.527344 213.734375 C 171.539062 213.730469 171.550781 213.730469 171.550781 213.734375 " fill-opacity="1" fill-rule="nonzero"/><path fill="#ffffff" d="M 176.65625 205.5625 C 176.839844 205.160156 177.019531 204.738281 177.109375 204.308594 C 177.324219 203.292969 177.097656 201.257812 175.75 201.140625 C 174.371094 201.019531 173.015625 201.988281 172.089844 202.90625 C 170.9375 204.046875 169.816406 205.792969 170.003906 207.445312 C 170.109375 208.398438 170.625 209.15625 171.382812 209.535156 C 172.136719 209.914062 173.113281 209.816406 173.917969 209.289062 C 174.726562 208.757812 175.367188 207.867188 175.886719 207.011719 C 176.167969 206.542969 176.429688 206.058594 176.65625 205.5625 " fill-opacity="1" fill-rule="nonzero"/><path fill="#a0a0b8" d="M 173.707031 213.3125 C 174.277344 212.59375 172.535156 212.605469 172.585938 211.691406 C 172.636719 210.757812 172.476562 209.800781 172.191406 208.910156 C 172.148438 208.773438 172.097656 208.640625 172.042969 208.511719 C 171.902344 208.296875 171.726562 208.101562 171.539062 207.933594 C 170.066406 206.628906 167.925781 207.554688 166.300781 207.980469 C 165.511719 208.183594 164.652344 208.308594 163.828125 208.425781 C 162.953125 208.550781 162.070312 208.644531 161.1875 208.707031 C 159.417969 208.828125 157.660156 208.808594 155.90625 208.5625 C 149.976562 207.726562 145.710938 203.738281 144.886719 197.714844 C 144.332031 193.695312 145.242188 189.628906 146.277344 185.707031 C 146.667969 184.226562 147.082031 182.707031 146.925781 181.179688 C 146.769531 179.65625 145.90625 178.097656 144.464844 177.59375 C 143.125 177.125 141.589844 177.675781 140.5625 178.652344 C 139.53125 179.628906 138.921875 180.96875 138.4375 182.300781 C 135.496094 190.402344 134.90625 201.746094 140.21875 209.054688 C 141.375 210.640625 142.835938 211.984375 144.472656 213.054688 C 146.15625 214.148438 147.996094 214.980469 149.886719 215.640625 C 155.800781 217.699219 162.761719 218.164062 168.664062 215.878906 C 169.664062 215.496094 172.179688 214.410156 173.375 213.929688 C 173.542969 213.792969 173.5625 213.496094 173.707031 213.3125 " fill-opacity="1" fill-rule="nonzero"/><path fill="#180c45" d="M 143.179688 211.261719 C 143.15625 209.109375 143.804688 206.617188 145.691406 205.355469 C 146.230469 204.996094 146.828125 204.769531 147.460938 204.652344 C 147.621094 204.625 147.710938 204.429688 147.671875 204.285156 C 147.625 204.117188 147.464844 204.046875 147.304688 204.074219 C 146.117188 204.292969 145.039062 204.921875 144.265625 205.851562 C 143.492188 206.789062 143.015625 207.9375 142.777344 209.121094 C 142.636719 209.824219 142.574219 210.542969 142.582031 211.261719 C 142.585938 211.648438 143.183594 211.648438 143.179688 211.261719 " fill-opacity="1" fill-rule="nonzero"/><path fill="#180c45" d="M 137.429688 200.566406 C 137.605469 200.039062 137.910156 199.558594 138.308594 199.160156 C 138.714844 198.757812 139.1875 198.449219 139.726562 198.210938 C 139.945312 198.113281 140.238281 198.011719 140.5 197.9375 C 140.644531 197.898438 140.792969 197.863281 140.9375 197.835938 C 141 197.820312 141.066406 197.808594 141.132812 197.800781 C 141.164062 197.792969 141.195312 197.789062 141.230469 197.785156 C 141.292969 197.773438 141.269531 197.777344 141.3125 197.773438 C 141.585938 197.738281 141.863281 197.722656 142.140625 197.726562 C 142.28125 197.726562 142.417969 197.734375 142.558594 197.746094 C 142.714844 197.757812 142.746094 197.761719 142.894531 197.789062 C 143.167969 197.835938 143.433594 197.910156 143.691406 198.011719 C 143.695312 198.011719 143.738281 198.03125 143.707031 198.015625 C 143.675781 198.003906 143.726562 198.027344 143.730469 198.027344 C 143.761719 198.042969 143.796875 198.058594 143.828125 198.074219 C 143.882812 198.101562 143.941406 198.132812 143.996094 198.164062 C 144.046875 198.191406 144.097656 198.222656 144.148438 198.253906 C 144.175781 198.273438 144.199219 198.292969 144.226562 198.3125 C 144.238281 198.320312 144.246094 198.328125 144.257812 198.335938 C 144.292969 198.363281 144.203125 198.292969 144.265625 198.339844 C 144.390625 198.441406 144.5625 198.464844 144.6875 198.339844 C 144.789062 198.234375 144.8125 198.019531 144.6875 197.917969 C 143.816406 197.210938 142.605469 197.050781 141.519531 197.148438 C 140.253906 197.265625 138.996094 197.730469 138.042969 198.589844 C 137.496094 199.082031 137.085938 199.707031 136.851562 200.40625 C 136.730469 200.773438 137.308594 200.929688 137.429688 200.566406 " fill-opacity="1" fill-rule="nonzero"/><path fill="#180c45" d="M 137.023438 190.867188 C 137.296875 190.398438 137.679688 190.023438 138.144531 189.75 C 138.625 189.464844 139.15625 189.296875 139.730469 189.207031 C 140.25 189.125 140.917969 189.128906 141.441406 189.203125 C 142.015625 189.28125 142.625 189.445312 143.121094 189.671875 C 143.699219 189.929688 144.1875 190.246094 144.601562 190.703125 C 144.859375 190.988281 145.28125 190.5625 145.023438 190.277344 C 144.195312 189.367188 142.96875 188.851562 141.777344 188.652344 C 140.511719 188.441406 139.148438 188.535156 138 189.144531 C 137.382812 189.472656 136.859375 189.960938 136.507812 190.5625 C 136.3125 190.898438 136.828125 191.199219 137.023438 190.867188 " fill-opacity="1" fill-rule="nonzero"/><path fill="#180c45" d="M 153.523438 208.453125 C 153 210.386719 152.625 212.367188 152.488281 214.371094 C 152.445312 214.945312 152.425781 215.519531 152.425781 216.097656 C 152.425781 216.484375 153.023438 216.484375 153.023438 216.097656 C 153.027344 214.128906 153.269531 212.171875 153.695312 210.25 C 153.816406 209.699219 153.953125 209.152344 154.101562 208.609375 C 154.199219 208.238281 153.625 208.078125 153.523438 208.453125 " fill-opacity="1" fill-rule="nonzero"/><path fill="#180c45" d="M 162.21875 209.15625 C 162.667969 211.109375 162.671875 213.183594 162.3125 215.148438 C 162.210938 215.6875 162.082031 216.222656 161.917969 216.746094 C 161.804688 217.113281 162.378906 217.273438 162.496094 216.90625 C 163.113281 214.933594 163.289062 212.792969 163.078125 210.742188 C 163.019531 210.15625 162.925781 209.574219 162.796875 209 C 162.707031 208.625 162.132812 208.78125 162.21875 209.15625 " fill-opacity="1" fill-rule="nonzero"/><path fill="#180c45" d="M 206.027344 186.003906 L 202.167969 217.148438 C 202.070312 217.953125 201.390625 218.554688 200.585938 218.554688 L 175.304688 218.554688 C 174.347656 218.554688 173.601562 217.710938 173.722656 216.753906 L 177.578125 185.609375 C 177.679688 184.804688 178.359375 184.203125 179.164062 184.203125 L 204.441406 184.203125 C 205.402344 184.203125 206.144531 185.046875 206.027344 186.003906 " fill-opacity="1" fill-rule="nonzero"/><path fill="#ffffff" d="M 181.113281 206.945312 C 180.703125 205.128906 178.296875 204.90625 176.78125 205.007812 C 174.777344 205.140625 169.976562 207.351562 170.363281 209.941406 C 170.507812 210.910156 171.328125 211.523438 172.257812 211.660156 C 174.28125 211.953125 176.320312 210.792969 178.128906 210.058594 C 179.414062 209.535156 181.515625 208.734375 181.113281 206.945312 " fill-opacity="1" fill-rule="nonzero"/><path fill="#ffffff" d="M 177.925781 210.65625 C 176.089844 210.40625 173.960938 209.84375 172.105469 210.496094 C 171.253906 210.800781 170.589844 211.480469 170.628906 212.328125 C 170.730469 214.585938 175.652344 215.472656 177.5625 215.183594 C 179.011719 214.960938 181.242188 214.289062 181.300781 212.671875 C 181.359375 211.085938 179.234375 210.835938 177.925781 210.65625 " fill-opacity="1" fill-rule="nonzero"/><path fill="#ffffff" d="M 199.886719 210.058594 C 201.402344 210.792969 203.113281 211.953125 204.808594 211.660156 C 205.589844 211.523438 206.277344 210.910156 206.398438 209.941406 C 206.722656 207.351562 203.585938 205.726562 201.015625 205.007812 C 199.789062 204.664062 197.726562 205.128906 197.382812 206.945312 C 197.042969 208.734375 198.804688 209.535156 199.886719 210.058594 " fill-opacity="1" fill-rule="nonzero"/><path fill="#ffffff" d="M 196.914062 211.339844 C 196.632812 212.929688 198.285156 214.09375 199.46875 214.4375 C 202.191406 215.234375 205.203125 215.03125 205.746094 212.839844 C 205.949219 212.019531 205.542969 211.234375 204.90625 210.792969 C 203.519531 209.832031 201.65625 210.015625 200.097656 209.949219 C 198.984375 209.898438 197.191406 209.773438 196.914062 211.339844 " fill-opacity="1" fill-rule="nonzero"/><path fill="#ffffff" d="M 195.269531 147.625 C 194.328125 145.78125 192.976562 144.179688 191.246094 143.144531 C 186.96875 140.59375 181.953125 140.542969 176.960938 140.394531 C 171.902344 140.242188 166.046875 140.082031 161.71875 142.972656 C 159.890625 144.191406 158.480469 145.910156 157.597656 147.929688 C 155.027344 153.8125 155.996094 160.847656 161.585938 164.605469 C 166.492188 167.902344 170.585938 168.515625 176.398438 168.675781 C 181.796875 168.820312 190.558594 167.535156 193.511719 164.820312 C 195.394531 163.089844 196.5625 157.640625 196.78125 155.027344 C 196.976562 152.625 196.449219 149.9375 195.269531 147.625 " fill-opacity="1" fill-rule="nonzero"/><path fill="#ffffff" d="M 159.957031 152.796875 C 159.777344 152.246094 159.535156 151.726562 159.246094 151.28125 C 158.730469 150.488281 157.78125 149.695312 156.734375 150.011719 C 155.816406 150.289062 155.195312 151.207031 154.871094 151.996094 C 154.324219 153.324219 154.25 154.804688 154.480469 156.238281 C 155.023438 159.617188 158.21875 161.824219 159.699219 158.398438 C 160.371094 156.84375 160.539062 154.578125 159.957031 152.796875 " fill-opacity="1" fill-rule="nonzero"/><path fill="#180c45" d="M 158.023438 160.382812 C 158.75 160.261719 159.3125 159.710938 159.679688 159.09375 C 160.128906 158.34375 160.375 157.457031 160.503906 156.59375 C 160.773438 154.757812 160.550781 152.785156 159.542969 151.191406 C 159.019531 150.363281 158.148438 149.59375 157.113281 149.644531 C 156.730469 149.660156 156.726562 150.261719 157.113281 150.242188 C 157.875 150.207031 158.527344 150.757812 158.9375 151.359375 C 159.417969 152.058594 159.726562 152.878906 159.882812 153.710938 C 160.035156 154.519531 160.046875 155.359375 159.960938 156.175781 C 159.875 156.9375 159.695312 157.722656 159.363281 158.417969 C 159.1875 158.789062 158.964844 159.144531 158.65625 159.421875 C 158.421875 159.632812 158.175781 159.753906 157.863281 159.808594 C 157.703125 159.835938 157.613281 160.03125 157.652344 160.175781 C 157.699219 160.34375 157.863281 160.410156 158.023438 160.382812 " fill-opacity="1" fill-rule="nonzero"/><path fill="#180c45" d="M 162.796875 164.648438 C 161.746094 162.792969 161.265625 160.664062 161.332031 158.535156 C 161.375 157.097656 161.683594 155.652344 162.292969 154.347656 C 162.902344 153.042969 163.789062 151.890625 164.875 150.949219 C 166.0625 149.925781 167.476562 149.171875 168.957031 148.664062 C 170.71875 148.054688 172.574219 147.777344 174.429688 147.714844 C 175.957031 147.664062 177.484375 147.652344 179.015625 147.648438 C 180.699219 147.644531 182.382812 147.644531 184.066406 147.683594 C 185.816406 147.722656 187.570312 147.828125 189.28125 148.214844 C 190.726562 148.542969 192.125 149.074219 193.328125 149.949219 C 194.347656 150.691406 195.167969 151.679688 195.820312 152.761719 C 195.988281 153.046875 196.148438 153.335938 196.296875 153.628906 C 196.476562 153.972656 196.992188 153.671875 196.8125 153.328125 C 196.199219 152.136719 195.441406 151.007812 194.449219 150.097656 C 193.367188 149.105469 192.0625 148.421875 190.671875 147.972656 C 188.855469 147.386719 186.921875 147.183594 185.019531 147.109375 C 183.441406 147.050781 181.855469 147.050781 180.273438 147.046875 C 178.578125 147.046875 176.878906 147.054688 175.183594 147.09375 C 173.382812 147.136719 171.59375 147.292969 169.851562 147.761719 C 168.222656 148.199219 166.644531 148.886719 165.273438 149.878906 C 164.042969 150.769531 162.984375 151.894531 162.210938 153.210938 C 161.449219 154.519531 160.992188 155.980469 160.8125 157.480469 C 160.574219 159.480469 160.824219 161.566406 161.5625 163.4375 C 161.765625 163.957031 162.003906 164.464844 162.28125 164.949219 C 162.472656 165.285156 162.988281 164.984375 162.796875 164.648438 " fill-opacity="1" fill-rule="nonzero"/><path fill="#180c45" d="M 164.960938 141.875 C 166.617188 142.964844 167.828125 144.601562 168.410156 146.5 C 168.570312 147.019531 168.6875 147.550781 168.757812 148.089844 C 168.777344 148.25 168.878906 148.386719 169.054688 148.386719 C 169.203125 148.386719 169.375 148.25 169.355469 148.089844 C 169.082031 146.007812 168.222656 144.035156 166.730469 142.542969 C 166.285156 142.097656 165.789062 141.703125 165.261719 141.355469 C 164.941406 141.144531 164.640625 141.664062 164.960938 141.875 " fill-opacity="1" fill-rule="nonzero"/><path fill="#180c45" d="M 171.414062 207.421875 C 171.9375 206.980469 172.484375 206.5625 173.070312 206.207031 C 173.660156 205.84375 174.289062 205.546875 174.925781 205.277344 C 175.074219 205.214844 175.179688 205.078125 175.136719 204.90625 C 175.097656 204.769531 174.917969 204.636719 174.765625 204.699219 C 174.082031 204.988281 173.402344 205.300781 172.765625 205.6875 C 172.140625 206.074219 171.554688 206.523438 170.992188 206.996094 C 170.867188 207.101562 170.886719 207.3125 170.992188 207.421875 C 171.113281 207.542969 171.289062 207.523438 171.414062 207.421875 " fill-opacity="1" fill-rule="nonzero"/><path fill="#180c45" d="M 171.203125 212 C 171.863281 212.101562 172.539062 212.089844 173.199219 212.050781 C 174.058594 212 174.914062 211.894531 175.753906 211.710938 C 176.191406 211.617188 176.628906 211.5 177.046875 211.34375 C 177.199219 211.285156 177.300781 211.140625 177.257812 210.972656 C 177.21875 210.828125 177.042969 210.707031 176.890625 210.765625 C 176.148438 211.042969 175.367188 211.203125 174.585938 211.3125 C 173.820312 211.421875 173.046875 211.480469 172.277344 211.476562 C 172.101562 211.476562 171.925781 211.472656 171.753906 211.460938 C 171.679688 211.457031 171.605469 211.449219 171.53125 211.441406 C 171.496094 211.4375 171.457031 211.4375 171.421875 211.429688 C 171.410156 211.429688 171.394531 211.429688 171.382812 211.425781 C 171.453125 211.4375 171.371094 211.425781 171.363281 211.425781 C 171.203125 211.398438 171.042969 211.464844 170.996094 211.632812 C 170.957031 211.773438 171.042969 211.976562 171.203125 212 " fill-opacity="1" fill-rule="nonzero"/><path fill="#180c45" d="M 199.285156 210.589844 C 200.179688 211.054688 201.132812 211.417969 202.105469 211.679688 C 203.105469 211.953125 204.152344 212.121094 205.195312 212.085938 C 205.578125 212.070312 205.578125 211.472656 205.195312 211.484375 C 204.203125 211.519531 203.21875 211.359375 202.261719 211.101562 C 201.339844 210.855469 200.4375 210.515625 199.589844 210.074219 C 199.246094 209.894531 198.945312 210.414062 199.285156 210.589844 " fill-opacity="1" fill-rule="nonzero"/><path fill="#180c45" d="M 186.089844 141.738281 C 186.148438 141.78125 186.054688 141.710938 186.089844 141.742188 C 186.105469 141.753906 186.121094 141.765625 186.136719 141.777344 C 186.160156 141.796875 186.1875 141.820312 186.210938 141.839844 C 186.277344 141.894531 186.339844 141.949219 186.402344 142.007812 C 186.542969 142.140625 186.675781 142.277344 186.808594 142.417969 C 187.117188 142.75 187.40625 143.101562 187.675781 143.464844 C 188.292969 144.3125 188.835938 145.242188 189.171875 146.238281 C 189.363281 146.796875 189.488281 147.375 189.496094 147.964844 C 189.5 148.351562 190.097656 148.351562 190.09375 147.964844 C 190.074219 146.820312 189.679688 145.710938 189.152344 144.703125 C 188.664062 143.769531 188.042969 142.886719 187.335938 142.105469 C 187.042969 141.785156 186.734375 141.484375 186.390625 141.222656 C 186.261719 141.125 186.058594 141.203125 185.984375 141.332031 C 185.894531 141.484375 185.960938 141.640625 186.089844 141.738281 " fill-opacity="1" fill-rule="nonzero"/><path fill="#a0a0b8" d="M 186.898438 184.203125 C 186.953125 184.894531 187.019531 185.707031 187.035156 185.871094 C 187.0625 186.164062 187.082031 186.472656 187.15625 186.753906 C 187.171875 186.820312 187.21875 186.871094 187.273438 186.898438 C 187.308594 186.929688 187.355469 186.953125 187.417969 186.953125 C 188.886719 187 190.371094 186.976562 191.851562 186.976562 L 194.042969 186.976562 C 194.785156 186.976562 195.53125 186.960938 196.273438 186.960938 C 196.539062 186.960938 196.714844 186.671875 196.753906 186.59375 C 197.148438 185.78125 197.511719 184.992188 197.867188 184.203125 L 186.898438 184.203125 " fill-opacity="1" fill-rule="nonzero"/><path fill="#180c45" d="M 196.992188 159.25 C 196.914062 164.738281 192.472656 169.1875 184.777344 169.1875 L 174.859375 169.1875 C 167 169.1875 162.574219 164.738281 162.65625 159.25 C 162.734375 153.761719 167.390625 149.3125 175.429688 149.3125 L 184.382812 149.3125 C 193.664062 149.3125 197.074219 153.761719 196.992188 159.25 " fill-opacity="1" fill-rule="nonzero"/><path fill="#40c79a" d="M 175.34375 161.320312 C 175.257812 162.070312 175.074219 162.835938 174.710938 163.496094 C 174.390625 164.078125 173.921875 164.574219 173.324219 164.828125 C 172.675781 165.105469 171.878906 165.144531 171.21875 164.914062 C 170.6875 164.726562 170.308594 164.285156 170.121094 163.757812 C 169.886719 163.078125 169.882812 162.355469 169.941406 161.632812 C 170 160.875 170.140625 160.082031 170.433594 159.390625 C 170.695312 158.769531 171.085938 158.230469 171.65625 157.910156 C 172.242188 157.578125 173.027344 157.5 173.691406 157.65625 C 173.851562 157.691406 174.015625 157.746094 174.136719 157.804688 C 174.203125 157.835938 174.269531 157.871094 174.332031 157.910156 C 174.363281 157.929688 174.394531 157.949219 174.425781 157.96875 C 174.4375 157.976562 174.515625 158.035156 174.492188 158.015625 C 174.746094 158.21875 174.898438 158.417969 175.042969 158.703125 C 175.179688 158.96875 175.273438 159.289062 175.328125 159.613281 C 175.386719 159.949219 175.398438 160.335938 175.386719 160.699219 C 175.382812 160.90625 175.367188 161.113281 175.34375 161.320312 C 175.324219 161.480469 175.492188 161.621094 175.640625 161.621094 C 175.816406 161.621094 175.921875 161.480469 175.941406 161.320312 C 176.097656 159.863281 175.910156 157.953125 174.394531 157.265625 C 173.636719 156.921875 172.703125 156.894531 171.917969 157.148438 C 171.171875 157.390625 170.578125 157.910156 170.175781 158.578125 C 169.746094 159.292969 169.535156 160.125 169.421875 160.945312 C 169.304688 161.792969 169.25 162.671875 169.433594 163.515625 C 169.585938 164.210938 169.941406 164.867188 170.558594 165.253906 C 171.253906 165.695312 172.175781 165.734375 172.960938 165.566406 C 173.75 165.398438 174.421875 164.933594 174.90625 164.296875 C 175.40625 163.636719 175.6875 162.828125 175.835938 162.019531 C 175.882812 161.789062 175.914062 161.554688 175.941406 161.320312 C 175.957031 161.160156 175.789062 161.019531 175.640625 161.019531 C 175.464844 161.019531 175.359375 161.15625 175.34375 161.320312 " fill-opacity="1" fill-rule="nonzero"/><path fill="#40c79a" d="M 192.460938 161.320312 C 192.375 162.070312 192.191406 162.835938 191.828125 163.496094 C 191.511719 164.078125 191.039062 164.574219 190.441406 164.828125 C 189.792969 165.105469 188.996094 165.144531 188.335938 164.914062 C 187.804688 164.726562 187.425781 164.285156 187.242188 163.757812 C 187.003906 163.078125 187 162.355469 187.058594 161.632812 C 187.121094 160.875 187.261719 160.082031 187.550781 159.390625 C 187.8125 158.769531 188.203125 158.230469 188.773438 157.910156 C 189.363281 157.578125 190.144531 157.5 190.8125 157.65625 C 190.96875 157.691406 191.132812 157.746094 191.253906 157.804688 C 191.320312 157.835938 191.386719 157.871094 191.453125 157.910156 C 191.484375 157.929688 191.515625 157.949219 191.542969 157.96875 C 191.554688 157.976562 191.636719 158.035156 191.609375 158.015625 C 191.863281 158.21875 192.015625 158.417969 192.160156 158.703125 C 192.296875 158.96875 192.390625 159.289062 192.445312 159.613281 C 192.503906 159.949219 192.519531 160.335938 192.507812 160.699219 C 192.5 160.90625 192.484375 161.113281 192.460938 161.320312 C 192.445312 161.480469 192.609375 161.621094 192.761719 161.621094 C 192.9375 161.621094 193.042969 161.480469 193.058594 161.320312 C 193.214844 159.863281 193.03125 157.953125 191.511719 157.265625 C 190.753906 156.921875 189.824219 156.894531 189.035156 157.148438 C 188.289062 157.390625 187.695312 157.910156 187.292969 158.578125 C 186.867188 159.292969 186.652344 160.125 186.539062 160.945312 C 186.421875 161.792969 186.371094 162.671875 186.554688 163.515625 C 186.703125 164.210938 187.0625 164.867188 187.675781 165.253906 C 188.371094 165.695312 189.292969 165.734375 190.078125 165.566406 C 190.867188 165.398438 191.539062 164.933594 192.023438 164.296875 C 192.523438 163.636719 192.804688 162.828125 192.957031 162.019531 C 193 161.789062 193.03125 161.554688 193.058594 161.320312 C 193.078125 161.160156 192.910156 161.019531 192.761719 161.019531 C 192.582031 161.019531 192.480469 161.15625 192.460938 161.320312 " fill-opacity="1" fill-rule="nonzero"/><path fill="#40c79a" d="M 182.074219 165.335938 C 181.699219 165.335938 181.328125 165.335938 180.953125 165.335938 C 180.5625 165.335938 180.148438 165.371094 179.757812 165.324219 C 179.121094 165.25 178.574219 164.804688 178.390625 164.199219 C 178.339844 164.035156 178.3125 163.882812 178.3125 163.714844 C 178.308594 163.617188 178.3125 163.519531 178.324219 163.425781 C 178.3125 163.503906 178.328125 163.414062 178.339844 163.382812 C 178.351562 163.34375 178.371094 163.304688 178.394531 163.273438 C 178.484375 163.148438 178.617188 163.101562 178.765625 163.097656 C 179.566406 163.09375 180.367188 163.097656 181.167969 163.097656 C 182.027344 163.097656 182.882812 163.097656 183.742188 163.097656 C 183.816406 163.097656 183.90625 163.09375 183.972656 163.117188 C 184.265625 163.226562 184.15625 163.605469 184.074219 163.851562 C 183.859375 164.523438 183.285156 165.070312 182.605469 165.261719 C 182.429688 165.308594 182.257812 165.332031 182.074219 165.335938 C 181.691406 165.339844 181.6875 165.9375 182.074219 165.933594 C 182.960938 165.925781 183.777344 165.460938 184.289062 164.742188 C 184.542969 164.382812 184.703125 163.960938 184.753906 163.523438 C 184.804688 163.078125 184.535156 162.640625 184.09375 162.53125 C 183.835938 162.464844 183.53125 162.5 183.265625 162.5 C 182.75 162.5 182.234375 162.5 181.71875 162.5 C 180.761719 162.5 179.800781 162.5 178.84375 162.5 C 178.707031 162.5 178.570312 162.5 178.4375 162.542969 C 177.964844 162.695312 177.730469 163.117188 177.714844 163.59375 C 177.683594 164.410156 178.097656 165.207031 178.804688 165.621094 C 179.304688 165.917969 179.847656 165.933594 180.410156 165.933594 C 180.925781 165.933594 181.441406 165.933594 181.957031 165.933594 C 181.996094 165.933594 182.035156 165.933594 182.074219 165.933594 C 182.457031 165.933594 182.457031 165.335938 182.074219 165.335938 " fill-opacity="1" fill-rule="nonzero"/><path fill="#180c45" d="M 231.5 150.703125 C 231.519531 150.617188 231.53125 150.527344 231.53125 150.433594 C 231.53125 149.8125 231.035156 149.3125 230.417969 149.3125 C 229.800781 149.3125 229.300781 149.8125 229.300781 150.433594 C 229.300781 150.484375 229.304688 150.539062 229.3125 150.589844 C 228.984375 150.878906 228.777344 151.300781 228.777344 151.769531 C 228.777344 152.640625 229.480469 153.34375 230.347656 153.34375 C 231.214844 153.34375 231.917969 152.640625 231.917969 151.769531 C 231.917969 151.359375 231.757812 150.984375 231.5 150.703125 " fill-opacity="1" fill-rule="nonzero"/><g clip-path="url(#58fb5b42ef)"><path fill="#180c45" d="M 262.332031 248.191406 C 262.269531 247.96875 262.199219 247.753906 262.121094 247.542969 C 261.964844 247.117188 261.792969 246.691406 261.550781 246.308594 C 260.34375 244.382812 259.429688 243.945312 258.410156 243.324219 C 258.246094 243.222656 258.097656 243.273438 258.027344 243.402344 C 257.867188 243.453125 257.707031 243.523438 257.558594 243.601562 C 257.511719 243.574219 257.457031 243.558594 257.390625 243.566406 C 256.429688 243.710938 256.746094 244.671875 255.878906 245.101562 C 255 245.535156 254.175781 246.082031 253.445312 246.730469 C 253.027344 247.097656 252.648438 247.5 252.292969 247.925781 C 252.25 247.976562 252.234375 248.03125 252.234375 248.085938 C 252.09375 248.105469 251.964844 248.242188 252.019531 248.414062 C 252.3125 249.398438 251.628906 250.378906 250.984375 251.042969 C 250.238281 251.808594 249.355469 252.453125 248.867188 253.433594 C 248.605469 253.957031 248.585938 254.304688 248.675781 254.691406 C 248.695312 254.777344 248.851562 255.1875 249.226562 255.1875 L 252.882812 255.1875 C 254.019531 255.1875 255.988281 254.230469 256.785156 253.738281 C 259.078125 252.332031 260.160156 251.570312 261.816406 250.125 C 262.1875 249.800781 262.480469 249.429688 262.472656 248.90625 C 262.46875 248.660156 262.398438 248.421875 262.332031 248.191406 " fill-opacity="1" fill-rule="nonzero"/></g><path fill="#40c79a" d="M 261.011719 240.40625 C 260.503906 239.195312 259.734375 238.058594 259.066406 236.933594 C 257.847656 234.878906 256.601562 232.84375 255.351562 230.808594 C 253.988281 228.59375 252.617188 226.382812 251.242188 224.175781 C 250.199219 222.507812 249.15625 220.839844 248.113281 219.175781 C 247.515625 218.222656 247.058594 217.351562 246.75 216.265625 C 246.417969 215.105469 246.1875 213.910156 246.140625 212.699219 C 246.035156 210.082031 246.648438 207.457031 247.085938 204.890625 C 247.53125 202.285156 247.984375 199.683594 248.421875 197.078125 C 248.839844 194.570312 249.203125 192.023438 249.042969 189.476562 C 248.800781 185.582031 246.976562 181.308594 243.207031 179.652344 C 243.269531 179.601562 243.308594 179.511719 243.300781 179.433594 C 243.28125 179.289062 243.164062 179.21875 243.03125 179.21875 C 242.898438 179.21875 242.804688 179.367188 242.816406 179.484375 C 242.816406 179.492188 242.816406 179.492188 242.820312 179.5 C 242.511719 179.382812 242.199219 179.289062 241.878906 179.214844 C 241.664062 179.164062 241.558594 179.367188 241.601562 179.535156 C 241.554688 179.578125 241.523438 179.632812 241.507812 179.707031 C 240.640625 184.332031 239.902344 188.984375 239.21875 193.640625 C 238.539062 198.296875 237.9375 202.96875 237.421875 207.648438 C 237.136719 210.269531 236.871094 212.890625 236.660156 215.519531 C 236.640625 215.761719 236.90625 215.871094 237.066406 215.785156 C 237.621094 218.554688 238.292969 221.304688 239.035156 224.027344 C 239.863281 227.0625 240.796875 230.070312 241.835938 233.039062 C 242.871094 236.011719 244.011719 238.945312 245.25 241.839844 C 245.808594 243.144531 246.347656 244.480469 247.042969 245.722656 C 247.628906 246.769531 248.335938 248.363281 249.417969 248.933594 C 250.992188 249.765625 253.632812 247.695312 254.875 246.890625 C 256.660156 245.730469 258.34375 244.414062 259.898438 242.960938 C 260.65625 242.257812 261.464844 241.484375 261.011719 240.40625 " fill-opacity="1" fill-rule="nonzero"/><path fill="#180c45" d="M 244.757812 225.269531 C 244.644531 223.90625 244.417969 222.554688 244.132812 221.21875 C 243.566406 218.527344 243.050781 214.835938 242.789062 212.105469 C 242.40625 208.117188 244.714844 198.570312 244.894531 197.269531 C 244.730469 197.019531 241.1875 200.59375 241.007812 200.355469 C 240.71875 200.820312 240.4375 201.285156 240.164062 201.757812 C 239.480469 202.925781 238.847656 204.132812 238.273438 205.359375 C 237.992188 205.949219 237.730469 206.546875 237.480469 207.148438 C 237.460938 207.316406 237.441406 207.480469 237.421875 207.644531 C 237.136719 210.269531 236.871094 212.890625 236.660156 215.519531 C 236.640625 215.761719 236.90625 215.871094 237.066406 215.785156 C 237.621094 218.554688 238.292969 221.304688 239.035156 224.027344 C 239.863281 227.0625 240.800781 230.070312 241.835938 233.042969 C 242.398438 234.660156 242.996094 236.269531 243.621094 237.867188 C 244.152344 235.148438 244.617188 232.402344 244.789062 229.632812 C 244.878906 228.183594 244.882812 226.71875 244.757812 225.269531 " fill-opacity="1" fill-rule="nonzero"/><path fill="#180c45" d="M 257.390625 244.15625 C 257.382812 244.164062 257.371094 244.167969 257.371094 244.167969 C 257.371094 244.167969 257.367188 244.167969 257.367188 244.167969 C 257.371094 244.171875 257.390625 244.160156 257.390625 244.15625 " fill-opacity="1" fill-rule="nonzero"/><g clip-path="url(#e78d43e2f0)"><path fill="#6f60ab" d="M 249.039062 254.171875 C 251.003906 254.183594 252.988281 254.285156 254.855469 253.570312 C 256.691406 252.871094 258.292969 251.71875 259.796875 250.476562 C 260.621094 249.792969 261.421875 249.074219 262.234375 248.378906 C 262.359375 248.277344 262.34375 248.066406 262.234375 247.957031 C 262.113281 247.835938 261.9375 247.851562 261.8125 247.957031 C 260.394531 249.167969 259.019531 250.445312 257.476562 251.496094 C 256.703125 252.023438 255.886719 252.496094 255.023438 252.863281 C 254.15625 253.230469 253.246094 253.449219 252.3125 253.53125 C 251.222656 253.628906 250.128906 253.578125 249.039062 253.570312 C 248.65625 253.570312 248.652344 254.167969 249.039062 254.171875 " fill-opacity="1" fill-rule="nonzero"/></g><path fill="#180c45" d="M 208.210938 162.929688 L 213.753906 173.65625 C 213.898438 173.933594 214.214844 174.140625 214.492188 174.140625 L 223.195312 174.140625 C 223.527344 174.140625 223.667969 173.847656 223.5 173.519531 L 217.953125 162.792969 C 217.8125 162.515625 217.496094 162.308594 217.21875 162.308594 L 208.511719 162.308594 C 208.183594 162.308594 208.042969 162.601562 208.210938 162.929688 " fill-opacity="1" fill-rule="nonzero"/><path fill="#a85e36" d="M 231.9375 166.695312 C 232.214844 165.914062 232.484375 165.128906 232.746094 164.34375 C 232.722656 164.367188 232.699219 164.390625 232.6875 164.421875 C 232.640625 164.398438 232.597656 164.371094 232.550781 164.347656 C 232.316406 164.21875 232.082031 164.09375 231.84375 163.96875 C 229.859375 162.917969 227.699219 161.699219 225.453125 161.347656 C 223.445312 161.03125 221.699219 161.964844 220.234375 163.257812 C 219.777344 163.664062 216.386719 166.664062 218.089844 167.195312 C 218.667969 167.375 219.246094 167.0625 219.789062 166.855469 C 220.125 166.730469 220.449219 166.582031 220.765625 166.417969 C 220.648438 166.703125 220.542969 167.015625 220.667969 167.304688 C 220.785156 167.574219 221.066406 167.769531 221.53125 167.742188 C 222.613281 167.679688 224.871094 166.351562 224.933594 166.320312 C 226.542969 167.625 228.769531 169.269531 230.480469 170.433594 C 230.976562 169.191406 231.484375 167.957031 231.9375 166.695312 " fill-opacity="1" fill-rule="nonzero"/><path fill="#a85e36" d="M 235.832031 160.398438 C 237.003906 159.699219 238.167969 158.976562 239.285156 158.199219 C 238.457031 156.707031 237.601562 155.234375 236.753906 153.753906 C 235.722656 154.636719 234.667969 155.484375 233.570312 156.285156 C 233.960938 157.050781 234.359375 157.808594 234.777344 158.554688 C 235.117188 159.171875 235.464844 159.792969 235.832031 160.398438 " fill-opacity="1" fill-rule="nonzero"/><path fill="#f0dece" d="M 234.964844 160.78125 C 234.964844 160.78125 236.179688 157.597656 238.472656 156.621094 C 239.078125 156.363281 240.308594 158.4375 240.308594 158.4375 C 240.308594 158.4375 236.8125 161.9375 234.964844 160.78125 " fill-opacity="1" fill-rule="nonzero"/><path fill="#a85e36" d="M 234.554688 150.019531 C 233.570312 149.527344 231.296875 150.003906 230.4375 150.667969 C 228.914062 151.847656 229.925781 153.5 230.09375 155.308594 C 230.152344 155.945312 230.175781 156.785156 230.316406 157.585938 C 230.367188 157.890625 230.4375 158.195312 230.53125 158.472656 C 230.777344 159.195312 231.183594 159.777344 231.898438 159.980469 C 232.90625 160.261719 234.355469 159.457031 235.152344 158.539062 C 235.160156 158.53125 236.429688 156.890625 236.613281 155.847656 C 236.800781 154.773438 236.796875 153.601562 236.5 152.546875 C 236.203125 151.472656 235.566406 150.527344 234.554688 150.019531 " fill-opacity="1" fill-rule="nonzero"/><path fill="#180c45" d="M 231.058594 153.800781 C 231.03125 153.738281 230.984375 153.683594 230.929688 153.640625 C 230.699219 153.464844 230.351562 153.402344 230.078125 153.519531 C 230.042969 153.535156 230.007812 153.554688 229.976562 153.574219 C 229.917969 153.609375 229.863281 153.679688 229.832031 153.738281 C 229.765625 153.867188 229.777344 154.03125 229.859375 154.15625 C 229.921875 154.253906 230.019531 154.3125 230.132812 154.339844 C 230.265625 154.371094 230.417969 154.292969 230.554688 154.285156 C 230.710938 154.273438 230.867188 154.28125 230.953125 154.234375 C 231.054688 154.175781 231.109375 154.085938 231.101562 153.941406 C 231.097656 153.894531 231.082031 153.84375 231.058594 153.800781 " fill-opacity="1" fill-rule="nonzero"/><path fill="#ffffff" d="M 231.164062 157.128906 C 231.164062 157.128906 231.167969 157.789062 230.457031 158.222656 C 230.347656 157.945312 230.28125 157.640625 230.273438 157.328125 L 231.164062 157.128906 " fill-opacity="1" fill-rule="nonzero"/><path fill="#180c45" d="M 237.386719 152.652344 C 237.820312 152.371094 238.105469 151.882812 238.105469 151.332031 C 238.105469 150.613281 237.621094 150.007812 236.964844 149.820312 C 236.976562 149.757812 236.984375 149.691406 236.984375 149.628906 C 236.984375 149.039062 236.507812 148.558594 235.917969 148.558594 C 235.796875 148.558594 235.683594 148.582031 235.574219 148.617188 C 235.445312 148.480469 235.285156 148.371094 235.101562 148.3125 C 234.792969 148.210938 234.445312 148.234375 234.15625 148.378906 C 233.988281 148.296875 233.796875 148.25 233.597656 148.25 C 233.171875 148.25 232.796875 148.457031 232.566406 148.777344 C 232.328125 148.640625 232.054688 148.566406 231.765625 148.59375 C 230.964844 148.667969 230.304688 149.386719 230.410156 150.210938 C 230.421875 150.285156 230.4375 150.355469 230.457031 150.425781 C 230.371094 150.449219 230.289062 150.480469 230.210938 150.53125 C 229.769531 150.796875 229.597656 151.328125 229.683594 151.820312 C 229.769531 152.300781 230.113281 152.730469 230.539062 152.957031 C 230.964844 153.183594 231.457031 153.234375 231.933594 153.191406 C 231.933594 153.277344 231.933594 153.359375 231.945312 153.445312 C 231.996094 153.863281 232.144531 154.304688 232.460938 154.597656 C 232.5625 154.691406 232.671875 154.761719 232.789062 154.808594 C 233.164062 154.878906 233.414062 154.816406 233.574219 154.660156 C 233.707031 154.671875 233.847656 154.667969 233.984375 154.648438 C 233.941406 154.714844 233.925781 154.796875 233.976562 154.878906 C 234.378906 155.550781 235.15625 155.941406 235.933594 155.929688 C 236.566406 155.921875 237.683594 155.484375 237.667969 155.335938 C 237.605469 154.683594 237.539062 153.765625 237.46875 153.25 C 237.445312 153.09375 237.417969 152.875 237.386719 152.652344 " fill-opacity="1" fill-rule="nonzero"/><path fill="#a85e36" d="M 230.238281 154.988281 C 230.238281 154.988281 229.71875 155.875 229.410156 156.375 C 229.21875 156.683594 229.335938 157.398438 230.511719 157.023438 C 231.324219 156.761719 230.238281 154.988281 230.238281 154.988281 " fill-opacity="1" fill-rule="nonzero"/><path fill="#a85e36" d="M 232.839844 155.65625 C 233.089844 156.261719 233.78125 156.542969 234.386719 156.289062 C 234.984375 156.039062 235.269531 155.34375 235.019531 154.742188 C 234.765625 154.136719 234.074219 153.851562 233.472656 154.105469 C 232.871094 154.359375 232.585938 155.054688 232.839844 155.65625 " fill-opacity="1" fill-rule="nonzero"/><path fill="#180c45" d="M 230.929688 155.03125 C 230.996094 155.324219 230.914062 155.617188 230.703125 155.703125 C 230.46875 155.804688 230.308594 155.613281 230.246094 155.320312 C 230.179688 155.027344 230.246094 154.742188 230.472656 154.648438 C 230.722656 154.542969 230.867188 154.742188 230.929688 155.03125 " fill-opacity="1" fill-rule="nonzero"/><g clip-path="url(#a84b87b016)"><path fill="#180c45" d="M 239.421875 255.1875 L 225.191406 255.1875 C 224.863281 255.1875 224.597656 254.796875 224.570312 254.667969 C 224.304688 253.328125 225.199219 252.261719 226.417969 251.507812 C 227.664062 250.734375 228.9375 250.046875 230.0625 249.113281 C 231.949219 247.554688 233.507812 245.679688 235.003906 243.753906 C 235.902344 244.238281 236.832031 244.636719 237.738281 245.089844 C 238.753906 248.445312 239.386719 251.863281 239.421875 255.1875 " fill-opacity="1" fill-rule="nonzero"/></g><path fill="#6f60ab" d="M 225.027344 254.1875 C 228.699219 254.1875 232.375 254.1875 236.050781 254.1875 C 237.078125 254.1875 238.105469 254.1875 239.136719 254.1875 C 239.519531 254.1875 239.519531 253.589844 239.136719 253.589844 C 235.460938 253.589844 231.785156 253.589844 228.113281 253.589844 C 227.082031 253.589844 226.054688 253.589844 225.027344 253.589844 C 224.640625 253.589844 224.640625 254.1875 225.027344 254.1875 " fill-opacity="1" fill-rule="nonzero"/><path fill="#40c79a" d="M 245.839844 185.609375 C 245.628906 183.507812 245.398438 181.039062 243.964844 179.402344 C 241.582031 178.722656 239.414062 178.621094 237.03125 179.152344 C 236.421875 179.289062 236.371094 181.996094 235.769531 182.175781 C 234.574219 182.535156 230.832031 197.492188 230.234375 201.378906 C 228.734375 211.054688 227.390625 219.3125 226.867188 228.136719 C 226.476562 234.804688 225.898438 241.917969 226.605469 248.585938 C 226.796875 250.402344 228.664062 250.289062 231.070312 250.277344 C 232.019531 250.273438 232.96875 250.175781 233.914062 250.070312 C 235.355469 249.910156 236.761719 249.707031 238.179688 249.402344 C 239.269531 249.167969 240.449219 248.976562 241.457031 248.382812 C 241.703125 248.242188 241.90625 248.035156 242.066406 247.804688 C 242.570312 247.085938 242.105469 244.136719 242.015625 243.214844 C 241.742188 240.339844 241.292969 237.488281 240.835938 234.636719 C 239.917969 228.917969 238.9375 223.128906 239.378906 217.316406 C 239.792969 211.867188 241.75 206.753906 243.449219 201.609375 C 244.285156 199.078125 245.058594 196.515625 245.527344 193.886719 C 246.019531 191.144531 246.121094 188.382812 245.839844 185.609375 " fill-opacity="1" fill-rule="nonzero"/><path fill="#180c45" d="M 240.253906 226.089844 C 240.15625 223.597656 240.132812 221.101562 240.253906 218.613281 C 240.367188 216.296875 240.609375 213.984375 241.042969 211.703125 C 241.253906 210.605469 241.507812 209.511719 241.808594 208.433594 C 242.136719 207.269531 242.527344 206.125 242.90625 204.976562 C 243.699219 202.566406 244.488281 200.148438 245.101562 197.679688 C 245.710938 195.234375 246.144531 192.734375 246.21875 190.210938 C 246.230469 189.898438 246.234375 189.585938 246.230469 189.277344 C 246.230469 188.890625 245.632812 188.890625 245.632812 189.277344 C 245.644531 191.796875 245.28125 194.296875 244.710938 196.746094 C 244.136719 199.222656 243.371094 201.644531 242.578125 204.058594 C 241.847656 206.300781 241.089844 208.53125 240.605469 210.84375 C 240.136719 213.113281 239.851562 215.421875 239.707031 217.730469 C 239.550781 220.195312 239.542969 222.667969 239.621094 225.136719 C 239.632812 225.453125 239.644531 225.773438 239.65625 226.089844 C 239.675781 226.472656 240.273438 226.476562 240.253906 226.089844 " fill-opacity="1" fill-rule="nonzero"/><path fill="#f0dece" d="M 248.296875 177.472656 C 247.835938 174.710938 247.433594 171.945312 246.714844 169.230469 C 245.972656 166.429688 245.011719 163.691406 243.96875 160.988281 C 243.742188 160.398438 243.503906 159.800781 243.125 159.292969 C 241.515625 157.140625 237.707031 158.019531 236.003906 159.558594 C 235.199219 160.285156 234.632812 161.222656 234.207031 162.214844 C 233.554688 163.730469 233.300781 165.265625 233.035156 166.898438 C 232.441406 170.546875 231.457031 174.132812 231.355469 177.851562 C 231.292969 180.15625 231.710938 182.558594 234.1875 183.328125 C 235.152344 183.625 236.167969 183.691406 237.175781 183.703125 C 238.242188 183.71875 239.308594 183.632812 240.359375 183.453125 C 241.9375 183.179688 243.527344 182.679688 244.996094 181.984375 C 246.125 181.445312 247.898438 180.730469 248.371094 179.457031 C 248.605469 178.820312 248.40625 178.117188 248.296875 177.472656 " fill-opacity="1" fill-rule="nonzero"/><path fill="#180c45" d="M 240.210938 167.15625 C 239.273438 168.527344 238.324219 169.882812 237.386719 171.253906 C 236.078125 173.167969 234.75 175.066406 233.355469 176.917969 C 232.828125 177.613281 232.289062 178.296875 231.761719 178.992188 C 232.90625 179.242188 234.097656 179.269531 235.253906 179.082031 C 238.085938 178.617188 240.292969 176.78125 240.789062 173.839844 C 241.027344 172.429688 241.003906 170.980469 240.792969 169.570312 C 240.671875 168.75 240.476562 167.941406 240.210938 167.15625 " fill-opacity="1" fill-rule="nonzero"/><path fill="#a85e36" d="M 233.863281 164.808594 C 233.929688 164.707031 234 164.605469 234.066406 164.507812 C 234.246094 164.238281 233.875 163.914062 233.671875 164.179688 C 232.828125 165.296875 232.445312 166.496094 231.761719 167.71875 C 229.839844 171.171875 229.273438 174.117188 224.980469 173.367188 C 221.898438 172.828125 217.972656 171.609375 214.816406 170.554688 C 214.726562 170.335938 214.636719 170.125 214.546875 169.910156 C 214.277344 169.296875 213.984375 168.695312 213.675781 168.105469 C 213.527344 167.824219 213.390625 167.496094 213.179688 167.253906 C 212.972656 167.015625 212.617188 166.902344 212.34375 167.109375 C 212.097656 167.292969 212.085938 167.660156 212.078125 167.9375 C 212.070312 168.289062 212.105469 168.632812 212.167969 168.972656 C 212.199219 169.152344 212.226562 169.398438 212.265625 169.574219 C 212.222656 169.53125 210.570312 167.449219 210.554688 167.464844 C 209.511719 168.378906 209.855469 170.457031 210.316406 171.816406 C 211.703125 175.890625 214.226562 176.644531 218.238281 178.535156 C 222.195312 180.40625 227.832031 182.632812 231.949219 180.179688 C 234.972656 178.382812 237.523438 174.53125 238.890625 171.417969 C 238.960938 171.253906 234.621094 165.636719 233.863281 164.808594 " fill-opacity="1" fill-rule="nonzero"/><path fill="#f0dece" d="M 240.957031 165.308594 C 240.910156 163.824219 240.0625 162.585938 239.1875 161.195312 C 238.425781 160.484375 237.511719 159.972656 236.546875 159.582031 C 236.402344 159.613281 236.253906 159.648438 236.109375 159.691406 C 235.050781 160.5625 234.1875 161.640625 233.417969 162.773438 C 232.554688 164.042969 231.753906 165.359375 230.96875 166.675781 C 230.769531 167.011719 230.574219 167.347656 230.378906 167.683594 C 230.195312 167.996094 229.128906 169.6875 229.15625 170.046875 C 229.183594 170.394531 230.957031 171.675781 231.539062 172.039062 C 232.140625 172.414062 232.769531 172.75 233.421875 173.027344 C 234.726562 173.574219 236.488281 174.203125 237.90625 174.132812 C 238.535156 174.105469 239.960938 170.765625 240.136719 170.085938 C 240.507812 168.644531 241.003906 166.707031 240.957031 165.308594 " fill-opacity="1" fill-rule="nonzero"/><path fill="#180c45" d="M 220.8125 166.933594 C 221.304688 166.109375 221.902344 165.359375 222.589844 164.691406 C 222.867188 164.421875 222.441406 164 222.167969 164.265625 C 221.445312 164.96875 220.8125 165.765625 220.296875 166.628906 C 220.097656 166.960938 220.613281 167.261719 220.8125 166.933594 " fill-opacity="1" fill-rule="nonzero"/><path fill="#180c45" d="M 211.910156 169.886719 C 212.191406 170.605469 212.46875 171.324219 212.75 172.042969 C 212.808594 172.191406 212.949219 172.296875 213.117188 172.25 C 213.261719 172.210938 213.386719 172.035156 213.324219 171.882812 C 213.046875 171.164062 212.765625 170.445312 212.488281 169.726562 C 212.429688 169.574219 212.285156 169.46875 212.121094 169.515625 C 211.976562 169.554688 211.851562 169.734375 211.910156 169.886719 " fill-opacity="1" fill-rule="nonzero"/><path fill="#180c45" d="M 226.726562 247.535156 C 228.730469 247.769531 230.753906 247.804688 232.765625 247.65625 C 234.789062 247.507812 236.800781 247.183594 238.761719 246.671875 C 239.835938 246.394531 240.894531 246.0625 241.933594 245.671875 C 242.082031 245.613281 242.1875 245.46875 242.140625 245.300781 C 242.101562 245.15625 241.925781 245.035156 241.773438 245.09375 C 239.925781 245.785156 238.011719 246.304688 236.066406 246.648438 C 234.105469 246.992188 232.109375 247.160156 230.117188 247.144531 C 228.984375 247.136719 227.851562 247.066406 226.726562 246.9375 C 226.566406 246.917969 226.429688 247.085938 226.429688 247.234375 C 226.429688 247.414062 226.566406 247.515625 226.726562 247.535156 " fill-opacity="1" fill-rule="nonzero"/><path fill="#180c45" d="M 248.902344 247.703125 C 250.484375 246.851562 251.96875 245.820312 253.394531 244.734375 C 254.972656 243.535156 256.492188 242.253906 257.898438 240.859375 C 258.574219 240.183594 259.226562 239.484375 259.820312 238.734375 C 259.917969 238.609375 259.941406 238.4375 259.820312 238.3125 C 259.714844 238.207031 259.496094 238.183594 259.394531 238.3125 C 258.292969 239.714844 256.984375 240.960938 255.644531 242.132812 C 254.179688 243.414062 252.640625 244.613281 251.027344 245.703125 C 250.242188 246.234375 249.433594 246.738281 248.601562 247.1875 C 248.261719 247.371094 248.5625 247.886719 248.902344 247.703125 " fill-opacity="1" fill-rule="nonzero"/><path fill="#180c45" d="M 235.570312 160.886719 C 236.6875 159.640625 238.242188 158.796875 239.914062 158.621094 C 240.074219 158.605469 240.214844 158.496094 240.214844 158.324219 C 240.214844 158.175781 240.074219 158.007812 239.914062 158.023438 C 238.085938 158.214844 236.375 159.09375 235.144531 160.460938 C 234.890625 160.75 235.3125 161.171875 235.570312 160.886719 " fill-opacity="1" fill-rule="nonzero"/></svg>